<?xml version="1.0" encoding="UTF-8" standalone="no"?><svg xmlns="http://www.w3.org/2000/svg" xmlns:xlink="http://www.w3.org/1999/xlink" clip-rule="evenodd" stroke-miterlimit="10" viewBox="0 0 1024 768"><desc>SVG generated by Keynote</desc><defs></defs><g transform="matrix(1.00, 0.00, -0.00, -1.00, 0.0, 768.0)"><g><clipPath id="clip0x608001ca06c0"><path d="M 0.0 768.0 L 1024.0 768.0 L 1024.0 0.0 L 0.0 0.0 Z M 0.0 768.0 "></path></clipPath><g clip-path="url(#clip0x608001ca06c0)"><image xlink:href="../../524A64CF-8346-4612-AEB3-13D03E94EA2C/assets/8A97F831B44C6305266B84CB83B0E791.jpeg" width="2048.00" height="1536.00" transform="matrix(0.50, 0.00, -0.00, -0.50, 0.0, 768.0)"></image></g></g><text xml:space="preserve" font-family="BodoniSvtyTwoITCTT-Book,Bodoni 72" font-size="67.2" fill="#D93D2A" transform="matrix(1.00, 0.00, -0.00, -1.00, 47.4, 633.9)">R</text><text xml:space="preserve" font-family="BodoniSvtyTwoITCTT-Book,Bodoni 72" font-size="67.2" fill="#D93D2A" transform="matrix(1.00, 0.00, -0.00, -1.00, 87.0, 633.9)">u</text><text xml:space="preserve" font-family="BodoniSvtyTwoITCTT-Book,Bodoni 72" font-size="67.2" fill="#D93D2A" transform="matrix(1.00, 0.00, -0.00, -1.00, 119.9, 633.9)">n</text><text xml:space="preserve" font-family="BodoniSvtyTwoITCTT-Book,Bodoni 72" font-size="67.2" fill="#D93D2A" transform="matrix(1.00, 0.00, -0.00, -1.00, 152.7, 633.9)">n</text><text xml:space="preserve" font-family="BodoniSvtyTwoITCTT-Book,Bodoni 72" font-size="67.2" fill="#D93D2A" transform="matrix(1.00, 0.00, -0.00, -1.00, 185.6, 633.9)">i</text><text xml:space="preserve" font-family="BodoniSvtyTwoITCTT-Book,Bodoni 72" font-size="67.2" fill="#D93D2A" transform="matrix(1.00, 0.00, -0.00, -1.00, 202.5, 633.9)">n</text><text xml:space="preserve" font-family="BodoniSvtyTwoITCTT-Book,Bodoni 72" font-size="67.2" fill="#D93D2A" transform="matrix(1.00, 0.00, -0.00, -1.00, 235.3, 633.9)">g</text><text xml:space="preserve" font-family="BodoniSvtyTwoITCTT-Book,Bodoni 72" font-size="67.2" fill="#D93D2A" transform="matrix(1.00, 0.00, -0.00, -1.00, 266.7, 633.9)"> </text><text xml:space="preserve" font-family="BodoniSvtyTwoITCTT-Book,Bodoni 72" font-size="67.2" fill="#D93D2A" transform="matrix(1.00, 0.00, -0.00, -1.00, 279.2, 633.9)">O</text><text xml:space="preserve" font-family="BodoniSvtyTwoITCTT-Book,Bodoni 72" font-size="67.2" fill="#D93D2A" transform="matrix(1.00, 0.00, -0.00, -1.00, 327.6, 633.9)">u</text><text xml:space="preserve" font-family="BodoniSvtyTwoITCTT-Book,Bodoni 72" font-size="67.2" fill="#D93D2A" transform="matrix(1.00, 0.00, -0.00, -1.00, 360.5, 633.9)">r</text><text xml:space="preserve" font-family="BodoniSvtyTwoITCTT-Book,Bodoni 72" font-size="67.2" fill="#D93D2A" transform="matrix(1.00, 0.00, -0.00, -1.00, 383.2, 633.9)"> </text><text xml:space="preserve" font-family="BodoniSvtyTwoITCTT-Book,Bodoni 72" font-size="67.2" fill="#D93D2A" transform="matrix(1.00, 0.00, -0.00, -1.00, 395.7, 633.9)">C</text><text xml:space="preserve" font-family="BodoniSvtyTwoITCTT-Book,Bodoni 72" font-size="67.2" fill="#D93D2A" transform="matrix(1.00, 0.00, -0.00, -1.00, 439.6, 633.9)">o</text><text xml:space="preserve" font-family="BodoniSvtyTwoITCTT-Book,Bodoni 72" font-size="67.2" fill="#D93D2A" transform="matrix(1.00, 0.00, -0.00, -1.00, 471.9, 633.9)">n</text><text xml:space="preserve" font-family="BodoniSvtyTwoITCTT-Book,Bodoni 72" font-size="67.2" fill="#D93D2A" transform="matrix(1.00, 0.00, -0.00, -1.00, 504.7, 633.9)">t</text><text xml:space="preserve" font-family="BodoniSvtyTwoITCTT-Book,Bodoni 72" font-size="67.2" fill="#D93D2A" transform="matrix(1.00, 0.00, -0.00, -1.00, 523.8, 633.9)">a</text><text xml:space="preserve" font-family="BodoniSvtyTwoITCTT-Book,Bodoni 72" font-size="67.2" fill="#D93D2A" transform="matrix(1.00, 0.00, -0.00, -1.00, 550.5, 633.9)">i</text><text xml:space="preserve" font-family="BodoniSvtyTwoITCTT-Book,Bodoni 72" font-size="67.2" fill="#D93D2A" transform="matrix(1.00, 0.00, -0.00, -1.00, 567.4, 633.9)">n</text><text xml:space="preserve" font-family="BodoniSvtyTwoITCTT-Book,Bodoni 72" font-size="67.2" fill="#D93D2A" transform="matrix(1.00, 0.00, -0.00, -1.00, 600.2, 633.9)">e</text><text xml:space="preserve" font-family="BodoniSvtyTwoITCTT-Book,Bodoni 72" font-size="67.2" fill="#D93D2A" transform="matrix(1.00, 0.00, -0.00, -1.00, 629.1, 633.9)">r</text><text xml:space="preserve" font-family="BodoniSvtyTwoITCTT-Book,Bodoni 72" font-size="67.2" fill="#D93D2A" transform="matrix(1.00, 0.00, -0.00, -1.00, 651.8, 633.9)"> </text><text xml:space="preserve" font-family="BodoniSvtyTwoITCTT-Book,Bodoni 72" font-size="67.2" fill="#D93D2A" transform="matrix(1.00, 0.00, -0.00, -1.00, 664.3, 633.9)">I</text><text xml:space="preserve" font-family="BodoniSvtyTwoITCTT-Book,Bodoni 72" font-size="67.2" fill="#D93D2A" transform="matrix(1.00, 0.00, -0.00, -1.00, 685.4, 633.9)">n</text><text xml:space="preserve" font-family="BodoniSvtyTwoITCTT-Book,Bodoni 72" font-size="67.2" fill="#D93D2A" transform="matrix(1.00, 0.00, -0.00, -1.00, 718.3, 633.9)">t</text><text xml:space="preserve" font-family="BodoniSvtyTwoITCTT-Book,Bodoni 72" font-size="67.2" fill="#D93D2A" transform="matrix(1.00, 0.00, -0.00, -1.00, 737.4, 633.9)">e</text><text xml:space="preserve" font-family="BodoniSvtyTwoITCTT-Book,Bodoni 72" font-size="67.2" fill="#D93D2A" transform="matrix(1.00, 0.00, -0.00, -1.00, 766.3, 633.9)">r</text><text xml:space="preserve" font-family="BodoniSvtyTwoITCTT-Book,Bodoni 72" font-size="67.2" fill="#D93D2A" transform="matrix(1.00, 0.00, -0.00, -1.00, 789.0, 633.9)">a</text><text xml:space="preserve" font-family="BodoniSvtyTwoITCTT-Book,Bodoni 72" font-size="67.2" fill="#D93D2A" transform="matrix(1.00, 0.00, -0.00, -1.00, 815.7, 633.9)">c</text><text xml:space="preserve" font-family="BodoniSvtyTwoITCTT-Book,Bodoni 72" font-size="67.2" fill="#D93D2A" transform="matrix(1.00, 0.00, -0.00, -1.00, 843.2, 633.9)">t</text><text xml:space="preserve" font-family="BodoniSvtyTwoITCTT-Book,Bodoni 72" font-size="67.2" fill="#D93D2A" transform="matrix(1.00, 0.00, -0.00, -1.00, 862.2, 633.9)">i</text><text xml:space="preserve" font-family="BodoniSvtyTwoITCTT-Book,Bodoni 72" font-size="67.2" fill="#D93D2A" transform="matrix(1.00, 0.00, -0.00, -1.00, 879.1, 633.9)">v</text><text xml:space="preserve" font-family="BodoniSvtyTwoITCTT-Book,Bodoni 72" font-size="67.2" fill="#D93D2A" transform="matrix(1.00, 0.00, -0.00, -1.00, 904.9, 633.9)">e</text><text xml:space="preserve" font-family="BodoniSvtyTwoITCTT-Book,Bodoni 72" font-size="67.2" fill="#D93D2A" transform="matrix(1.00, 0.00, -0.00, -1.00, 933.8, 633.9)">l</text><text xml:space="preserve" font-family="BodoniSvtyTwoITCTT-Book,Bodoni 72" font-size="67.2" fill="#D93D2A" transform="matrix(1.00, 0.00, -0.00, -1.00, 949.6, 633.9)">y</text><text xml:space="preserve" font-family="Courier,Courier" font-size="36.0" fill="#030000" transform="matrix(1.00, 0.00, -0.00, -1.00, 47.5, 485.8)">d</text><text xml:space="preserve" font-family="Courier,Courier" font-size="36.0" fill="#030000" transform="matrix(1.00, 0.00, -0.00, -1.00, 69.1, 485.8)">o</text><text xml:space="preserve" font-family="Courier,Courier" font-size="36.0" fill="#030000" transform="matrix(1.00, 0.00, -0.00, -1.00, 90.7, 485.8)">c</text><text xml:space="preserve" font-family="Courier,Courier" font-size="36.0" fill="#030000" transform="matrix(1.00, 0.00, -0.00, -1.00, 112.3, 485.8)">k</text><text xml:space="preserve" font-family="Courier,Courier" font-size="36.0" fill="#030000" transform="matrix(1.00, 0.00, -0.00, -1.00, 134.0, 485.8)">e</text><text xml:space="preserve" font-family="Courier,Courier" font-size="36.0" fill="#030000" transform="matrix(1.00, 0.00, -0.00, -1.00, 155.6, 485.8)">r</text><text xml:space="preserve" font-family="Courier,Courier" font-size="36.0" fill="#030000" transform="matrix(1.00, 0.00, -0.00, -1.00, 177.2, 485.8)"> </text><text xml:space="preserve" font-family="Courier,Courier" font-size="36.0" fill="#030000" transform="matrix(1.00, 0.00, -0.00, -1.00, 198.8, 485.8)">r</text><text xml:space="preserve" font-family="Courier,Courier" font-size="36.0" fill="#030000" transform="matrix(1.00, 0.00, -0.00, -1.00, 220.4, 485.8)">u</text><text xml:space="preserve" font-family="Courier,Courier" font-size="36.0" fill="#030000" transform="matrix(1.00, 0.00, -0.00, -1.00, 242.0, 485.8)">n</text><text xml:space="preserve" font-family="Courier,Courier" font-size="36.0" fill="#030000" transform="matrix(1.00, 0.00, -0.00, -1.00, 263.6, 485.8)"> </text><text xml:space="preserve" font-family="Courier,Courier" font-size="36.0" fill="#030000" transform="matrix(1.00, 0.00, -0.00, -1.00, 285.2, 485.8)">-</text><text xml:space="preserve" font-family="Courier,Courier" font-size="36.0" fill="#030000" transform="matrix(1.00, 0.00, -0.00, -1.00, 306.8, 485.8)">i</text><text xml:space="preserve" font-family="Courier,Courier" font-size="36.0" fill="#030000" transform="matrix(1.00, 0.00, -0.00, -1.00, 328.4, 485.8)">t</text><text xml:space="preserve" font-family="Courier,Courier" font-size="36.0" fill="#030000" transform="matrix(1.00, 0.00, -0.00, -1.00, 350.0, 485.8)"> </text><text xml:space="preserve" font-family="Courier,Courier" font-size="36.0" fill="#030000" transform="matrix(1.00, 0.00, -0.00, -1.00, 371.6, 485.8)">-</text><text xml:space="preserve" font-family="Courier,Courier" font-size="36.0" fill="#030000" transform="matrix(1.00, 0.00, -0.00, -1.00, 393.2, 485.8)">p</text><text xml:space="preserve" font-family="Courier,Courier" font-size="36.0" fill="#030000" transform="matrix(1.00, 0.00, -0.00, -1.00, 414.8, 485.8)"> </text><text xml:space="preserve" font-family="Courier,Courier" font-size="36.0" fill="#030000" transform="matrix(1.00, 0.00, -0.00, -1.00, 436.5, 485.8)">8</text><text xml:space="preserve" font-family="Courier,Courier" font-size="36.0" fill="#030000" transform="matrix(1.00, 0.00, -0.00, -1.00, 458.1, 485.8)">0</text><text xml:space="preserve" font-family="Courier,Courier" font-size="36.0" fill="#030000" transform="matrix(1.00, 0.00, -0.00, -1.00, 479.7, 485.8)">8</text><text xml:space="preserve" font-family="Courier,Courier" font-size="36.0" fill="#030000" transform="matrix(1.00, 0.00, -0.00, -1.00, 501.3, 485.8)">0</text><text xml:space="preserve" font-family="Courier,Courier" font-size="36.0" fill="#030000" transform="matrix(1.00, 0.00, -0.00, -1.00, 522.9, 485.8)">:</text><text xml:space="preserve" font-family="Courier,Courier" font-size="36.0" fill="#030000" transform="matrix(1.00, 0.00, -0.00, -1.00, 544.5, 485.8)">4</text><text xml:space="preserve" font-family="Courier,Courier" font-size="36.0" fill="#030000" transform="matrix(1.00, 0.00, -0.00, -1.00, 566.1, 485.8)">5</text><text xml:space="preserve" font-family="Courier,Courier" font-size="36.0" fill="#030000" transform="matrix(1.00, 0.00, -0.00, -1.00, 587.7, 485.8)">6</text><text xml:space="preserve" font-family="Courier,Courier" font-size="36.0" fill="#030000" transform="matrix(1.00, 0.00, -0.00, -1.00, 609.3, 485.8)">7</text><text xml:space="preserve" font-family="Courier,Courier" font-size="36.0" fill="#030000" transform="matrix(1.00, 0.00, -0.00, -1.00, 630.9, 485.8)"> </text><text xml:space="preserve" font-family="Courier,Courier" font-size="36.0" fill="#030000" transform="matrix(1.00, 0.00, -0.00, -1.00, 652.5, 485.8)">c</text><text xml:space="preserve" font-family="Courier,Courier" font-size="36.0" fill="#030000" transform="matrix(1.00, 0.00, -0.00, -1.00, 674.1, 485.8)">h</text><text xml:space="preserve" font-family="Courier,Courier" font-size="36.0" fill="#030000" transform="matrix(1.00, 0.00, -0.00, -1.00, 695.7, 485.8)">u</text><text xml:space="preserve" font-family="Courier,Courier" font-size="36.0" fill="#030000" transform="matrix(1.00, 0.00, -0.00, -1.00, 717.3, 485.8)">c</text><text xml:space="preserve" font-family="Courier,Courier" font-size="36.0" fill="#030000" transform="matrix(1.00, 0.00, -0.00, -1.00, 739.0, 485.8)">k</text><text xml:space="preserve" font-family="Courier,Courier" font-size="36.0" fill="#030000" transform="matrix(1.00, 0.00, -0.00, -1.00, 760.6, 485.8)">s</text><text xml:space="preserve" font-family="Courier,Courier" font-size="36.0" fill="#030000" transform="matrix(1.00, 0.00, -0.00, -1.00, 782.2, 485.8)">a</text><text xml:space="preserve" font-family="Courier,Courier" font-size="36.0" fill="#030000" transform="matrix(1.00, 0.00, -0.00, -1.00, 803.8, 485.8)">y</text><text xml:space="preserve" font-family="Courier,Courier" font-size="36.0" fill="#030000" transform="matrix(1.00, 0.00, -0.00, -1.00, 825.4, 485.8)">:</text><text xml:space="preserve" font-family="Courier,Courier" font-size="36.0" fill="#030000" transform="matrix(1.00, 0.00, -0.00, -1.00, 847.0, 485.8)">l</text><text xml:space="preserve" font-family="Courier,Courier" font-size="36.0" fill="#030000" transform="matrix(1.00, 0.00, -0.00, -1.00, 868.6, 485.8)">a</text><text xml:space="preserve" font-family="Courier,Courier" font-size="36.0" fill="#030000" transform="matrix(1.00, 0.00, -0.00, -1.00, 890.2, 485.8)">t</text><text xml:space="preserve" font-family="Courier,Courier" font-size="36.0" fill="#030000" transform="matrix(1.00, 0.00, -0.00, -1.00, 911.8, 485.8)">e</text><text xml:space="preserve" font-family="Courier,Courier" font-size="36.0" fill="#030000" transform="matrix(1.00, 0.00, -0.00, -1.00, 933.4, 485.8)">s</text><text xml:space="preserve" font-family="Courier,Courier" font-size="36.0" fill="#030000" transform="matrix(1.00, 0.00, -0.00, -1.00, 955.0, 485.8)">t</text><text xml:space="preserve" font-family="Courier,Courier" font-size="36.0" fill="#030000" transform="matrix(1.00, 0.00, -0.00, -1.00, 976.6, 485.8)"> </text><text xml:space="preserve" font-family="Courier,Courier" font-size="36.0" fill="#030000" transform="matrix(1.00, 0.00, -0.00, -1.00, 414.8, 442.8)">/</text><text xml:space="preserve" font-family="Courier,Courier" font-size="36.0" fill="#030000" transform="matrix(1.00, 0.00, -0.00, -1.00, 436.4, 442.8)">b</text><text xml:space="preserve" font-family="Courier,Courier" font-size="36.0" fill="#030000" transform="matrix(1.00, 0.00, -0.00, -1.00, 458.0, 442.8)">i</text><text xml:space="preserve" font-family="Courier,Courier" font-size="36.0" fill="#030000" transform="matrix(1.00, 0.00, -0.00, -1.00, 479.6, 442.8)">n</text><text xml:space="preserve" font-family="Courier,Courier" font-size="36.0" fill="#030000" transform="matrix(1.00, 0.00, -0.00, -1.00, 501.2, 442.8)">/</text><text xml:space="preserve" font-family="Courier,Courier" font-size="36.0" fill="#030000" transform="matrix(1.00, 0.00, -0.00, -1.00, 522.8, 442.8)">b</text><text xml:space="preserve" font-family="Courier,Courier" font-size="36.0" fill="#030000" transform="matrix(1.00, 0.00, -0.00, -1.00, 544.4, 442.8)">a</text><text xml:space="preserve" font-family="Courier,Courier" font-size="36.0" fill="#030000" transform="matrix(1.00, 0.00, -0.00, -1.00, 566.0, 442.8)">s</text><text xml:space="preserve" font-family="Courier,Courier" font-size="36.0" fill="#030000" transform="matrix(1.00, 0.00, -0.00, -1.00, 587.6, 442.8)">h</text><text xml:space="preserve" font-family="ZapfDingbatsITC,Zapf Dingbats" font-size="21.6" fill="#919191" transform="matrix(1.00, 0.00, -0.00, -1.00, 53.6, 392.6)">❖</text><text xml:space="preserve" font-family="Palatino-Roman,Palatino" font-size="36.0" fill="#404040" transform="matrix(1.00, 0.00, -0.00, -1.00, 90.6, 386.8)">-</text><text xml:space="preserve" font-family="Palatino-Roman,Palatino" font-size="36.0" fill="#404040" transform="matrix(1.00, 0.00, -0.00, -1.00, 102.6, 386.8)">i</text><text xml:space="preserve" font-family="Palatino-Roman,Palatino" font-size="36.0" fill="#404040" transform="matrix(1.00, 0.00, -0.00, -1.00, 113.1, 386.8)">t</text><text xml:space="preserve" font-family="Palatino-Roman,Palatino" font-size="36.0" fill="#404040" transform="matrix(1.00, 0.00, -0.00, -1.00, 124.8, 386.8)"> </text><text xml:space="preserve" font-family="Palatino-Roman,Palatino" font-size="36.0" fill="#404040" transform="matrix(1.00, 0.00, -0.00, -1.00, 133.8, 386.8)">l</text><text xml:space="preserve" font-family="Palatino-Roman,Palatino" font-size="36.0" fill="#404040" transform="matrix(1.00, 0.00, -0.00, -1.00, 144.3, 386.8)">e</text><text xml:space="preserve" font-family="Palatino-Roman,Palatino" font-size="36.0" fill="#404040" transform="matrix(1.00, 0.00, -0.00, -1.00, 161.6, 386.8)">t</text><text xml:space="preserve" font-family="Palatino-Roman,Palatino" font-size="36.0" fill="#404040" transform="matrix(1.00, 0.00, -0.00, -1.00, 173.3, 386.8)">s</text><text xml:space="preserve" font-family="Palatino-Roman,Palatino" font-size="36.0" fill="#404040" transform="matrix(1.00, 0.00, -0.00, -1.00, 188.6, 386.8)"> </text><text xml:space="preserve" font-family="Palatino-Roman,Palatino" font-size="36.0" fill="#404040" transform="matrix(1.00, 0.00, -0.00, -1.00, 197.6, 386.8)">u</text><text xml:space="preserve" font-family="Palatino-Roman,Palatino" font-size="36.0" fill="#404040" transform="matrix(1.00, 0.00, -0.00, -1.00, 219.3, 386.8)">s</text><text xml:space="preserve" font-family="Palatino-Roman,Palatino" font-size="36.0" fill="#404040" transform="matrix(1.00, 0.00, -0.00, -1.00, 234.5, 386.8)"> </text><text xml:space="preserve" font-family="Palatino-Roman,Palatino" font-size="36.0" fill="#404040" transform="matrix(1.00, 0.00, -0.00, -1.00, 243.5, 386.8)">i</text><text xml:space="preserve" font-family="Palatino-Roman,Palatino" font-size="36.0" fill="#404040" transform="matrix(1.00, 0.00, -0.00, -1.00, 254.0, 386.8)">n</text><text xml:space="preserve" font-family="Palatino-Roman,Palatino" font-size="36.0" fill="#404040" transform="matrix(1.00, 0.00, -0.00, -1.00, 275.0, 386.8)">t</text><text xml:space="preserve" font-family="Palatino-Roman,Palatino" font-size="36.0" fill="#404040" transform="matrix(1.00, 0.00, -0.00, -1.00, 286.7, 386.8)">e</text><text xml:space="preserve" font-family="Palatino-Roman,Palatino" font-size="36.0" fill="#404040" transform="matrix(1.00, 0.00, -0.00, -1.00, 303.9, 386.8)">r</text><text xml:space="preserve" font-family="Palatino-Roman,Palatino" font-size="36.0" fill="#404040" transform="matrix(1.00, 0.00, -0.00, -1.00, 318.2, 386.8)">a</text><text xml:space="preserve" font-family="Palatino-Roman,Palatino" font-size="36.0" fill="#404040" transform="matrix(1.00, 0.00, -0.00, -1.00, 336.2, 386.8)">c</text><text xml:space="preserve" font-family="Palatino-Roman,Palatino" font-size="36.0" fill="#404040" transform="matrix(1.00, 0.00, -0.00, -1.00, 352.1, 386.8)">t</text><text xml:space="preserve" font-family="Palatino-Roman,Palatino" font-size="36.0" fill="#404040" transform="matrix(1.00, 0.00, -0.00, -1.00, 363.9, 386.8)"> </text><text xml:space="preserve" font-family="Palatino-Roman,Palatino" font-size="36.0" fill="#404040" transform="matrix(1.00, 0.00, -0.00, -1.00, 372.9, 386.8)">w</text><text xml:space="preserve" font-family="Palatino-Roman,Palatino" font-size="36.0" fill="#404040" transform="matrix(1.00, 0.00, -0.00, -1.00, 402.9, 386.8)">i</text><text xml:space="preserve" font-family="Palatino-Roman,Palatino" font-size="36.0" fill="#404040" transform="matrix(1.00, 0.00, -0.00, -1.00, 413.4, 386.8)">t</text><text xml:space="preserve" font-family="Palatino-Roman,Palatino" font-size="36.0" fill="#404040" transform="matrix(1.00, 0.00, -0.00, -1.00, 425.1, 386.8)">h</text><text xml:space="preserve" font-family="Palatino-Roman,Palatino" font-size="36.0" fill="#404040" transform="matrix(1.00, 0.00, -0.00, -1.00, 446.1, 386.8)"> </text><text xml:space="preserve" font-family="Palatino-Roman,Palatino" font-size="36.0" fill="#404040" transform="matrix(1.00, 0.00, -0.00, -1.00, 455.1, 386.8)">t</text><text xml:space="preserve" font-family="Palatino-Roman,Palatino" font-size="36.0" fill="#404040" transform="matrix(1.00, 0.00, -0.00, -1.00, 466.8, 386.8)">h</text><text xml:space="preserve" font-family="Palatino-Roman,Palatino" font-size="36.0" fill="#404040" transform="matrix(1.00, 0.00, -0.00, -1.00, 487.8, 386.8)">e</text><text xml:space="preserve" font-family="Palatino-Roman,Palatino" font-size="36.0" fill="#404040" transform="matrix(1.00, 0.00, -0.00, -1.00, 505.0, 386.8)"> </text><text xml:space="preserve" font-family="Palatino-Roman,Palatino" font-size="36.0" fill="#404040" transform="matrix(1.00, 0.00, -0.00, -1.00, 514.0, 386.8)">c</text><text xml:space="preserve" font-family="Palatino-Roman,Palatino" font-size="36.0" fill="#404040" transform="matrix(1.00, 0.00, -0.00, -1.00, 530.0, 386.8)">o</text><text xml:space="preserve" font-family="Palatino-Roman,Palatino" font-size="36.0" fill="#404040" transform="matrix(1.00, 0.00, -0.00, -1.00, 549.7, 386.8)">n</text><text xml:space="preserve" font-family="Palatino-Roman,Palatino" font-size="36.0" fill="#404040" transform="matrix(1.00, 0.00, -0.00, -1.00, 570.6, 386.8)">t</text><text xml:space="preserve" font-family="Palatino-Roman,Palatino" font-size="36.0" fill="#404040" transform="matrix(1.00, 0.00, -0.00, -1.00, 582.4, 386.8)">a</text><text xml:space="preserve" font-family="Palatino-Roman,Palatino" font-size="36.0" fill="#404040" transform="matrix(1.00, 0.00, -0.00, -1.00, 600.4, 386.8)">i</text><text xml:space="preserve" font-family="Palatino-Roman,Palatino" font-size="36.0" fill="#404040" transform="matrix(1.00, 0.00, -0.00, -1.00, 610.8, 386.8)">n</text><text xml:space="preserve" font-family="Palatino-Roman,Palatino" font-size="36.0" fill="#404040" transform="matrix(1.00, 0.00, -0.00, -1.00, 631.8, 386.8)">e</text><text xml:space="preserve" font-family="Palatino-Roman,Palatino" font-size="36.0" fill="#404040" transform="matrix(1.00, 0.00, -0.00, -1.00, 649.0, 386.8)">r</text><text xml:space="preserve" font-family="Palatino-Roman,Palatino" font-size="36.0" fill="#404040" transform="matrix(1.00, 0.00, -0.00, -1.00, 660.6, 386.8)">.</text><text xml:space="preserve" font-family="ZapfDingbatsITC,Zapf Dingbats" font-size="21.6" fill="#919191" transform="matrix(1.00, 0.00, -0.00, -1.00, 90.6, 320.6)">❖</text><text xml:space="preserve" font-family="Palatino-Roman,Palatino" font-size="36.0" fill="#404040" transform="matrix(1.00, 0.00, -0.00, -1.00, 127.6, 314.8)">-</text><text xml:space="preserve" font-family="Palatino-Roman,Palatino" font-size="36.0" fill="#404040" transform="matrix(1.00, 0.00, -0.00, -1.00, 139.6, 314.8)">i</text><text xml:space="preserve" font-family="Palatino-Roman,Palatino" font-size="36.0" fill="#404040" transform="matrix(1.00, 0.00, -0.00, -1.00, 150.1, 314.8)"> </text><text xml:space="preserve" font-family="Palatino-Roman,Palatino" font-size="36.0" fill="#404040" transform="matrix(1.00, 0.00, -0.00, -1.00, 159.1, 314.8)">i</text><text xml:space="preserve" font-family="Palatino-Roman,Palatino" font-size="36.0" fill="#404040" transform="matrix(1.00, 0.00, -0.00, -1.00, 169.6, 314.8)">s</text><text xml:space="preserve" font-family="Palatino-Roman,Palatino" font-size="36.0" fill="#404040" transform="matrix(1.00, 0.00, -0.00, -1.00, 184.8, 314.8)"> </text><text xml:space="preserve" font-family="Palatino-Roman,Palatino" font-size="36.0" fill="#404040" transform="matrix(1.00, 0.00, -0.00, -1.00, 193.8, 314.8)">t</text><text xml:space="preserve" font-family="Palatino-Roman,Palatino" font-size="36.0" fill="#404040" transform="matrix(1.00, 0.00, -0.00, -1.00, 205.6, 314.8)">h</text><text xml:space="preserve" font-family="Palatino-Roman,Palatino" font-size="36.0" fill="#404040" transform="matrix(1.00, 0.00, -0.00, -1.00, 226.5, 314.8)">e</text><text xml:space="preserve" font-family="Palatino-Roman,Palatino" font-size="36.0" fill="#404040" transform="matrix(1.00, 0.00, -0.00, -1.00, 243.8, 314.8)"> </text><text xml:space="preserve" font-family="Palatino-Roman,Palatino" font-size="36.0" fill="#404040" transform="matrix(1.00, 0.00, -0.00, -1.00, 252.8, 314.8)">i</text><text xml:space="preserve" font-family="Palatino-Roman,Palatino" font-size="36.0" fill="#404040" transform="matrix(1.00, 0.00, -0.00, -1.00, 263.2, 314.8)">n</text><text xml:space="preserve" font-family="Palatino-Roman,Palatino" font-size="36.0" fill="#404040" transform="matrix(1.00, 0.00, -0.00, -1.00, 284.2, 314.8)">t</text><text xml:space="preserve" font-family="Palatino-Roman,Palatino" font-size="36.0" fill="#404040" transform="matrix(1.00, 0.00, -0.00, -1.00, 295.9, 314.8)">e</text><text xml:space="preserve" font-family="Palatino-Roman,Palatino" font-size="36.0" fill="#404040" transform="matrix(1.00, 0.00, -0.00, -1.00, 313.2, 314.8)">r</text><text xml:space="preserve" font-family="Palatino-Roman,Palatino" font-size="36.0" fill="#404040" transform="matrix(1.00, 0.00, -0.00, -1.00, 327.4, 314.8)">a</text><text xml:space="preserve" font-family="Palatino-Roman,Palatino" font-size="36.0" fill="#404040" transform="matrix(1.00, 0.00, -0.00, -1.00, 345.4, 314.8)">c</text><text xml:space="preserve" font-family="Palatino-Roman,Palatino" font-size="36.0" fill="#404040" transform="matrix(1.00, 0.00, -0.00, -1.00, 361.4, 314.8)">t</text><text xml:space="preserve" font-family="Palatino-Roman,Palatino" font-size="36.0" fill="#404040" transform="matrix(1.00, 0.00, -0.00, -1.00, 373.1, 314.8)">i</text><text xml:space="preserve" font-family="Palatino-Roman,Palatino" font-size="36.0" fill="#404040" transform="matrix(1.00, 0.00, -0.00, -1.00, 383.6, 314.8)">v</text><text xml:space="preserve" font-family="Palatino-Roman,Palatino" font-size="36.0" fill="#404040" transform="matrix(1.00, 0.00, -0.00, -1.00, 403.9, 314.8)">e</text><text xml:space="preserve" font-family="Palatino-Roman,Palatino" font-size="36.0" fill="#404040" transform="matrix(1.00, 0.00, -0.00, -1.00, 421.2, 314.8)"> </text><text xml:space="preserve" font-family="Palatino-Roman,Palatino" font-size="36.0" fill="#404040" transform="matrix(1.00, 0.00, -0.00, -1.00, 430.2, 314.8)">ﬂ</text><text xml:space="preserve" font-family="Palatino-Roman,Palatino" font-size="36.0" fill="#404040" transform="matrix(1.00, 0.00, -0.00, -1.00, 452.1, 314.8)">a</text><text xml:space="preserve" font-family="Palatino-Roman,Palatino" font-size="36.0" fill="#404040" transform="matrix(1.00, 0.00, -0.00, -1.00, 470.1, 314.8)">g</text><text xml:space="preserve" font-family="Palatino-Roman,Palatino" font-size="36.0" fill="#404040" transform="matrix(1.00, 0.00, -0.00, -1.00, 490.1, 314.8)">.</text><text xml:space="preserve" font-family="ZapfDingbatsITC,Zapf Dingbats" font-size="21.6" fill="#919191" transform="matrix(1.00, 0.00, -0.00, -1.00, 90.6, 248.6)">❖</text><text xml:space="preserve" font-family="Palatino-Roman,Palatino" font-size="36.0" fill="#404040" transform="matrix(1.00, 0.00, -0.00, -1.00, 127.6, 242.8)">-</text><text xml:space="preserve" font-family="Palatino-Roman,Palatino" font-size="36.0" fill="#404040" transform="matrix(1.00, 0.00, -0.00, -1.00, 139.6, 242.8)">t</text><text xml:space="preserve" font-family="Palatino-Roman,Palatino" font-size="36.0" fill="#404040" transform="matrix(1.00, 0.00, -0.00, -1.00, 151.4, 242.8)"> </text><text xml:space="preserve" font-family="Palatino-Roman,Palatino" font-size="36.0" fill="#404040" transform="matrix(1.00, 0.00, -0.00, -1.00, 160.4, 242.8)">a</text><text xml:space="preserve" font-family="Palatino-Roman,Palatino" font-size="36.0" fill="#404040" transform="matrix(1.00, 0.00, -0.00, -1.00, 178.4, 242.8)">l</text><text xml:space="preserve" font-family="Palatino-Roman,Palatino" font-size="36.0" fill="#404040" transform="matrix(1.00, 0.00, -0.00, -1.00, 188.8, 242.8)">l</text><text xml:space="preserve" font-family="Palatino-Roman,Palatino" font-size="36.0" fill="#404040" transform="matrix(1.00, 0.00, -0.00, -1.00, 199.3, 242.8)">o</text><text xml:space="preserve" font-family="Palatino-Roman,Palatino" font-size="36.0" fill="#404040" transform="matrix(1.00, 0.00, -0.00, -1.00, 219.0, 242.8)">c</text><text xml:space="preserve" font-family="Palatino-Roman,Palatino" font-size="36.0" fill="#404040" transform="matrix(1.00, 0.00, -0.00, -1.00, 234.9, 242.8)">a</text><text xml:space="preserve" font-family="Palatino-Roman,Palatino" font-size="36.0" fill="#404040" transform="matrix(1.00, 0.00, -0.00, -1.00, 252.9, 242.8)">t</text><text xml:space="preserve" font-family="Palatino-Roman,Palatino" font-size="36.0" fill="#404040" transform="matrix(1.00, 0.00, -0.00, -1.00, 264.7, 242.8)">e</text><text xml:space="preserve" font-family="Palatino-Roman,Palatino" font-size="36.0" fill="#404040" transform="matrix(1.00, 0.00, -0.00, -1.00, 281.9, 242.8)">s</text><text xml:space="preserve" font-family="Palatino-Roman,Palatino" font-size="36.0" fill="#404040" transform="matrix(1.00, 0.00, -0.00, -1.00, 297.2, 242.8)"> </text><text xml:space="preserve" font-family="Palatino-Roman,Palatino" font-size="36.0" fill="#404040" transform="matrix(1.00, 0.00, -0.00, -1.00, 306.2, 242.8)">a</text><text xml:space="preserve" font-family="Palatino-Roman,Palatino" font-size="36.0" fill="#404040" transform="matrix(1.00, 0.00, -0.00, -1.00, 324.2, 242.8)"> </text><text xml:space="preserve" font-family="Palatino-Roman,Palatino" font-size="36.0" fill="#404040" transform="matrix(1.00, 0.00, -0.00, -1.00, 333.2, 242.8)">p</text><text xml:space="preserve" font-family="Palatino-Roman,Palatino" font-size="36.0" fill="#404040" transform="matrix(1.00, 0.00, -0.00, -1.00, 354.8, 242.8)">s</text><text xml:space="preserve" font-family="Palatino-Roman,Palatino" font-size="36.0" fill="#404040" transform="matrix(1.00, 0.00, -0.00, -1.00, 370.1, 242.8)">e</text><text xml:space="preserve" font-family="Palatino-Roman,Palatino" font-size="36.0" fill="#404040" transform="matrix(1.00, 0.00, -0.00, -1.00, 387.3, 242.8)">u</text><text xml:space="preserve" font-family="Palatino-Roman,Palatino" font-size="36.0" fill="#404040" transform="matrix(1.00, 0.00, -0.00, -1.00, 409.0, 242.8)">d</text><text xml:space="preserve" font-family="Palatino-Roman,Palatino" font-size="36.0" fill="#404040" transform="matrix(1.00, 0.00, -0.00, -1.00, 431.0, 242.8)">o</text><text xml:space="preserve" font-family="Palatino-Roman,Palatino" font-size="36.0" fill="#404040" transform="matrix(1.00, 0.00, -0.00, -1.00, 450.7, 242.8)">-</text><text xml:space="preserve" font-family="Palatino-Roman,Palatino" font-size="36.0" fill="#404040" transform="matrix(1.00, 0.00, -0.00, -1.00, 462.6, 242.8)">T</text><text xml:space="preserve" font-family="Palatino-Roman,Palatino" font-size="36.0" fill="#404040" transform="matrix(1.00, 0.00, -0.00, -1.00, 484.7, 242.8)">T</text><text xml:space="preserve" font-family="Palatino-Roman,Palatino" font-size="36.0" fill="#404040" transform="matrix(1.00, 0.00, -0.00, -1.00, 506.8, 242.8)">Y</text><text xml:space="preserve" font-family="ZapfDingbatsITC,Zapf Dingbats" font-size="21.6" fill="#919191" transform="matrix(1.00, 0.00, -0.00, -1.00, 53.6, 176.6)">❖</text><text xml:space="preserve" font-family="Palatino-Roman,Palatino" font-size="36.0" fill="#404040" transform="matrix(1.00, 0.00, -0.00, -1.00, 90.6, 170.8)">O</text><text xml:space="preserve" font-family="Palatino-Roman,Palatino" font-size="36.0" fill="#404040" transform="matrix(1.00, 0.00, -0.00, -1.00, 118.9, 170.8)">v</text><text xml:space="preserve" font-family="Palatino-Roman,Palatino" font-size="36.0" fill="#404040" transform="matrix(1.00, 0.00, -0.00, -1.00, 139.3, 170.8)">e</text><text xml:space="preserve" font-family="Palatino-Roman,Palatino" font-size="36.0" fill="#404040" transform="matrix(1.00, 0.00, -0.00, -1.00, 156.5, 170.8)">r</text><text xml:space="preserve" font-family="Palatino-Roman,Palatino" font-size="36.0" fill="#404040" transform="matrix(1.00, 0.00, -0.00, -1.00, 170.7, 170.8)">r</text><text xml:space="preserve" font-family="Palatino-Roman,Palatino" font-size="36.0" fill="#404040" transform="matrix(1.00, 0.00, -0.00, -1.00, 185.0, 170.8)">i</text><text xml:space="preserve" font-family="Palatino-Roman,Palatino" font-size="36.0" fill="#404040" transform="matrix(1.00, 0.00, -0.00, -1.00, 195.4, 170.8)">d</text><text xml:space="preserve" font-family="Palatino-Roman,Palatino" font-size="36.0" fill="#404040" transform="matrix(1.00, 0.00, -0.00, -1.00, 217.4, 170.8)">e</text><text xml:space="preserve" font-family="Palatino-Roman,Palatino" font-size="36.0" fill="#404040" transform="matrix(1.00, 0.00, -0.00, -1.00, 234.7, 170.8)"> </text><text xml:space="preserve" font-family="Palatino-Roman,Palatino" font-size="36.0" fill="#404040" transform="matrix(1.00, 0.00, -0.00, -1.00, 243.7, 170.8)">t</text><text xml:space="preserve" font-family="Palatino-Roman,Palatino" font-size="36.0" fill="#404040" transform="matrix(1.00, 0.00, -0.00, -1.00, 255.4, 170.8)">h</text><text xml:space="preserve" font-family="Palatino-Roman,Palatino" font-size="36.0" fill="#404040" transform="matrix(1.00, 0.00, -0.00, -1.00, 276.4, 170.8)">e</text><text xml:space="preserve" font-family="Palatino-Roman,Palatino" font-size="36.0" fill="#404040" transform="matrix(1.00, 0.00, -0.00, -1.00, 293.6, 170.8)"> </text><text xml:space="preserve" font-family="Palatino-Roman,Palatino" font-size="36.0" fill="#404040" transform="matrix(1.00, 0.00, -0.00, -1.00, 302.6, 170.8)">C</text><text xml:space="preserve" font-family="Palatino-Roman,Palatino" font-size="36.0" fill="#404040" transform="matrix(1.00, 0.00, -0.00, -1.00, 328.1, 170.8)">M</text><text xml:space="preserve" font-family="Palatino-Roman,Palatino" font-size="36.0" fill="#404040" transform="matrix(1.00, 0.00, -0.00, -1.00, 362.2, 170.8)">D</text><text xml:space="preserve" font-family="Palatino-Roman,Palatino" font-size="36.0" fill="#404040" transform="matrix(1.00, 0.00, -0.00, -1.00, 390.0, 170.8)"> </text><text xml:space="preserve" font-family="Palatino-Roman,Palatino" font-size="36.0" fill="#404040" transform="matrix(1.00, 0.00, -0.00, -1.00, 399.0, 170.8)">w</text><text xml:space="preserve" font-family="Palatino-Roman,Palatino" font-size="36.0" fill="#404040" transform="matrix(1.00, 0.00, -0.00, -1.00, 429.0, 170.8)">e</text><text xml:space="preserve" font-family="Palatino-Roman,Palatino" font-size="36.0" fill="#404040" transform="matrix(1.00, 0.00, -0.00, -1.00, 446.3, 170.8)"> </text><text xml:space="preserve" font-family="Palatino-Roman,Palatino" font-size="36.0" fill="#404040" transform="matrix(1.00, 0.00, -0.00, -1.00, 455.3, 170.8)">p</text><text xml:space="preserve" font-family="Palatino-Roman,Palatino" font-size="36.0" fill="#404040" transform="matrix(1.00, 0.00, -0.00, -1.00, 476.9, 170.8)">r</text><text xml:space="preserve" font-family="Palatino-Roman,Palatino" font-size="36.0" fill="#404040" transform="matrix(1.00, 0.00, -0.00, -1.00, 490.5, 170.8)">o</text><text xml:space="preserve" font-family="Palatino-Roman,Palatino" font-size="36.0" fill="#404040" transform="matrix(1.00, 0.00, -0.00, -1.00, 510.2, 170.8)">v</text><text xml:space="preserve" font-family="Palatino-Roman,Palatino" font-size="36.0" fill="#404040" transform="matrix(1.00, 0.00, -0.00, -1.00, 530.5, 170.8)">i</text><text xml:space="preserve" font-family="Palatino-Roman,Palatino" font-size="36.0" fill="#404040" transform="matrix(1.00, 0.00, -0.00, -1.00, 541.0, 170.8)">d</text><text xml:space="preserve" font-family="Palatino-Roman,Palatino" font-size="36.0" fill="#404040" transform="matrix(1.00, 0.00, -0.00, -1.00, 563.0, 170.8)">e</text><text xml:space="preserve" font-family="Palatino-Roman,Palatino" font-size="36.0" fill="#404040" transform="matrix(1.00, 0.00, -0.00, -1.00, 580.2, 170.8)">d</text><text xml:space="preserve" font-family="Palatino-Roman,Palatino" font-size="36.0" fill="#404040" transform="matrix(1.00, 0.00, -0.00, -1.00, 602.2, 170.8)"> </text><text xml:space="preserve" font-family="Palatino-Roman,Palatino" font-size="36.0" fill="#404040" transform="matrix(1.00, 0.00, -0.00, -1.00, 611.2, 170.8)">i</text><text xml:space="preserve" font-family="Palatino-Roman,Palatino" font-size="36.0" fill="#404040" transform="matrix(1.00, 0.00, -0.00, -1.00, 621.7, 170.8)">n</text><text xml:space="preserve" font-family="Palatino-Roman,Palatino" font-size="36.0" fill="#404040" transform="matrix(1.00, 0.00, -0.00, -1.00, 642.6, 170.8)"> </text><text xml:space="preserve" font-family="Palatino-Roman,Palatino" font-size="36.0" fill="#404040" transform="matrix(1.00, 0.00, -0.00, -1.00, 651.6, 170.8)">t</text><text xml:space="preserve" font-family="Palatino-Roman,Palatino" font-size="36.0" fill="#404040" transform="matrix(1.00, 0.00, -0.00, -1.00, 663.4, 170.8)">h</text><text xml:space="preserve" font-family="Palatino-Roman,Palatino" font-size="36.0" fill="#404040" transform="matrix(1.00, 0.00, -0.00, -1.00, 684.3, 170.8)">e</text><text xml:space="preserve" font-family="Palatino-Roman,Palatino" font-size="36.0" fill="#404040" transform="matrix(1.00, 0.00, -0.00, -1.00, 701.6, 170.8)"> </text><text xml:space="preserve" font-family="Palatino-Roman,Palatino" font-size="36.0" fill="#404040" transform="matrix(1.00, 0.00, -0.00, -1.00, 710.6, 170.8)">D</text><text xml:space="preserve" font-family="Palatino-Roman,Palatino" font-size="36.0" fill="#404040" transform="matrix(1.00, 0.00, -0.00, -1.00, 738.4, 170.8)">o</text><text xml:space="preserve" font-family="Palatino-Roman,Palatino" font-size="36.0" fill="#404040" transform="matrix(1.00, 0.00, -0.00, -1.00, 758.1, 170.8)">c</text><text xml:space="preserve" font-family="Palatino-Roman,Palatino" font-size="36.0" fill="#404040" transform="matrix(1.00, 0.00, -0.00, -1.00, 774.0, 170.8)">k</text><text xml:space="preserve" font-family="Palatino-Roman,Palatino" font-size="36.0" fill="#404040" transform="matrix(1.00, 0.00, -0.00, -1.00, 794.1, 170.8)">e</text><text xml:space="preserve" font-family="Palatino-Roman,Palatino" font-size="36.0" fill="#404040" transform="matrix(1.00, 0.00, -0.00, -1.00, 811.3, 170.8)">r</text><text xml:space="preserve" font-family="Palatino-Roman,Palatino" font-size="36.0" fill="#404040" transform="matrix(1.00, 0.00, -0.00, -1.00, 825.5, 170.8)">ﬁ</text><text xml:space="preserve" font-family="Palatino-Roman,Palatino" font-size="36.0" fill="#404040" transform="matrix(1.00, 0.00, -0.00, -1.00, 847.3, 170.8)">l</text><text xml:space="preserve" font-family="Palatino-Roman,Palatino" font-size="36.0" fill="#404040" transform="matrix(1.00, 0.00, -0.00, -1.00, 857.8, 170.8)">e</text><text xml:space="preserve" font-family="Palatino-Roman,Palatino" font-size="36.0" fill="#404040" transform="matrix(1.00, 0.00, -0.00, -1.00, 875.0, 170.8)">.</text><text xml:space="preserve" font-family="ZapfDingbatsITC,Zapf Dingbats" font-size="21.6" fill="#919191" transform="matrix(1.00, 0.00, -0.00, -1.00, 53.6, 104.6)">❖</text><text xml:space="preserve" font-family="Palatino-Roman,Palatino" font-size="36.0" fill="#404040" transform="matrix(1.00, 0.00, -0.00, -1.00, 90.6, 98.8)">E</text><text xml:space="preserve" font-family="Palatino-Roman,Palatino" font-size="36.0" fill="#404040" transform="matrix(1.00, 0.00, -0.00, -1.00, 112.6, 98.8)">x</text><text xml:space="preserve" font-family="Palatino-Roman,Palatino" font-size="36.0" fill="#404040" transform="matrix(1.00, 0.00, -0.00, -1.00, 131.2, 98.8)">i</text><text xml:space="preserve" font-family="Palatino-Roman,Palatino" font-size="36.0" fill="#404040" transform="matrix(1.00, 0.00, -0.00, -1.00, 141.7, 98.8)">t</text><text xml:space="preserve" font-family="Palatino-Roman,Palatino" font-size="36.0" fill="#404040" transform="matrix(1.00, 0.00, -0.00, -1.00, 153.4, 98.8)">i</text><text xml:space="preserve" font-family="Palatino-Roman,Palatino" font-size="36.0" fill="#404040" transform="matrix(1.00, 0.00, -0.00, -1.00, 163.9, 98.8)">n</text><text xml:space="preserve" font-family="Palatino-Roman,Palatino" font-size="36.0" fill="#404040" transform="matrix(1.00, 0.00, -0.00, -1.00, 184.9, 98.8)">g</text><text xml:space="preserve" font-family="Palatino-Roman,Palatino" font-size="36.0" fill="#404040" transform="matrix(1.00, 0.00, -0.00, -1.00, 204.9, 98.8)"> </text><text xml:space="preserve" font-family="Palatino-Roman,Palatino" font-size="36.0" fill="#404040" transform="matrix(1.00, 0.00, -0.00, -1.00, 213.9, 98.8)">b</text><text xml:space="preserve" font-family="Palatino-Roman,Palatino" font-size="36.0" fill="#404040" transform="matrix(1.00, 0.00, -0.00, -1.00, 233.8, 98.8)">a</text><text xml:space="preserve" font-family="Palatino-Roman,Palatino" font-size="36.0" fill="#404040" transform="matrix(1.00, 0.00, -0.00, -1.00, 251.8, 98.8)">s</text><text xml:space="preserve" font-family="Palatino-Roman,Palatino" font-size="36.0" fill="#404040" transform="matrix(1.00, 0.00, -0.00, -1.00, 267.1, 98.8)">h</text><text xml:space="preserve" font-family="Palatino-Roman,Palatino" font-size="36.0" fill="#404040" transform="matrix(1.00, 0.00, -0.00, -1.00, 288.0, 98.8)"> </text><text xml:space="preserve" font-family="Palatino-Roman,Palatino" font-size="36.0" fill="#404040" transform="matrix(1.00, 0.00, -0.00, -1.00, 297.0, 98.8)">s</text><text xml:space="preserve" font-family="Palatino-Roman,Palatino" font-size="36.0" fill="#404040" transform="matrix(1.00, 0.00, -0.00, -1.00, 312.3, 98.8)">t</text><text xml:space="preserve" font-family="Palatino-Roman,Palatino" font-size="36.0" fill="#404040" transform="matrix(1.00, 0.00, -0.00, -1.00, 324.0, 98.8)">o</text><text xml:space="preserve" font-family="Palatino-Roman,Palatino" font-size="36.0" fill="#404040" transform="matrix(1.00, 0.00, -0.00, -1.00, 343.7, 98.8)">p</text><text xml:space="preserve" font-family="Palatino-Roman,Palatino" font-size="36.0" fill="#404040" transform="matrix(1.00, 0.00, -0.00, -1.00, 365.3, 98.8)">s</text><text xml:space="preserve" font-family="Palatino-Roman,Palatino" font-size="36.0" fill="#404040" transform="matrix(1.00, 0.00, -0.00, -1.00, 380.5, 98.8)"> </text><text xml:space="preserve" font-family="Palatino-Roman,Palatino" font-size="36.0" fill="#404040" transform="matrix(1.00, 0.00, -0.00, -1.00, 389.5, 98.8)">t</text><text xml:space="preserve" font-family="Palatino-Roman,Palatino" font-size="36.0" fill="#404040" transform="matrix(1.00, 0.00, -0.00, -1.00, 401.3, 98.8)">h</text><text xml:space="preserve" font-family="Palatino-Roman,Palatino" font-size="36.0" fill="#404040" transform="matrix(1.00, 0.00, -0.00, -1.00, 422.3, 98.8)">e</text><text xml:space="preserve" font-family="Palatino-Roman,Palatino" font-size="36.0" fill="#404040" transform="matrix(1.00, 0.00, -0.00, -1.00, 439.5, 98.8)"> </text><text xml:space="preserve" font-family="Palatino-Roman,Palatino" font-size="36.0" fill="#404040" transform="matrix(1.00, 0.00, -0.00, -1.00, 448.5, 98.8)">c</text><text xml:space="preserve" font-family="Palatino-Roman,Palatino" font-size="36.0" fill="#404040" transform="matrix(1.00, 0.00, -0.00, -1.00, 464.5, 98.8)">o</text><text xml:space="preserve" font-family="Palatino-Roman,Palatino" font-size="36.0" fill="#404040" transform="matrix(1.00, 0.00, -0.00, -1.00, 484.1, 98.8)">n</text><text xml:space="preserve" font-family="Palatino-Roman,Palatino" font-size="36.0" fill="#404040" transform="matrix(1.00, 0.00, -0.00, -1.00, 505.1, 98.8)">t</text><text xml:space="preserve" font-family="Palatino-Roman,Palatino" font-size="36.0" fill="#404040" transform="matrix(1.00, 0.00, -0.00, -1.00, 516.8, 98.8)">a</text><text xml:space="preserve" font-family="Palatino-Roman,Palatino" font-size="36.0" fill="#404040" transform="matrix(1.00, 0.00, -0.00, -1.00, 534.8, 98.8)">i</text><text xml:space="preserve" font-family="Palatino-Roman,Palatino" font-size="36.0" fill="#404040" transform="matrix(1.00, 0.00, -0.00, -1.00, 545.3, 98.8)">n</text><text xml:space="preserve" font-family="Palatino-Roman,Palatino" font-size="36.0" fill="#404040" transform="matrix(1.00, 0.00, -0.00, -1.00, 566.2, 98.8)">e</text><text xml:space="preserve" font-family="Palatino-Roman,Palatino" font-size="36.0" fill="#404040" transform="matrix(1.00, 0.00, -0.00, -1.00, 583.5, 98.8)">r</text><text xml:space="preserve" font-family="Palatino-Roman,Palatino" font-size="36.0" fill="#404040" transform="matrix(1.00, 0.00, -0.00, -1.00, 595.1, 98.8)">.</text></g></svg>