<?xml version="1.0" encoding="UTF-8" standalone="no"?><svg xmlns="http://www.w3.org/2000/svg" xmlns:xlink="http://www.w3.org/1999/xlink" clip-rule="evenodd" stroke-miterlimit="10" viewBox="0 0 1024 768"><desc>SVG generated by Keynote</desc><defs><pattern id="4E487AD3-713A-4FE5-88B3-DE11214CB075" patternUnits="userSpaceOnUse" width="580" height="580" viewBox="0 0 580 580"><image xlink:href="../../76B6F3B3-FE62-45A3-BC10-8C0E82E2DC18/assets/8727E46A978D0F4CEC9239881F818550.png" width="580.00" height="580.00"></image></pattern></defs><g transform="matrix(1.00, 0.00, -0.00, -1.00, 0.0, 768.0)"><g><clipPath id="clip0x6000012a9b40"><path d="M 0.0 768.0 L 1024.0 768.0 L 1024.0 0.0 L 0.0 0.0 Z M 0.0 768.0 "></path></clipPath><g clip-path="url(#clip0x6000012a9b40)"><image xlink:href="../../524A64CF-8346-4612-AEB3-13D03E94EA2C/assets/8A97F831B44C6305266B84CB83B0E791.jpeg" width="2048.00" height="1536.00" transform="matrix(0.50, 0.00, -0.00, -0.50, 0.0, 768.0)"></image></g></g><g><clipPath id="clip0x608000ca1f80"><path d="M 0.0 768.0 L 1024.0 768.0 L 1024.0 0.0 L 0.0 0.0 Z M 0.0 768.0 "></path></clipPath><g clip-path="url(#clip0x608000ca1f80)"><image xlink:href="../../862BF2E1-3FBB-4826-BBA5-227F6BEDC31C/assets/B91BC6A0D9132C254BD5012086C6F40B.png" width="880.00" height="684.00" transform="matrix(1.12, 0.00, -0.00, -1.12, 18.0, 768.0)"></image></g></g><g><clipPath id="clip0x610000eb26c0"><path d="M 479.0 709.0 L 915.0 709.0 L 915.0 591.0 L 479.0 591.0 Z M 478.9 708.9 "></path></clipPath><g clip-path="url(#clip0x610000eb26c0)"><path d="M 479.0 591.0 L 915.0 591.0 L 915.0 709.0 L 479.0 709.0 Z M 479.0 591.0 " fill="url(#4E487AD3-713A-4FE5-88B3-DE11214CB075)"></path></g></g><path d="M 0.0 0.0 L 424.7 0.0 L 427.7 0.0 " fill="none" stroke="#E0E0E0" stroke-width="6.00" transform="matrix(-0.84, -0.54, -0.54, 0.84, 479.8, 649.6)"></path><path d="M 116.5 429.3 L 102.8 406.2 L 129.5 409.1 Z M 116.5 429.3 " fill="#E0E0E0"></path><text xml:space="preserve" font-family="Palatino-Roman,Palatino" font-size="24.0" fill="#E5EDEA" transform="matrix(1.00, 0.00, -0.00, -1.00, 535.0, 672.4)">C</text><text xml:space="preserve" font-family="Palatino-Roman,Palatino" font-size="24.0" fill="#E5EDEA" transform="matrix(1.00, 0.00, -0.00, -1.00, 552.0, 672.4)">O</text><text xml:space="preserve" font-family="Palatino-Roman,Palatino" font-size="24.0" fill="#E5EDEA" transform="matrix(1.00, 0.00, -0.00, -1.00, 570.9, 672.4)">P</text><text xml:space="preserve" font-family="Palatino-Roman,Palatino" font-size="24.0" fill="#E5EDEA" transform="matrix(1.00, 0.00, -0.00, -1.00, 585.4, 672.4)">Y</text><text xml:space="preserve" font-family="Palatino-Roman,Palatino" font-size="24.0" fill="#E5EDEA" transform="matrix(1.00, 0.00, -0.00, -1.00, 601.0, 672.4)"> </text><text xml:space="preserve" font-family="Palatino-Roman,Palatino" font-size="24.0" fill="#E5EDEA" transform="matrix(1.00, 0.00, -0.00, -1.00, 607.0, 672.4)">a</text><text xml:space="preserve" font-family="Palatino-Roman,Palatino" font-size="24.0" fill="#E5EDEA" transform="matrix(1.00, 0.00, -0.00, -1.00, 619.0, 672.4)">l</text><text xml:space="preserve" font-family="Palatino-Roman,Palatino" font-size="24.0" fill="#E5EDEA" transform="matrix(1.00, 0.00, -0.00, -1.00, 626.0, 672.4)">s</text><text xml:space="preserve" font-family="Palatino-Roman,Palatino" font-size="24.0" fill="#E5EDEA" transform="matrix(1.00, 0.00, -0.00, -1.00, 636.1, 672.4)">o</text><text xml:space="preserve" font-family="Palatino-Roman,Palatino" font-size="24.0" fill="#E5EDEA" transform="matrix(1.00, 0.00, -0.00, -1.00, 649.2, 672.4)"> </text><text xml:space="preserve" font-family="Palatino-Roman,Palatino" font-size="24.0" fill="#E5EDEA" transform="matrix(1.00, 0.00, -0.00, -1.00, 655.2, 672.4)">c</text><text xml:space="preserve" font-family="Palatino-Roman,Palatino" font-size="24.0" fill="#E5EDEA" transform="matrix(1.00, 0.00, -0.00, -1.00, 665.9, 672.4)">o</text><text xml:space="preserve" font-family="Palatino-Roman,Palatino" font-size="24.0" fill="#E5EDEA" transform="matrix(1.00, 0.00, -0.00, -1.00, 679.0, 672.4)">p</text><text xml:space="preserve" font-family="Palatino-Roman,Palatino" font-size="24.0" fill="#E5EDEA" transform="matrix(1.00, 0.00, -0.00, -1.00, 693.4, 672.4)">i</text><text xml:space="preserve" font-family="Palatino-Roman,Palatino" font-size="24.0" fill="#E5EDEA" transform="matrix(1.00, 0.00, -0.00, -1.00, 700.4, 672.4)">e</text><text xml:space="preserve" font-family="Palatino-Roman,Palatino" font-size="24.0" fill="#E5EDEA" transform="matrix(1.00, 0.00, -0.00, -1.00, 711.9, 672.4)">s</text><text xml:space="preserve" font-family="Palatino-Roman,Palatino" font-size="24.0" fill="#E5EDEA" transform="matrix(1.00, 0.00, -0.00, -1.00, 722.1, 672.4)"> </text><text xml:space="preserve" font-family="Palatino-Roman,Palatino" font-size="24.0" fill="#E5EDEA" transform="matrix(1.00, 0.00, -0.00, -1.00, 728.1, 672.4)">ﬁ</text><text xml:space="preserve" font-family="Palatino-Roman,Palatino" font-size="24.0" fill="#E5EDEA" transform="matrix(1.00, 0.00, -0.00, -1.00, 742.6, 672.4)">l</text><text xml:space="preserve" font-family="Palatino-Roman,Palatino" font-size="24.0" fill="#E5EDEA" transform="matrix(1.00, 0.00, -0.00, -1.00, 749.6, 672.4)">e</text><text xml:space="preserve" font-family="Palatino-Roman,Palatino" font-size="24.0" fill="#E5EDEA" transform="matrix(1.00, 0.00, -0.00, -1.00, 761.1, 672.4)">s</text><text xml:space="preserve" font-family="Palatino-Roman,Palatino" font-size="24.0" fill="#E5EDEA" transform="matrix(1.00, 0.00, -0.00, -1.00, 771.2, 672.4)"> </text><text xml:space="preserve" font-family="Palatino-Roman,Palatino" font-size="24.0" fill="#E5EDEA" transform="matrix(1.00, 0.00, -0.00, -1.00, 777.2, 672.4)">i</text><text xml:space="preserve" font-family="Palatino-Roman,Palatino" font-size="24.0" fill="#E5EDEA" transform="matrix(1.00, 0.00, -0.00, -1.00, 784.2, 672.4)">n</text><text xml:space="preserve" font-family="Palatino-Roman,Palatino" font-size="24.0" fill="#E5EDEA" transform="matrix(1.00, 0.00, -0.00, -1.00, 798.2, 672.4)">t</text><text xml:space="preserve" font-family="Palatino-Roman,Palatino" font-size="24.0" fill="#E5EDEA" transform="matrix(1.00, 0.00, -0.00, -1.00, 806.0, 672.4)">o</text><text xml:space="preserve" font-family="Palatino-Roman,Palatino" font-size="24.0" fill="#E5EDEA" transform="matrix(1.00, 0.00, -0.00, -1.00, 819.1, 672.4)"> </text><text xml:space="preserve" font-family="Palatino-Roman,Palatino" font-size="24.0" fill="#E5EDEA" transform="matrix(1.00, 0.00, -0.00, -1.00, 825.1, 672.4)">t</text><text xml:space="preserve" font-family="Palatino-Roman,Palatino" font-size="24.0" fill="#E5EDEA" transform="matrix(1.00, 0.00, -0.00, -1.00, 833.0, 672.4)">h</text><text xml:space="preserve" font-family="Palatino-Roman,Palatino" font-size="24.0" fill="#E5EDEA" transform="matrix(1.00, 0.00, -0.00, -1.00, 846.9, 672.4)">e</text><text xml:space="preserve" font-family="Palatino-Roman,Palatino" font-size="24.0" fill="#E5EDEA" transform="matrix(1.00, 0.00, -0.00, -1.00, 858.4, 672.4)"> </text><text xml:space="preserve" font-family="Palatino-Roman,Palatino" font-size="24.0" fill="#E5EDEA" transform="matrix(1.00, 0.00, -0.00, -1.00, 504.4, 640.4)">i</text><text xml:space="preserve" font-family="Palatino-Roman,Palatino" font-size="24.0" fill="#E5EDEA" transform="matrix(1.00, 0.00, -0.00, -1.00, 511.4, 640.4)">m</text><text xml:space="preserve" font-family="Palatino-Roman,Palatino" font-size="24.0" fill="#E5EDEA" transform="matrix(1.00, 0.00, -0.00, -1.00, 532.6, 640.4)">a</text><text xml:space="preserve" font-family="Palatino-Roman,Palatino" font-size="24.0" fill="#E5EDEA" transform="matrix(1.00, 0.00, -0.00, -1.00, 544.6, 640.4)">g</text><text xml:space="preserve" font-family="Palatino-Roman,Palatino" font-size="24.0" fill="#E5EDEA" transform="matrix(1.00, 0.00, -0.00, -1.00, 557.9, 640.4)">e</text><text xml:space="preserve" font-family="Palatino-Roman,Palatino" font-size="24.0" fill="#E5EDEA" transform="matrix(1.00, 0.00, -0.00, -1.00, 569.4, 640.4)">s</text><text xml:space="preserve" font-family="Palatino-Roman,Palatino" font-size="24.0" fill="#E5EDEA" transform="matrix(1.00, 0.00, -0.00, -1.00, 579.6, 640.4)"> </text><text xml:space="preserve" font-family="Palatino-Roman,Palatino" font-size="24.0" fill="#E5EDEA" transform="matrix(1.00, 0.00, -0.00, -1.00, 585.6, 640.4)">b</text><text xml:space="preserve" font-family="Palatino-Roman,Palatino" font-size="24.0" fill="#E5EDEA" transform="matrix(1.00, 0.00, -0.00, -1.00, 598.9, 640.4)">u</text><text xml:space="preserve" font-family="Palatino-Roman,Palatino" font-size="24.0" fill="#E5EDEA" transform="matrix(1.00, 0.00, -0.00, -1.00, 613.3, 640.4)">t</text><text xml:space="preserve" font-family="Palatino-Roman,Palatino" font-size="24.0" fill="#E5EDEA" transform="matrix(1.00, 0.00, -0.00, -1.00, 621.2, 640.4)"> </text><text xml:space="preserve" font-family="Palatino-Roman,Palatino" font-size="24.0" fill="#E5EDEA" transform="matrix(1.00, 0.00, -0.00, -1.00, 627.2, 640.4)">d</text><text xml:space="preserve" font-family="Palatino-Roman,Palatino" font-size="24.0" fill="#E5EDEA" transform="matrix(1.00, 0.00, -0.00, -1.00, 641.8, 640.4)">o</text><text xml:space="preserve" font-family="Palatino-Roman,Palatino" font-size="24.0" fill="#E5EDEA" transform="matrix(1.00, 0.00, -0.00, -1.00, 654.9, 640.4)">e</text><text xml:space="preserve" font-family="Palatino-Roman,Palatino" font-size="24.0" fill="#E5EDEA" transform="matrix(1.00, 0.00, -0.00, -1.00, 666.4, 640.4)">s</text><text xml:space="preserve" font-family="Palatino-Roman,Palatino" font-size="24.0" fill="#E5EDEA" transform="matrix(1.00, 0.00, -0.00, -1.00, 676.6, 640.4)">n</text><text xml:space="preserve" font-family="Palatino-Roman,Palatino" font-size="24.0" fill="#E5EDEA" transform="matrix(1.00, 0.00, -0.00, -1.00, 690.5, 640.4)">’</text><text xml:space="preserve" font-family="Palatino-Roman,Palatino" font-size="24.0" fill="#E5EDEA" transform="matrix(1.00, 0.00, -0.00, -1.00, 697.2, 640.4)">t</text><text xml:space="preserve" font-family="Palatino-Roman,Palatino" font-size="24.0" fill="#E5EDEA" transform="matrix(1.00, 0.00, -0.00, -1.00, 705.0, 640.4)"> </text><text xml:space="preserve" font-family="Palatino-Roman,Palatino" font-size="24.0" fill="#E5EDEA" transform="matrix(1.00, 0.00, -0.00, -1.00, 711.0, 640.4)">s</text><text xml:space="preserve" font-family="Palatino-Roman,Palatino" font-size="24.0" fill="#E5EDEA" transform="matrix(1.00, 0.00, -0.00, -1.00, 721.2, 640.4)">u</text><text xml:space="preserve" font-family="Palatino-Roman,Palatino" font-size="24.0" fill="#E5EDEA" transform="matrix(1.00, 0.00, -0.00, -1.00, 735.7, 640.4)">p</text><text xml:space="preserve" font-family="Palatino-Roman,Palatino" font-size="24.0" fill="#E5EDEA" transform="matrix(1.00, 0.00, -0.00, -1.00, 750.1, 640.4)">p</text><text xml:space="preserve" font-family="Palatino-Roman,Palatino" font-size="24.0" fill="#E5EDEA" transform="matrix(1.00, 0.00, -0.00, -1.00, 764.5, 640.4)">o</text><text xml:space="preserve" font-family="Palatino-Roman,Palatino" font-size="24.0" fill="#E5EDEA" transform="matrix(1.00, 0.00, -0.00, -1.00, 777.6, 640.4)">r</text><text xml:space="preserve" font-family="Palatino-Roman,Palatino" font-size="24.0" fill="#E5EDEA" transform="matrix(1.00, 0.00, -0.00, -1.00, 787.1, 640.4)">t</text><text xml:space="preserve" font-family="Palatino-Roman,Palatino" font-size="24.0" fill="#E5EDEA" transform="matrix(1.00, 0.00, -0.00, -1.00, 795.0, 640.4)"> </text><text xml:space="preserve" font-family="Palatino-Roman,Palatino" font-size="24.0" fill="#E5EDEA" transform="matrix(1.00, 0.00, -0.00, -1.00, 801.0, 640.4)">U</text><text xml:space="preserve" font-family="Palatino-Roman,Palatino" font-size="24.0" fill="#E5EDEA" transform="matrix(1.00, 0.00, -0.00, -1.00, 819.6, 640.4)">R</text><text xml:space="preserve" font-family="Palatino-Roman,Palatino" font-size="24.0" fill="#E5EDEA" transform="matrix(1.00, 0.00, -0.00, -1.00, 835.6, 640.4)">L</text><text xml:space="preserve" font-family="Palatino-Roman,Palatino" font-size="24.0" fill="#E5EDEA" transform="matrix(1.00, 0.00, -0.00, -1.00, 850.3, 640.4)">s</text><text xml:space="preserve" font-family="Palatino-Roman,Palatino" font-size="24.0" fill="#E5EDEA" transform="matrix(1.00, 0.00, -0.00, -1.00, 860.5, 640.4)"> </text><text xml:space="preserve" font-family="Palatino-Roman,Palatino" font-size="24.0" fill="#E5EDEA" transform="matrix(1.00, 0.00, -0.00, -1.00, 866.5, 640.4)">o</text><text xml:space="preserve" font-family="Palatino-Roman,Palatino" font-size="24.0" fill="#E5EDEA" transform="matrix(1.00, 0.00, -0.00, -1.00, 879.6, 640.4)">r</text><text xml:space="preserve" font-family="Palatino-Roman,Palatino" font-size="24.0" fill="#E5EDEA" transform="matrix(1.00, 0.00, -0.00, -1.00, 889.0, 640.4)"> </text><text xml:space="preserve" font-family="Palatino-Roman,Palatino" font-size="24.0" fill="#E5EDEA" transform="matrix(1.00, 0.00, -0.00, -1.00, 500.6, 608.4)">T</text><text xml:space="preserve" font-family="Palatino-Roman,Palatino" font-size="24.0" fill="#E5EDEA" transform="matrix(1.00, 0.00, -0.00, -1.00, 513.6, 608.4)">A</text><text xml:space="preserve" font-family="Palatino-Roman,Palatino" font-size="24.0" fill="#E5EDEA" transform="matrix(1.00, 0.00, -0.00, -1.00, 532.2, 608.4)">R</text><text xml:space="preserve" font-family="Palatino-Roman,Palatino" font-size="24.0" fill="#E5EDEA" transform="matrix(1.00, 0.00, -0.00, -1.00, 548.3, 608.4)">s</text><text xml:space="preserve" font-family="Palatino-Roman,Palatino" font-size="24.0" fill="#E5EDEA" transform="matrix(1.00, 0.00, -0.00, -1.00, 558.4, 608.4)">.</text><text xml:space="preserve" font-family="Palatino-Roman,Palatino" font-size="24.0" fill="#E5EDEA" transform="matrix(1.00, 0.00, -0.00, -1.00, 564.4, 608.4)"> </text><text xml:space="preserve" font-family="Palatino-Roman,Palatino" font-size="24.0" fill="#E5EDEA" transform="matrix(1.00, 0.00, -0.00, -1.00, 570.4, 608.4)">U</text><text xml:space="preserve" font-family="Palatino-Roman,Palatino" font-size="24.0" fill="#E5EDEA" transform="matrix(1.00, 0.00, -0.00, -1.00, 589.1, 608.4)">s</text><text xml:space="preserve" font-family="Palatino-Roman,Palatino" font-size="24.0" fill="#E5EDEA" transform="matrix(1.00, 0.00, -0.00, -1.00, 599.3, 608.4)">e</text><text xml:space="preserve" font-family="Palatino-Roman,Palatino" font-size="24.0" fill="#E5EDEA" transform="matrix(1.00, 0.00, -0.00, -1.00, 610.7, 608.4)"> </text><text xml:space="preserve" font-family="Palatino-Roman,Palatino" font-size="24.0" fill="#E5EDEA" transform="matrix(1.00, 0.00, -0.00, -1.00, 616.7, 608.4)">C</text><text xml:space="preserve" font-family="Palatino-Roman,Palatino" font-size="24.0" fill="#E5EDEA" transform="matrix(1.00, 0.00, -0.00, -1.00, 633.8, 608.4)">O</text><text xml:space="preserve" font-family="Palatino-Roman,Palatino" font-size="24.0" fill="#E5EDEA" transform="matrix(1.00, 0.00, -0.00, -1.00, 652.6, 608.4)">P</text><text xml:space="preserve" font-family="Palatino-Roman,Palatino" font-size="24.0" fill="#E5EDEA" transform="matrix(1.00, 0.00, -0.00, -1.00, 667.1, 608.4)">Y</text><text xml:space="preserve" font-family="Palatino-Roman,Palatino" font-size="24.0" fill="#E5EDEA" transform="matrix(1.00, 0.00, -0.00, -1.00, 682.7, 608.4)"> </text><text xml:space="preserve" font-family="Palatino-Roman,Palatino" font-size="24.0" fill="#E5EDEA" transform="matrix(1.00, 0.00, -0.00, -1.00, 688.7, 608.4)">w</text><text xml:space="preserve" font-family="Palatino-Roman,Palatino" font-size="24.0" fill="#E5EDEA" transform="matrix(1.00, 0.00, -0.00, -1.00, 708.7, 608.4)">h</text><text xml:space="preserve" font-family="Palatino-Roman,Palatino" font-size="24.0" fill="#E5EDEA" transform="matrix(1.00, 0.00, -0.00, -1.00, 722.7, 608.4)">e</text><text xml:space="preserve" font-family="Palatino-Roman,Palatino" font-size="24.0" fill="#E5EDEA" transform="matrix(1.00, 0.00, -0.00, -1.00, 734.2, 608.4)">n</text><text xml:space="preserve" font-family="Palatino-Roman,Palatino" font-size="24.0" fill="#E5EDEA" transform="matrix(1.00, 0.00, -0.00, -1.00, 748.2, 608.4)">e</text><text xml:space="preserve" font-family="Palatino-Roman,Palatino" font-size="24.0" fill="#E5EDEA" transform="matrix(1.00, 0.00, -0.00, -1.00, 759.7, 608.4)">v</text><text xml:space="preserve" font-family="Palatino-Roman,Palatino" font-size="24.0" fill="#E5EDEA" transform="matrix(1.00, 0.00, -0.00, -1.00, 773.2, 608.4)">e</text><text xml:space="preserve" font-family="Palatino-Roman,Palatino" font-size="24.0" fill="#E5EDEA" transform="matrix(1.00, 0.00, -0.00, -1.00, 784.7, 608.4)">r</text><text xml:space="preserve" font-family="Palatino-Roman,Palatino" font-size="24.0" fill="#E5EDEA" transform="matrix(1.00, 0.00, -0.00, -1.00, 794.2, 608.4)"> </text><text xml:space="preserve" font-family="Palatino-Roman,Palatino" font-size="24.0" fill="#E5EDEA" transform="matrix(1.00, 0.00, -0.00, -1.00, 800.2, 608.4)">p</text><text xml:space="preserve" font-family="Palatino-Roman,Palatino" font-size="24.0" fill="#E5EDEA" transform="matrix(1.00, 0.00, -0.00, -1.00, 814.6, 608.4)">o</text><text xml:space="preserve" font-family="Palatino-Roman,Palatino" font-size="24.0" fill="#E5EDEA" transform="matrix(1.00, 0.00, -0.00, -1.00, 827.7, 608.4)">s</text><text xml:space="preserve" font-family="Palatino-Roman,Palatino" font-size="24.0" fill="#E5EDEA" transform="matrix(1.00, 0.00, -0.00, -1.00, 837.9, 608.4)">s</text><text xml:space="preserve" font-family="Palatino-Roman,Palatino" font-size="24.0" fill="#E5EDEA" transform="matrix(1.00, 0.00, -0.00, -1.00, 848.1, 608.4)">i</text><text xml:space="preserve" font-family="Palatino-Roman,Palatino" font-size="24.0" fill="#E5EDEA" transform="matrix(1.00, 0.00, -0.00, -1.00, 855.0, 608.4)">b</text><text xml:space="preserve" font-family="Palatino-Roman,Palatino" font-size="24.0" fill="#E5EDEA" transform="matrix(1.00, 0.00, -0.00, -1.00, 868.3, 608.4)">l</text><text xml:space="preserve" font-family="Palatino-Roman,Palatino" font-size="24.0" fill="#E5EDEA" transform="matrix(1.00, 0.00, -0.00, -1.00, 875.3, 608.4)">e</text><text xml:space="preserve" font-family="Palatino-Roman,Palatino" font-size="24.0" fill="#E5EDEA" transform="matrix(1.00, 0.00, -0.00, -1.00, 886.8, 608.4)">.</text></g></svg>