<?xml version="1.0" encoding="UTF-8" standalone="no"?><svg xmlns="http://www.w3.org/2000/svg" xmlns:xlink="http://www.w3.org/1999/xlink" clip-rule="evenodd" stroke-miterlimit="10" viewBox="0 0 1024 768"><desc>SVG generated by Keynote</desc><defs><pattern id="717D4157-7137-43F3-A1DC-FA1479340710" patternUnits="userSpaceOnUse" width="580" height="580" viewBox="0 0 580 580"><image xlink:href="../../76B6F3B3-FE62-45A3-BC10-8C0E82E2DC18/assets/8727E46A978D0F4CEC9239881F818550.png" width="580.00" height="580.00"></image></pattern></defs><g transform="matrix(1.00, 0.00, -0.00, -1.00, 0.0, 768.0)"><g><clipPath id="clip0x618000abfc20"><path d="M 0.0 768.0 L 1024.0 768.0 L 1024.0 0.0 L 0.0 0.0 Z M 0.0 768.0 "></path></clipPath><g clip-path="url(#clip0x618000abfc20)"><image xlink:href="../../524A64CF-8346-4612-AEB3-13D03E94EA2C/assets/8A97F831B44C6305266B84CB83B0E791.jpeg" width="2048.00" height="1536.00" transform="matrix(0.50, 0.00, -0.00, -0.50, 0.0, 768.0)"></image></g></g><g><clipPath id="clip0x618000aa8100"><path d="M 0.0 768.0 L 1024.0 768.0 L 1024.0 0.0 L 0.0 0.0 Z M 0.0 768.0 "></path></clipPath><g clip-path="url(#clip0x618000aa8100)"><image xlink:href="../../862BF2E1-3FBB-4826-BBA5-227F6BEDC31C/assets/B91BC6A0D9132C254BD5012086C6F40B.png" width="880.00" height="684.00" transform="matrix(1.12, 0.00, -0.00, -1.12, 18.0, 768.0)"></image></g></g><g><clipPath id="clip0x618000ca7740"><path d="M 479.0 709.0 L 915.0 709.0 L 915.0 591.0 L 479.0 591.0 Z M 478.9 708.9 "></path></clipPath><g clip-path="url(#clip0x618000ca7740)"><path d="M 479.0 591.0 L 915.0 591.0 L 915.0 709.0 L 479.0 709.0 Z M 479.0 591.0 " fill="url(#717D4157-7137-43F3-A1DC-FA1479340710)"></path></g></g><path d="M 0.0 0.0 L 495.3 0.0 L 498.3 0.0 " fill="none" stroke="#E0E0E0" stroke-width="6.00" transform="matrix(-0.46, -0.89, -0.89, 0.46, 479.8, 649.6)"></path><path d="M 241.4 215.2 L 241.1 188.4 L 262.7 204.2 Z M 241.4 215.2 " fill="#E0E0E0"></path><text xml:space="preserve" font-family="Palatino-Roman,Palatino" font-size="24.0" fill="#E5EDEA" transform="matrix(1.00, 0.00, -0.00, -1.00, 505.0, 672.4)">N</text><text xml:space="preserve" font-family="Palatino-Roman,Palatino" font-size="24.0" fill="#E5EDEA" transform="matrix(1.00, 0.00, -0.00, -1.00, 524.9, 672.4)">e</text><text xml:space="preserve" font-family="Palatino-Roman,Palatino" font-size="24.0" fill="#E5EDEA" transform="matrix(1.00, 0.00, -0.00, -1.00, 536.4, 672.4)">v</text><text xml:space="preserve" font-family="Palatino-Roman,Palatino" font-size="24.0" fill="#E5EDEA" transform="matrix(1.00, 0.00, -0.00, -1.00, 550.0, 672.4)">e</text><text xml:space="preserve" font-family="Palatino-Roman,Palatino" font-size="24.0" fill="#E5EDEA" transform="matrix(1.00, 0.00, -0.00, -1.00, 561.5, 672.4)">r</text><text xml:space="preserve" font-family="Palatino-Roman,Palatino" font-size="24.0" fill="#E5EDEA" transform="matrix(1.00, 0.00, -0.00, -1.00, 571.0, 672.4)"> </text><text xml:space="preserve" font-family="Palatino-Roman,Palatino" font-size="24.0" fill="#E5EDEA" transform="matrix(1.00, 0.00, -0.00, -1.00, 577.0, 672.4)">a</text><text xml:space="preserve" font-family="Palatino-Roman,Palatino" font-size="24.0" fill="#E5EDEA" transform="matrix(1.00, 0.00, -0.00, -1.00, 589.0, 672.4)">l</text><text xml:space="preserve" font-family="Palatino-Roman,Palatino" font-size="24.0" fill="#E5EDEA" transform="matrix(1.00, 0.00, -0.00, -1.00, 595.9, 672.4)">l</text><text xml:space="preserve" font-family="Palatino-Roman,Palatino" font-size="24.0" fill="#E5EDEA" transform="matrix(1.00, 0.00, -0.00, -1.00, 602.9, 672.4)">o</text><text xml:space="preserve" font-family="Palatino-Roman,Palatino" font-size="24.0" fill="#E5EDEA" transform="matrix(1.00, 0.00, -0.00, -1.00, 616.0, 672.4)">w</text><text xml:space="preserve" font-family="Palatino-Roman,Palatino" font-size="24.0" fill="#E5EDEA" transform="matrix(1.00, 0.00, -0.00, -1.00, 636.0, 672.4)"> </text><text xml:space="preserve" font-family="Palatino-Roman,Palatino" font-size="24.0" fill="#E5EDEA" transform="matrix(1.00, 0.00, -0.00, -1.00, 642.0, 672.4)">y</text><text xml:space="preserve" font-family="Palatino-Roman,Palatino" font-size="24.0" fill="#E5EDEA" transform="matrix(1.00, 0.00, -0.00, -1.00, 655.4, 672.4)">o</text><text xml:space="preserve" font-family="Palatino-Roman,Palatino" font-size="24.0" fill="#E5EDEA" transform="matrix(1.00, 0.00, -0.00, -1.00, 668.5, 672.4)">u</text><text xml:space="preserve" font-family="Palatino-Roman,Palatino" font-size="24.0" fill="#E5EDEA" transform="matrix(1.00, 0.00, -0.00, -1.00, 683.0, 672.4)">r</text><text xml:space="preserve" font-family="Palatino-Roman,Palatino" font-size="24.0" fill="#E5EDEA" transform="matrix(1.00, 0.00, -0.00, -1.00, 692.5, 672.4)"> </text><text xml:space="preserve" font-family="Palatino-Roman,Palatino" font-size="24.0" fill="#E5EDEA" transform="matrix(1.00, 0.00, -0.00, -1.00, 698.5, 672.4)">a</text><text xml:space="preserve" font-family="Palatino-Roman,Palatino" font-size="24.0" fill="#E5EDEA" transform="matrix(1.00, 0.00, -0.00, -1.00, 710.5, 672.4)">p</text><text xml:space="preserve" font-family="Palatino-Roman,Palatino" font-size="24.0" fill="#E5EDEA" transform="matrix(1.00, 0.00, -0.00, -1.00, 724.9, 672.4)">p</text><text xml:space="preserve" font-family="Palatino-Roman,Palatino" font-size="24.0" fill="#E5EDEA" transform="matrix(1.00, 0.00, -0.00, -1.00, 739.3, 672.4)">l</text><text xml:space="preserve" font-family="Palatino-Roman,Palatino" font-size="24.0" fill="#E5EDEA" transform="matrix(1.00, 0.00, -0.00, -1.00, 746.3, 672.4)">i</text><text xml:space="preserve" font-family="Palatino-Roman,Palatino" font-size="24.0" fill="#E5EDEA" transform="matrix(1.00, 0.00, -0.00, -1.00, 753.3, 672.4)">c</text><text xml:space="preserve" font-family="Palatino-Roman,Palatino" font-size="24.0" fill="#E5EDEA" transform="matrix(1.00, 0.00, -0.00, -1.00, 763.9, 672.4)">a</text><text xml:space="preserve" font-family="Palatino-Roman,Palatino" font-size="24.0" fill="#E5EDEA" transform="matrix(1.00, 0.00, -0.00, -1.00, 775.9, 672.4)">t</text><text xml:space="preserve" font-family="Palatino-Roman,Palatino" font-size="24.0" fill="#E5EDEA" transform="matrix(1.00, 0.00, -0.00, -1.00, 783.8, 672.4)">i</text><text xml:space="preserve" font-family="Palatino-Roman,Palatino" font-size="24.0" fill="#E5EDEA" transform="matrix(1.00, 0.00, -0.00, -1.00, 790.7, 672.4)">o</text><text xml:space="preserve" font-family="Palatino-Roman,Palatino" font-size="24.0" fill="#E5EDEA" transform="matrix(1.00, 0.00, -0.00, -1.00, 803.8, 672.4)">n</text><text xml:space="preserve" font-family="Palatino-Roman,Palatino" font-size="24.0" fill="#E5EDEA" transform="matrix(1.00, 0.00, -0.00, -1.00, 817.8, 672.4)"> </text><text xml:space="preserve" font-family="Palatino-Roman,Palatino" font-size="24.0" fill="#E5EDEA" transform="matrix(1.00, 0.00, -0.00, -1.00, 823.8, 672.4)">t</text><text xml:space="preserve" font-family="Palatino-Roman,Palatino" font-size="24.0" fill="#E5EDEA" transform="matrix(1.00, 0.00, -0.00, -1.00, 831.6, 672.4)">o</text><text xml:space="preserve" font-family="Palatino-Roman,Palatino" font-size="24.0" fill="#E5EDEA" transform="matrix(1.00, 0.00, -0.00, -1.00, 844.7, 672.4)"> </text><text xml:space="preserve" font-family="Palatino-Roman,Palatino" font-size="24.0" fill="#E5EDEA" transform="matrix(1.00, 0.00, -0.00, -1.00, 850.7, 672.4)">r</text><text xml:space="preserve" font-family="Palatino-Roman,Palatino" font-size="24.0" fill="#E5EDEA" transform="matrix(1.00, 0.00, -0.00, -1.00, 860.0, 672.4)">u</text><text xml:space="preserve" font-family="Palatino-Roman,Palatino" font-size="24.0" fill="#E5EDEA" transform="matrix(1.00, 0.00, -0.00, -1.00, 874.5, 672.4)">n</text><text xml:space="preserve" font-family="Palatino-Roman,Palatino" font-size="24.0" fill="#E5EDEA" transform="matrix(1.00, 0.00, -0.00, -1.00, 888.5, 672.4)"> </text><text xml:space="preserve" font-family="Palatino-Roman,Palatino" font-size="24.0" fill="#E5EDEA" transform="matrix(1.00, 0.00, -0.00, -1.00, 542.7, 640.4)">a</text><text xml:space="preserve" font-family="Palatino-Roman,Palatino" font-size="24.0" fill="#E5EDEA" transform="matrix(1.00, 0.00, -0.00, -1.00, 554.7, 640.4)">s</text><text xml:space="preserve" font-family="Palatino-Roman,Palatino" font-size="24.0" fill="#E5EDEA" transform="matrix(1.00, 0.00, -0.00, -1.00, 564.8, 640.4)"> </text><text xml:space="preserve" font-family="Palatino-Roman,Palatino" font-size="24.0" fill="#E5EDEA" transform="matrix(1.00, 0.00, -0.00, -1.00, 570.8, 640.4)">r</text><text xml:space="preserve" font-family="Palatino-Roman,Palatino" font-size="24.0" fill="#E5EDEA" transform="matrix(1.00, 0.00, -0.00, -1.00, 579.9, 640.4)">o</text><text xml:space="preserve" font-family="Palatino-Roman,Palatino" font-size="24.0" fill="#E5EDEA" transform="matrix(1.00, 0.00, -0.00, -1.00, 593.0, 640.4)">o</text><text xml:space="preserve" font-family="Palatino-Roman,Palatino" font-size="24.0" fill="#E5EDEA" transform="matrix(1.00, 0.00, -0.00, -1.00, 606.1, 640.4)">t</text><text xml:space="preserve" font-family="Palatino-Roman,Palatino" font-size="24.0" fill="#E5EDEA" transform="matrix(1.00, 0.00, -0.00, -1.00, 613.9, 640.4)">.</text><text xml:space="preserve" font-family="Palatino-Roman,Palatino" font-size="24.0" fill="#E5EDEA" transform="matrix(1.00, 0.00, -0.00, -1.00, 619.9, 640.4)"> </text><text xml:space="preserve" font-family="Palatino-Roman,Palatino" font-size="24.0" fill="#E5EDEA" transform="matrix(1.00, 0.00, -0.00, -1.00, 625.9, 640.4)">B</text><text xml:space="preserve" font-family="Palatino-Roman,Palatino" font-size="24.0" fill="#E5EDEA" transform="matrix(1.00, 0.00, -0.00, -1.00, 640.6, 640.4)">e</text><text xml:space="preserve" font-family="Palatino-Roman,Palatino" font-size="24.0" fill="#E5EDEA" transform="matrix(1.00, 0.00, -0.00, -1.00, 652.1, 640.4)"> </text><text xml:space="preserve" font-family="Palatino-Roman,Palatino" font-size="24.0" fill="#E5EDEA" transform="matrix(1.00, 0.00, -0.00, -1.00, 658.1, 640.4)">s</text><text xml:space="preserve" font-family="Palatino-Roman,Palatino" font-size="24.0" fill="#E5EDEA" transform="matrix(1.00, 0.00, -0.00, -1.00, 668.3, 640.4)">u</text><text xml:space="preserve" font-family="Palatino-Roman,Palatino" font-size="24.0" fill="#E5EDEA" transform="matrix(1.00, 0.00, -0.00, -1.00, 682.7, 640.4)">r</text><text xml:space="preserve" font-family="Palatino-Roman,Palatino" font-size="24.0" fill="#E5EDEA" transform="matrix(1.00, 0.00, -0.00, -1.00, 691.8, 640.4)">e</text><text xml:space="preserve" font-family="Palatino-Roman,Palatino" font-size="24.0" fill="#E5EDEA" transform="matrix(1.00, 0.00, -0.00, -1.00, 703.3, 640.4)"> </text><text xml:space="preserve" font-family="Palatino-Roman,Palatino" font-size="24.0" fill="#E5EDEA" transform="matrix(1.00, 0.00, -0.00, -1.00, 709.3, 640.4)">t</text><text xml:space="preserve" font-family="Palatino-Roman,Palatino" font-size="24.0" fill="#E5EDEA" transform="matrix(1.00, 0.00, -0.00, -1.00, 717.1, 640.4)">o</text><text xml:space="preserve" font-family="Palatino-Roman,Palatino" font-size="24.0" fill="#E5EDEA" transform="matrix(1.00, 0.00, -0.00, -1.00, 730.2, 640.4)"> </text><text xml:space="preserve" font-family="Palatino-Roman,Palatino" font-size="24.0" fill="#E5EDEA" transform="matrix(1.00, 0.00, -0.00, -1.00, 736.2, 640.4)">s</text><text xml:space="preserve" font-family="Palatino-Roman,Palatino" font-size="24.0" fill="#E5EDEA" transform="matrix(1.00, 0.00, -0.00, -1.00, 746.4, 640.4)">w</text><text xml:space="preserve" font-family="Palatino-Roman,Palatino" font-size="24.0" fill="#E5EDEA" transform="matrix(1.00, 0.00, -0.00, -1.00, 766.4, 640.4)">i</text><text xml:space="preserve" font-family="Palatino-Roman,Palatino" font-size="24.0" fill="#E5EDEA" transform="matrix(1.00, 0.00, -0.00, -1.00, 773.4, 640.4)">t</text><text xml:space="preserve" font-family="Palatino-Roman,Palatino" font-size="24.0" fill="#E5EDEA" transform="matrix(1.00, 0.00, -0.00, -1.00, 781.2, 640.4)">c</text><text xml:space="preserve" font-family="Palatino-Roman,Palatino" font-size="24.0" fill="#E5EDEA" transform="matrix(1.00, 0.00, -0.00, -1.00, 791.9, 640.4)">h</text><text xml:space="preserve" font-family="Palatino-Roman,Palatino" font-size="24.0" fill="#E5EDEA" transform="matrix(1.00, 0.00, -0.00, -1.00, 805.8, 640.4)"> </text><text xml:space="preserve" font-family="Palatino-Roman,Palatino" font-size="24.0" fill="#E5EDEA" transform="matrix(1.00, 0.00, -0.00, -1.00, 811.8, 640.4)">t</text><text xml:space="preserve" font-family="Palatino-Roman,Palatino" font-size="24.0" fill="#E5EDEA" transform="matrix(1.00, 0.00, -0.00, -1.00, 819.7, 640.4)">o</text><text xml:space="preserve" font-family="Palatino-Roman,Palatino" font-size="24.0" fill="#E5EDEA" transform="matrix(1.00, 0.00, -0.00, -1.00, 832.8, 640.4)"> </text><text xml:space="preserve" font-family="Palatino-Roman,Palatino" font-size="24.0" fill="#E5EDEA" transform="matrix(1.00, 0.00, -0.00, -1.00, 838.8, 640.4)">a</text><text xml:space="preserve" font-family="Palatino-Roman,Palatino" font-size="24.0" fill="#E5EDEA" transform="matrix(1.00, 0.00, -0.00, -1.00, 850.8, 640.4)"> </text><text xml:space="preserve" font-family="Palatino-Roman,Palatino" font-size="24.0" fill="#E5EDEA" transform="matrix(1.00, 0.00, -0.00, -1.00, 498.2, 608.4)">d</text><text xml:space="preserve" font-family="Palatino-Roman,Palatino" font-size="24.0" fill="#E5EDEA" transform="matrix(1.00, 0.00, -0.00, -1.00, 512.8, 608.4)">i</text><text xml:space="preserve" font-family="Palatino-Roman,Palatino" font-size="24.0" fill="#E5EDEA" transform="matrix(1.00, 0.00, -0.00, -1.00, 519.8, 608.4)">f</text><text xml:space="preserve" font-family="Palatino-Roman,Palatino" font-size="24.0" fill="#E5EDEA" transform="matrix(1.00, 0.00, -0.00, -1.00, 527.4, 608.4)">f</text><text xml:space="preserve" font-family="Palatino-Roman,Palatino" font-size="24.0" fill="#E5EDEA" transform="matrix(1.00, 0.00, -0.00, -1.00, 535.4, 608.4)">e</text><text xml:space="preserve" font-family="Palatino-Roman,Palatino" font-size="24.0" fill="#E5EDEA" transform="matrix(1.00, 0.00, -0.00, -1.00, 546.9, 608.4)">r</text><text xml:space="preserve" font-family="Palatino-Roman,Palatino" font-size="24.0" fill="#E5EDEA" transform="matrix(1.00, 0.00, -0.00, -1.00, 555.9, 608.4)">e</text><text xml:space="preserve" font-family="Palatino-Roman,Palatino" font-size="24.0" fill="#E5EDEA" transform="matrix(1.00, 0.00, -0.00, -1.00, 567.4, 608.4)">n</text><text xml:space="preserve" font-family="Palatino-Roman,Palatino" font-size="24.0" fill="#E5EDEA" transform="matrix(1.00, 0.00, -0.00, -1.00, 581.4, 608.4)">t</text><text xml:space="preserve" font-family="Palatino-Roman,Palatino" font-size="24.0" fill="#E5EDEA" transform="matrix(1.00, 0.00, -0.00, -1.00, 589.2, 608.4)"> </text><text xml:space="preserve" font-family="Palatino-Roman,Palatino" font-size="24.0" fill="#E5EDEA" transform="matrix(1.00, 0.00, -0.00, -1.00, 595.2, 608.4)">u</text><text xml:space="preserve" font-family="Palatino-Roman,Palatino" font-size="24.0" fill="#E5EDEA" transform="matrix(1.00, 0.00, -0.00, -1.00, 609.7, 608.4)">s</text><text xml:space="preserve" font-family="Palatino-Roman,Palatino" font-size="24.0" fill="#E5EDEA" transform="matrix(1.00, 0.00, -0.00, -1.00, 619.9, 608.4)">e</text><text xml:space="preserve" font-family="Palatino-Roman,Palatino" font-size="24.0" fill="#E5EDEA" transform="matrix(1.00, 0.00, -0.00, -1.00, 631.3, 608.4)">r</text><text xml:space="preserve" font-family="Palatino-Roman,Palatino" font-size="24.0" fill="#E5EDEA" transform="matrix(1.00, 0.00, -0.00, -1.00, 640.8, 608.4)"> </text><text xml:space="preserve" font-family="Palatino-Roman,Palatino" font-size="24.0" fill="#E5EDEA" transform="matrix(1.00, 0.00, -0.00, -1.00, 646.8, 608.4)">f</text><text xml:space="preserve" font-family="Palatino-Roman,Palatino" font-size="24.0" fill="#E5EDEA" transform="matrix(1.00, 0.00, -0.00, -1.00, 654.8, 608.4)">o</text><text xml:space="preserve" font-family="Palatino-Roman,Palatino" font-size="24.0" fill="#E5EDEA" transform="matrix(1.00, 0.00, -0.00, -1.00, 667.9, 608.4)">r</text><text xml:space="preserve" font-family="Palatino-Roman,Palatino" font-size="24.0" fill="#E5EDEA" transform="matrix(1.00, 0.00, -0.00, -1.00, 677.4, 608.4)"> </text><text xml:space="preserve" font-family="Palatino-Roman,Palatino" font-size="24.0" fill="#E5EDEA" transform="matrix(1.00, 0.00, -0.00, -1.00, 683.4, 608.4)">e</text><text xml:space="preserve" font-family="Palatino-Roman,Palatino" font-size="24.0" fill="#E5EDEA" transform="matrix(1.00, 0.00, -0.00, -1.00, 694.9, 608.4)">x</text><text xml:space="preserve" font-family="Palatino-Roman,Palatino" font-size="24.0" fill="#E5EDEA" transform="matrix(1.00, 0.00, -0.00, -1.00, 707.3, 608.4)">e</text><text xml:space="preserve" font-family="Palatino-Roman,Palatino" font-size="24.0" fill="#E5EDEA" transform="matrix(1.00, 0.00, -0.00, -1.00, 718.8, 608.4)">c</text><text xml:space="preserve" font-family="Palatino-Roman,Palatino" font-size="24.0" fill="#E5EDEA" transform="matrix(1.00, 0.00, -0.00, -1.00, 729.4, 608.4)">u</text><text xml:space="preserve" font-family="Palatino-Roman,Palatino" font-size="24.0" fill="#E5EDEA" transform="matrix(1.00, 0.00, -0.00, -1.00, 743.9, 608.4)">t</text><text xml:space="preserve" font-family="Palatino-Roman,Palatino" font-size="24.0" fill="#E5EDEA" transform="matrix(1.00, 0.00, -0.00, -1.00, 751.7, 608.4)">i</text><text xml:space="preserve" font-family="Palatino-Roman,Palatino" font-size="24.0" fill="#E5EDEA" transform="matrix(1.00, 0.00, -0.00, -1.00, 758.7, 608.4)">n</text><text xml:space="preserve" font-family="Palatino-Roman,Palatino" font-size="24.0" fill="#E5EDEA" transform="matrix(1.00, 0.00, -0.00, -1.00, 772.7, 608.4)">g</text><text xml:space="preserve" font-family="Palatino-Roman,Palatino" font-size="24.0" fill="#E5EDEA" transform="matrix(1.00, 0.00, -0.00, -1.00, 786.0, 608.4)"> </text><text xml:space="preserve" font-family="Palatino-Roman,Palatino" font-size="24.0" fill="#E5EDEA" transform="matrix(1.00, 0.00, -0.00, -1.00, 792.0, 608.4)">y</text><text xml:space="preserve" font-family="Palatino-Roman,Palatino" font-size="24.0" fill="#E5EDEA" transform="matrix(1.00, 0.00, -0.00, -1.00, 805.4, 608.4)">o</text><text xml:space="preserve" font-family="Palatino-Roman,Palatino" font-size="24.0" fill="#E5EDEA" transform="matrix(1.00, 0.00, -0.00, -1.00, 818.5, 608.4)">u</text><text xml:space="preserve" font-family="Palatino-Roman,Palatino" font-size="24.0" fill="#E5EDEA" transform="matrix(1.00, 0.00, -0.00, -1.00, 833.0, 608.4)">r</text><text xml:space="preserve" font-family="Palatino-Roman,Palatino" font-size="24.0" fill="#E5EDEA" transform="matrix(1.00, 0.00, -0.00, -1.00, 842.4, 608.4)"> </text><text xml:space="preserve" font-family="Palatino-Roman,Palatino" font-size="24.0" fill="#E5EDEA" transform="matrix(1.00, 0.00, -0.00, -1.00, 848.4, 608.4)">a</text><text xml:space="preserve" font-family="Palatino-Roman,Palatino" font-size="24.0" fill="#E5EDEA" transform="matrix(1.00, 0.00, -0.00, -1.00, 860.4, 608.4)">p</text><text xml:space="preserve" font-family="Palatino-Roman,Palatino" font-size="24.0" fill="#E5EDEA" transform="matrix(1.00, 0.00, -0.00, -1.00, 874.9, 608.4)">p</text><text xml:space="preserve" font-family="Palatino-Roman,Palatino" font-size="24.0" fill="#E5EDEA" transform="matrix(1.00, 0.00, -0.00, -1.00, 889.3, 608.4)">.</text></g></svg>