<?xml version="1.0" encoding="UTF-8" standalone="no"?><svg xmlns="http://www.w3.org/2000/svg" xmlns:xlink="http://www.w3.org/1999/xlink" clip-rule="evenodd" stroke-miterlimit="10" viewBox="0 0 1024 768"><desc>SVG generated by Keynote</desc><defs></defs><g transform="matrix(1.00, 0.00, -0.00, -1.00, 0.0, 768.0)"><g><clipPath id="clip0x6180014b6800"><path d="M 0.0 768.0 L 1024.0 768.0 L 1024.0 0.0 L 0.0 0.0 Z M 0.0 768.0 "></path></clipPath><g clip-path="url(#clip0x6180014b6800)"><image xlink:href="../../524A64CF-8346-4612-AEB3-13D03E94EA2C/assets/8A97F831B44C6305266B84CB83B0E791.jpeg" width="2048.00" height="1536.00" transform="matrix(0.50, 0.00, -0.00, -0.50, 0.0, 768.0)"></image></g></g><g opacity="0.30"><g><clipPath id="clip0x610001eb2900"><path d="M 39.0 595.0 L 986.0 595.0 L 986.0 599.0 L 39.0 599.0 Z M 39.0 595.0 "></path></clipPath><g clip-path="url(#clip0x610001eb2900)"><path d="M 0.0 0.5 L 944.7 0.5 L 944.7 0.5 L 0.0 0.5 Z M 0.0 0.0 " fill="none" stroke="#434343" stroke-width="1.00" transform="matrix(1.00, 0.00, 0.00, -1.00, 40.0, 597.0)"></path></g></g></g><g opacity="0.30"><g><clipPath id="clip0x610001eb2a80"><path d="M 39.0 716.0 L 986.0 716.0 L 986.0 720.0 L 39.0 720.0 Z M 39.0 716.0 "></path></clipPath><g clip-path="url(#clip0x610001eb2a80)"><path d="M 0.0 0.5 L 944.7 0.5 L 944.7 0.5 L 0.0 0.5 Z M 0.0 0.0 " fill="none" stroke="#434343" stroke-width="1.00" transform="matrix(1.00, 0.00, 0.00, -1.00, 40.0, 718.0)"></path></g></g></g><text xml:space="preserve" font-family="BodoniSvtyTwoITCTT-Book,Bodoni 72" font-size="67.2" fill="#D93D2A" transform="matrix(1.00, 0.00, -0.00, -1.00, 47.0, 633.9)">B</text><text xml:space="preserve" font-family="BodoniSvtyTwoITCTT-Book,Bodoni 72" font-size="67.2" fill="#D93D2A" transform="matrix(1.00, 0.00, -0.00, -1.00, 85.3, 633.9)">u</text><text xml:space="preserve" font-family="BodoniSvtyTwoITCTT-Book,Bodoni 72" font-size="67.2" fill="#D93D2A" transform="matrix(1.00, 0.00, -0.00, -1.00, 118.3, 633.9)">i</text><text xml:space="preserve" font-family="BodoniSvtyTwoITCTT-Book,Bodoni 72" font-size="67.2" fill="#D93D2A" transform="matrix(1.00, 0.00, -0.00, -1.00, 135.1, 633.9)">l</text><text xml:space="preserve" font-family="BodoniSvtyTwoITCTT-Book,Bodoni 72" font-size="67.2" fill="#D93D2A" transform="matrix(1.00, 0.00, -0.00, -1.00, 150.9, 633.9)">d</text><text xml:space="preserve" font-family="BodoniSvtyTwoITCTT-Book,Bodoni 72" font-size="67.2" fill="#D93D2A" transform="matrix(1.00, 0.00, -0.00, -1.00, 182.9, 633.9)">i</text><text xml:space="preserve" font-family="BodoniSvtyTwoITCTT-Book,Bodoni 72" font-size="67.2" fill="#D93D2A" transform="matrix(1.00, 0.00, -0.00, -1.00, 199.8, 633.9)">n</text><text xml:space="preserve" font-family="BodoniSvtyTwoITCTT-Book,Bodoni 72" font-size="67.2" fill="#D93D2A" transform="matrix(1.00, 0.00, -0.00, -1.00, 232.6, 633.9)">g</text><text xml:space="preserve" font-family="BodoniSvtyTwoITCTT-Book,Bodoni 72" font-size="67.2" fill="#D93D2A" transform="matrix(1.00, 0.00, -0.00, -1.00, 264.0, 633.9)"> </text><text xml:space="preserve" font-family="BodoniSvtyTwoITCTT-Book,Bodoni 72" font-size="67.2" fill="#D93D2A" transform="matrix(1.00, 0.00, -0.00, -1.00, 276.5, 633.9)">a</text><text xml:space="preserve" font-family="BodoniSvtyTwoITCTT-Book,Bodoni 72" font-size="67.2" fill="#D93D2A" transform="matrix(1.00, 0.00, -0.00, -1.00, 303.2, 633.9)">n</text><text xml:space="preserve" font-family="BodoniSvtyTwoITCTT-Book,Bodoni 72" font-size="67.2" fill="#D93D2A" transform="matrix(1.00, 0.00, -0.00, -1.00, 336.1, 633.9)"> </text><text xml:space="preserve" font-family="BodoniSvtyTwoITCTT-Book,Bodoni 72" font-size="67.2" fill="#D93D2A" transform="matrix(1.00, 0.00, -0.00, -1.00, 348.6, 633.9)">I</text><text xml:space="preserve" font-family="BodoniSvtyTwoITCTT-Book,Bodoni 72" font-size="67.2" fill="#D93D2A" transform="matrix(1.00, 0.00, -0.00, -1.00, 369.7, 633.9)">m</text><text xml:space="preserve" font-family="BodoniSvtyTwoITCTT-Book,Bodoni 72" font-size="67.2" fill="#D93D2A" transform="matrix(1.00, 0.00, -0.00, -1.00, 416.9, 633.9)">a</text><text xml:space="preserve" font-family="BodoniSvtyTwoITCTT-Book,Bodoni 72" font-size="67.2" fill="#D93D2A" transform="matrix(1.00, 0.00, -0.00, -1.00, 443.6, 633.9)">g</text><text xml:space="preserve" font-family="BodoniSvtyTwoITCTT-Book,Bodoni 72" font-size="67.2" fill="#D93D2A" transform="matrix(1.00, 0.00, -0.00, -1.00, 475.0, 633.9)">e</text><text xml:space="preserve" font-family="BodoniSvtyTwoITCTT-Book,Bodoni 72" font-size="67.2" fill="#D93D2A" transform="matrix(1.00, 0.00, -0.00, -1.00, 503.9, 633.9)"> </text><text xml:space="preserve" font-family="BodoniSvtyTwoITCTT-Book,Bodoni 72" font-size="67.2" fill="#D93D2A" transform="matrix(1.00, 0.00, -0.00, -1.00, 516.4, 633.9)">F</text><text xml:space="preserve" font-family="BodoniSvtyTwoITCTT-Book,Bodoni 72" font-size="67.2" fill="#D93D2A" transform="matrix(1.00, 0.00, -0.00, -1.00, 552.9, 633.9)">r</text><text xml:space="preserve" font-family="BodoniSvtyTwoITCTT-Book,Bodoni 72" font-size="67.2" fill="#D93D2A" transform="matrix(1.00, 0.00, -0.00, -1.00, 575.6, 633.9)">o</text><text xml:space="preserve" font-family="BodoniSvtyTwoITCTT-Book,Bodoni 72" font-size="67.2" fill="#D93D2A" transform="matrix(1.00, 0.00, -0.00, -1.00, 607.8, 633.9)">m</text><text xml:space="preserve" font-family="BodoniSvtyTwoITCTT-Book,Bodoni 72" font-size="67.2" fill="#D93D2A" transform="matrix(1.00, 0.00, -0.00, -1.00, 655.1, 633.9)"> </text><text xml:space="preserve" font-family="BodoniSvtyTwoITCTT-Book,Bodoni 72" font-size="67.2" fill="#D93D2A" transform="matrix(1.00, 0.00, -0.00, -1.00, 667.6, 633.9)">a</text><text xml:space="preserve" font-family="BodoniSvtyTwoITCTT-Book,Bodoni 72" font-size="67.2" fill="#D93D2A" transform="matrix(1.00, 0.00, -0.00, -1.00, 694.2, 633.9)"> </text><text xml:space="preserve" font-family="BodoniSvtyTwoITCTT-Book,Bodoni 72" font-size="67.2" fill="#D93D2A" transform="matrix(1.00, 0.00, -0.00, -1.00, 706.7, 633.9)">D</text><text xml:space="preserve" font-family="BodoniSvtyTwoITCTT-Book,Bodoni 72" font-size="67.2" fill="#D93D2A" transform="matrix(1.00, 0.00, -0.00, -1.00, 754.9, 633.9)">o</text><text xml:space="preserve" font-family="BodoniSvtyTwoITCTT-Book,Bodoni 72" font-size="67.2" fill="#D93D2A" transform="matrix(1.00, 0.00, -0.00, -1.00, 787.1, 633.9)">c</text><text xml:space="preserve" font-family="BodoniSvtyTwoITCTT-Book,Bodoni 72" font-size="67.2" fill="#D93D2A" transform="matrix(1.00, 0.00, -0.00, -1.00, 814.6, 633.9)">k</text><text xml:space="preserve" font-family="BodoniSvtyTwoITCTT-Book,Bodoni 72" font-size="67.2" fill="#D93D2A" transform="matrix(1.00, 0.00, -0.00, -1.00, 846.1, 633.9)">e</text><text xml:space="preserve" font-family="BodoniSvtyTwoITCTT-Book,Bodoni 72" font-size="67.2" fill="#D93D2A" transform="matrix(1.00, 0.00, -0.00, -1.00, 875.0, 633.9)">r</text><text xml:space="preserve" font-family="BodoniSvtyTwoITCTT-Book,Bodoni 72" font-size="67.2" fill="#D93D2A" transform="matrix(1.00, 0.00, -0.00, -1.00, 897.7, 633.9)">f</text><text xml:space="preserve" font-family="BodoniSvtyTwoITCTT-Book,Bodoni 72" font-size="67.2" fill="#D93D2A" transform="matrix(1.00, 0.00, -0.00, -1.00, 915.5, 633.9)">i</text><text xml:space="preserve" font-family="BodoniSvtyTwoITCTT-Book,Bodoni 72" font-size="67.2" fill="#D93D2A" transform="matrix(1.00, 0.00, -0.00, -1.00, 932.3, 633.9)">l</text><text xml:space="preserve" font-family="BodoniSvtyTwoITCTT-Book,Bodoni 72" font-size="67.2" fill="#D93D2A" transform="matrix(1.00, 0.00, -0.00, -1.00, 948.1, 633.9)">e</text><text xml:space="preserve" font-family="Courier,Courier" font-size="32.0" fill="#030000" transform="matrix(1.00, 0.00, -0.00, -1.00, 79.9, 489.5)">d</text><text xml:space="preserve" font-family="Courier,Courier" font-size="32.0" fill="#030000" transform="matrix(1.00, 0.00, -0.00, -1.00, 99.1, 489.5)">o</text><text xml:space="preserve" font-family="Courier,Courier" font-size="32.0" fill="#030000" transform="matrix(1.00, 0.00, -0.00, -1.00, 118.3, 489.5)">c</text><text xml:space="preserve" font-family="Courier,Courier" font-size="32.0" fill="#030000" transform="matrix(1.00, 0.00, -0.00, -1.00, 137.5, 489.5)">k</text><text xml:space="preserve" font-family="Courier,Courier" font-size="32.0" fill="#030000" transform="matrix(1.00, 0.00, -0.00, -1.00, 156.8, 489.5)">e</text><text xml:space="preserve" font-family="Courier,Courier" font-size="32.0" fill="#030000" transform="matrix(1.00, 0.00, -0.00, -1.00, 176.0, 489.5)">r</text><text xml:space="preserve" font-family="Courier,Courier" font-size="32.0" fill="#030000" transform="matrix(1.00, 0.00, -0.00, -1.00, 195.2, 489.5)"> </text><text xml:space="preserve" font-family="Courier,Courier" font-size="32.0" fill="#030000" transform="matrix(1.00, 0.00, -0.00, -1.00, 214.4, 489.5)">b</text><text xml:space="preserve" font-family="Courier,Courier" font-size="32.0" fill="#030000" transform="matrix(1.00, 0.00, -0.00, -1.00, 233.6, 489.5)">u</text><text xml:space="preserve" font-family="Courier,Courier" font-size="32.0" fill="#030000" transform="matrix(1.00, 0.00, -0.00, -1.00, 252.8, 489.5)">i</text><text xml:space="preserve" font-family="Courier,Courier" font-size="32.0" fill="#030000" transform="matrix(1.00, 0.00, -0.00, -1.00, 272.0, 489.5)">l</text><text xml:space="preserve" font-family="Courier,Courier" font-size="32.0" fill="#030000" transform="matrix(1.00, 0.00, -0.00, -1.00, 291.2, 489.5)">d</text><text xml:space="preserve" font-family="Courier,Courier" font-size="32.0" fill="#030000" transform="matrix(1.00, 0.00, -0.00, -1.00, 310.4, 489.5)"> </text><text xml:space="preserve" font-family="Courier,Courier" font-size="32.0" fill="#030000" transform="matrix(1.00, 0.00, -0.00, -1.00, 329.6, 489.5)">-</text><text xml:space="preserve" font-family="Courier,Courier" font-size="32.0" fill="#030000" transform="matrix(1.00, 0.00, -0.00, -1.00, 348.8, 489.5)">t</text><text xml:space="preserve" font-family="Courier,Courier" font-size="32.0" fill="#030000" transform="matrix(1.00, 0.00, -0.00, -1.00, 368.0, 489.5)"> </text><text xml:space="preserve" font-family="Courier,Courier" font-size="32.0" fill="#030000" transform="matrix(1.00, 0.00, -0.00, -1.00, 387.2, 489.5)">c</text><text xml:space="preserve" font-family="Courier,Courier" font-size="32.0" fill="#030000" transform="matrix(1.00, 0.00, -0.00, -1.00, 406.4, 489.5)">h</text><text xml:space="preserve" font-family="Courier,Courier" font-size="32.0" fill="#030000" transform="matrix(1.00, 0.00, -0.00, -1.00, 425.6, 489.5)">u</text><text xml:space="preserve" font-family="Courier,Courier" font-size="32.0" fill="#030000" transform="matrix(1.00, 0.00, -0.00, -1.00, 444.8, 489.5)">c</text><text xml:space="preserve" font-family="Courier,Courier" font-size="32.0" fill="#030000" transform="matrix(1.00, 0.00, -0.00, -1.00, 464.1, 489.5)">k</text><text xml:space="preserve" font-family="Courier,Courier" font-size="32.0" fill="#030000" transform="matrix(1.00, 0.00, -0.00, -1.00, 483.3, 489.5)">s</text><text xml:space="preserve" font-family="Courier,Courier" font-size="32.0" fill="#030000" transform="matrix(1.00, 0.00, -0.00, -1.00, 502.5, 489.5)">a</text><text xml:space="preserve" font-family="Courier,Courier" font-size="32.0" fill="#030000" transform="matrix(1.00, 0.00, -0.00, -1.00, 521.7, 489.5)">y</text><text xml:space="preserve" font-family="Courier,Courier" font-size="32.0" fill="#030000" transform="matrix(1.00, 0.00, -0.00, -1.00, 540.9, 489.5)">:</text><text xml:space="preserve" font-family="Courier,Courier" font-size="32.0" fill="#030000" transform="matrix(1.00, 0.00, -0.00, -1.00, 560.1, 489.5)">l</text><text xml:space="preserve" font-family="Courier,Courier" font-size="32.0" fill="#030000" transform="matrix(1.00, 0.00, -0.00, -1.00, 579.3, 489.5)">a</text><text xml:space="preserve" font-family="Courier,Courier" font-size="32.0" fill="#030000" transform="matrix(1.00, 0.00, -0.00, -1.00, 598.5, 489.5)">t</text><text xml:space="preserve" font-family="Courier,Courier" font-size="32.0" fill="#030000" transform="matrix(1.00, 0.00, -0.00, -1.00, 617.7, 489.5)">e</text><text xml:space="preserve" font-family="Courier,Courier" font-size="32.0" fill="#030000" transform="matrix(1.00, 0.00, -0.00, -1.00, 636.9, 489.5)">s</text><text xml:space="preserve" font-family="Courier,Courier" font-size="32.0" fill="#030000" transform="matrix(1.00, 0.00, -0.00, -1.00, 656.1, 489.5)">t</text><text xml:space="preserve" font-family="Courier,Courier" font-size="32.0" fill="#030000" transform="matrix(1.00, 0.00, -0.00, -1.00, 675.3, 489.5)"> </text><text xml:space="preserve" font-family="Courier,Courier" font-size="32.0" fill="#030000" transform="matrix(1.00, 0.00, -0.00, -1.00, 694.5, 489.5)">&lt;</text><text xml:space="preserve" font-family="Courier,Courier" font-size="32.0" fill="#030000" transform="matrix(1.00, 0.00, -0.00, -1.00, 713.7, 489.5)">c</text><text xml:space="preserve" font-family="Courier,Courier" font-size="32.0" fill="#030000" transform="matrix(1.00, 0.00, -0.00, -1.00, 732.9, 489.5)">o</text><text xml:space="preserve" font-family="Courier,Courier" font-size="32.0" fill="#030000" transform="matrix(1.00, 0.00, -0.00, -1.00, 752.2, 489.5)">n</text><text xml:space="preserve" font-family="Courier,Courier" font-size="32.0" fill="#030000" transform="matrix(1.00, 0.00, -0.00, -1.00, 771.4, 489.5)">t</text><text xml:space="preserve" font-family="Courier,Courier" font-size="32.0" fill="#030000" transform="matrix(1.00, 0.00, -0.00, -1.00, 790.6, 489.5)">e</text><text xml:space="preserve" font-family="Courier,Courier" font-size="32.0" fill="#030000" transform="matrix(1.00, 0.00, -0.00, -1.00, 809.8, 489.5)">x</text><text xml:space="preserve" font-family="Courier,Courier" font-size="32.0" fill="#030000" transform="matrix(1.00, 0.00, -0.00, -1.00, 829.0, 489.5)">t</text><text xml:space="preserve" font-family="Courier,Courier" font-size="32.0" fill="#030000" transform="matrix(1.00, 0.00, -0.00, -1.00, 848.2, 489.5)">_</text><text xml:space="preserve" font-family="Courier,Courier" font-size="32.0" fill="#030000" transform="matrix(1.00, 0.00, -0.00, -1.00, 867.4, 489.5)">d</text><text xml:space="preserve" font-family="Courier,Courier" font-size="32.0" fill="#030000" transform="matrix(1.00, 0.00, -0.00, -1.00, 886.6, 489.5)">i</text><text xml:space="preserve" font-family="Courier,Courier" font-size="32.0" fill="#030000" transform="matrix(1.00, 0.00, -0.00, -1.00, 905.8, 489.5)">r</text><text xml:space="preserve" font-family="Courier,Courier" font-size="32.0" fill="#030000" transform="matrix(1.00, 0.00, -0.00, -1.00, 925.0, 489.5)">&gt;</text><text xml:space="preserve" font-family="ZapfDingbatsITC,Zapf Dingbats" font-size="21.6" fill="#919191" transform="matrix(1.00, 0.00, -0.00, -1.00, 53.6, 332.6)">❖</text><text xml:space="preserve" font-family="Palatino-Roman,Palatino" font-size="36.0" fill="#404040" transform="matrix(1.00, 0.00, -0.00, -1.00, 90.6, 326.8)">-</text><text xml:space="preserve" font-family="Palatino-Roman,Palatino" font-size="36.0" fill="#404040" transform="matrix(1.00, 0.00, -0.00, -1.00, 102.6, 326.8)">t</text><text xml:space="preserve" font-family="Palatino-Roman,Palatino" font-size="36.0" fill="#404040" transform="matrix(1.00, 0.00, -0.00, -1.00, 114.4, 326.8)"> </text><text xml:space="preserve" font-family="Palatino-Roman,Palatino" font-size="36.0" fill="#404040" transform="matrix(1.00, 0.00, -0.00, -1.00, 123.4, 326.8)">s</text><text xml:space="preserve" font-family="Palatino-Roman,Palatino" font-size="36.0" fill="#404040" transform="matrix(1.00, 0.00, -0.00, -1.00, 138.6, 326.8)">p</text><text xml:space="preserve" font-family="Palatino-Roman,Palatino" font-size="36.0" fill="#404040" transform="matrix(1.00, 0.00, -0.00, -1.00, 160.3, 326.8)">e</text><text xml:space="preserve" font-family="Palatino-Roman,Palatino" font-size="36.0" fill="#404040" transform="matrix(1.00, 0.00, -0.00, -1.00, 177.5, 326.8)">c</text><text xml:space="preserve" font-family="Palatino-Roman,Palatino" font-size="36.0" fill="#404040" transform="matrix(1.00, 0.00, -0.00, -1.00, 193.5, 326.8)">i</text><text xml:space="preserve" font-family="Palatino-Roman,Palatino" font-size="36.0" fill="#404040" transform="matrix(1.00, 0.00, -0.00, -1.00, 204.0, 326.8)">ﬁ</text><text xml:space="preserve" font-family="Palatino-Roman,Palatino" font-size="36.0" fill="#404040" transform="matrix(1.00, 0.00, -0.00, -1.00, 225.7, 326.8)">e</text><text xml:space="preserve" font-family="Palatino-Roman,Palatino" font-size="36.0" fill="#404040" transform="matrix(1.00, 0.00, -0.00, -1.00, 243.0, 326.8)">s</text><text xml:space="preserve" font-family="Palatino-Roman,Palatino" font-size="36.0" fill="#404040" transform="matrix(1.00, 0.00, -0.00, -1.00, 258.2, 326.8)"> </text><text xml:space="preserve" font-family="Palatino-Roman,Palatino" font-size="36.0" fill="#404040" transform="matrix(1.00, 0.00, -0.00, -1.00, 267.2, 326.8)">t</text><text xml:space="preserve" font-family="Palatino-Roman,Palatino" font-size="36.0" fill="#404040" transform="matrix(1.00, 0.00, -0.00, -1.00, 279.0, 326.8)">h</text><text xml:space="preserve" font-family="Palatino-Roman,Palatino" font-size="36.0" fill="#404040" transform="matrix(1.00, 0.00, -0.00, -1.00, 299.9, 326.8)">e</text><text xml:space="preserve" font-family="Palatino-Roman,Palatino" font-size="36.0" fill="#404040" transform="matrix(1.00, 0.00, -0.00, -1.00, 317.2, 326.8)"> </text><text xml:space="preserve" font-family="Palatino-Roman,Palatino" font-size="36.0" fill="#404040" transform="matrix(1.00, 0.00, -0.00, -1.00, 326.2, 326.8)">t</text><text xml:space="preserve" font-family="Palatino-Roman,Palatino" font-size="36.0" fill="#404040" transform="matrix(1.00, 0.00, -0.00, -1.00, 337.9, 326.8)">a</text><text xml:space="preserve" font-family="Palatino-Roman,Palatino" font-size="36.0" fill="#404040" transform="matrix(1.00, 0.00, -0.00, -1.00, 355.9, 326.8)">g</text><text xml:space="preserve" font-family="Palatino-Roman,Palatino" font-size="36.0" fill="#404040" transform="matrix(1.00, 0.00, -0.00, -1.00, 375.9, 326.8)"> </text><text xml:space="preserve" font-family="Palatino-Roman,Palatino" font-size="36.0" fill="#404040" transform="matrix(1.00, 0.00, -0.00, -1.00, 384.9, 326.8)">n</text><text xml:space="preserve" font-family="Palatino-Roman,Palatino" font-size="36.0" fill="#404040" transform="matrix(1.00, 0.00, -0.00, -1.00, 405.9, 326.8)">a</text><text xml:space="preserve" font-family="Palatino-Roman,Palatino" font-size="36.0" fill="#404040" transform="matrix(1.00, 0.00, -0.00, -1.00, 423.9, 326.8)">m</text><text xml:space="preserve" font-family="Palatino-Roman,Palatino" font-size="36.0" fill="#404040" transform="matrix(1.00, 0.00, -0.00, -1.00, 455.7, 326.8)">e</text><text xml:space="preserve" font-family="Palatino-Roman,Palatino" font-size="36.0" fill="#404040" transform="matrix(1.00, 0.00, -0.00, -1.00, 472.9, 326.8)"> </text><text xml:space="preserve" font-family="Palatino-Roman,Palatino" font-size="36.0" fill="#404040" transform="matrix(1.00, 0.00, -0.00, -1.00, 481.9, 326.8)">f</text><text xml:space="preserve" font-family="Palatino-Roman,Palatino" font-size="36.0" fill="#404040" transform="matrix(1.00, 0.00, -0.00, -1.00, 493.9, 326.8)">o</text><text xml:space="preserve" font-family="Palatino-Roman,Palatino" font-size="36.0" fill="#404040" transform="matrix(1.00, 0.00, -0.00, -1.00, 513.6, 326.8)">r</text><text xml:space="preserve" font-family="Palatino-Roman,Palatino" font-size="36.0" fill="#404040" transform="matrix(1.00, 0.00, -0.00, -1.00, 527.8, 326.8)"> </text><text xml:space="preserve" font-family="Palatino-Roman,Palatino" font-size="36.0" fill="#404040" transform="matrix(1.00, 0.00, -0.00, -1.00, 536.8, 326.8)">t</text><text xml:space="preserve" font-family="Palatino-Roman,Palatino" font-size="36.0" fill="#404040" transform="matrix(1.00, 0.00, -0.00, -1.00, 548.5, 326.8)">h</text><text xml:space="preserve" font-family="Palatino-Roman,Palatino" font-size="36.0" fill="#404040" transform="matrix(1.00, 0.00, -0.00, -1.00, 569.5, 326.8)">e</text><text xml:space="preserve" font-family="Palatino-Roman,Palatino" font-size="36.0" fill="#404040" transform="matrix(1.00, 0.00, -0.00, -1.00, 586.7, 326.8)"> </text><text xml:space="preserve" font-family="Palatino-Roman,Palatino" font-size="36.0" fill="#404040" transform="matrix(1.00, 0.00, -0.00, -1.00, 595.7, 326.8)">i</text><text xml:space="preserve" font-family="Palatino-Roman,Palatino" font-size="36.0" fill="#404040" transform="matrix(1.00, 0.00, -0.00, -1.00, 606.2, 326.8)">m</text><text xml:space="preserve" font-family="Palatino-Roman,Palatino" font-size="36.0" fill="#404040" transform="matrix(1.00, 0.00, -0.00, -1.00, 638.0, 326.8)">a</text><text xml:space="preserve" font-family="Palatino-Roman,Palatino" font-size="36.0" fill="#404040" transform="matrix(1.00, 0.00, -0.00, -1.00, 656.0, 326.8)">g</text><text xml:space="preserve" font-family="Palatino-Roman,Palatino" font-size="36.0" fill="#404040" transform="matrix(1.00, 0.00, -0.00, -1.00, 676.0, 326.8)">e</text><text xml:space="preserve" font-family="Palatino-Roman,Palatino" font-size="36.0" fill="#404040" transform="matrix(1.00, 0.00, -0.00, -1.00, 693.2, 326.8)">.</text><text xml:space="preserve" font-family="ZapfDingbatsITC,Zapf Dingbats" font-size="21.6" fill="#919191" transform="matrix(1.00, 0.00, -0.00, -1.00, 53.6, 260.6)">❖</text><text xml:space="preserve" font-family="Palatino-Roman,Palatino" font-size="36.0" fill="#404040" transform="matrix(1.00, 0.00, -0.00, -1.00, 90.6, 254.8)">&lt;</text><text xml:space="preserve" font-family="Palatino-Roman,Palatino" font-size="36.0" fill="#404040" transform="matrix(1.00, 0.00, -0.00, -1.00, 112.4, 254.8)">c</text><text xml:space="preserve" font-family="Palatino-Roman,Palatino" font-size="36.0" fill="#404040" transform="matrix(1.00, 0.00, -0.00, -1.00, 128.4, 254.8)">o</text><text xml:space="preserve" font-family="Palatino-Roman,Palatino" font-size="36.0" fill="#404040" transform="matrix(1.00, 0.00, -0.00, -1.00, 148.1, 254.8)">n</text><text xml:space="preserve" font-family="Palatino-Roman,Palatino" font-size="36.0" fill="#404040" transform="matrix(1.00, 0.00, -0.00, -1.00, 169.0, 254.8)">t</text><text xml:space="preserve" font-family="Palatino-Roman,Palatino" font-size="36.0" fill="#404040" transform="matrix(1.00, 0.00, -0.00, -1.00, 180.8, 254.8)">e</text><text xml:space="preserve" font-family="Palatino-Roman,Palatino" font-size="36.0" fill="#404040" transform="matrix(1.00, 0.00, -0.00, -1.00, 198.0, 254.8)">x</text><text xml:space="preserve" font-family="Palatino-Roman,Palatino" font-size="36.0" fill="#404040" transform="matrix(1.00, 0.00, -0.00, -1.00, 216.6, 254.8)">t</text><text xml:space="preserve" font-family="Palatino-Roman,Palatino" font-size="36.0" fill="#404040" transform="matrix(1.00, 0.00, -0.00, -1.00, 228.3, 254.8)">_</text><text xml:space="preserve" font-family="Palatino-Roman,Palatino" font-size="36.0" fill="#404040" transform="matrix(1.00, 0.00, -0.00, -1.00, 246.3, 254.8)">d</text><text xml:space="preserve" font-family="Palatino-Roman,Palatino" font-size="36.0" fill="#404040" transform="matrix(1.00, 0.00, -0.00, -1.00, 268.3, 254.8)">i</text><text xml:space="preserve" font-family="Palatino-Roman,Palatino" font-size="36.0" fill="#404040" transform="matrix(1.00, 0.00, -0.00, -1.00, 278.8, 254.8)">r</text><text xml:space="preserve" font-family="Palatino-Roman,Palatino" font-size="36.0" fill="#404040" transform="matrix(1.00, 0.00, -0.00, -1.00, 293.0, 254.8)">&gt;</text><text xml:space="preserve" font-family="Palatino-Roman,Palatino" font-size="36.0" fill="#404040" transform="matrix(1.00, 0.00, -0.00, -1.00, 314.8, 254.8)"> </text><text xml:space="preserve" font-family="ZapfDingbatsITC,Zapf Dingbats" font-size="21.6" fill="#919191" transform="matrix(1.00, 0.00, -0.00, -1.00, 90.6, 188.6)">❖</text><text xml:space="preserve" font-family="Palatino-Roman,Palatino" font-size="36.0" fill="#404040" transform="matrix(1.00, 0.00, -0.00, -1.00, 127.6, 182.8)">D</text><text xml:space="preserve" font-family="Palatino-Roman,Palatino" font-size="36.0" fill="#404040" transform="matrix(1.00, 0.00, -0.00, -1.00, 155.5, 182.8)">i</text><text xml:space="preserve" font-family="Palatino-Roman,Palatino" font-size="36.0" fill="#404040" transform="matrix(1.00, 0.00, -0.00, -1.00, 166.0, 182.8)">r</text><text xml:space="preserve" font-family="Palatino-Roman,Palatino" font-size="36.0" fill="#404040" transform="matrix(1.00, 0.00, -0.00, -1.00, 179.6, 182.8)">e</text><text xml:space="preserve" font-family="Palatino-Roman,Palatino" font-size="36.0" fill="#404040" transform="matrix(1.00, 0.00, -0.00, -1.00, 196.8, 182.8)">c</text><text xml:space="preserve" font-family="Palatino-Roman,Palatino" font-size="36.0" fill="#404040" transform="matrix(1.00, 0.00, -0.00, -1.00, 212.8, 182.8)">t</text><text xml:space="preserve" font-family="Palatino-Roman,Palatino" font-size="36.0" fill="#404040" transform="matrix(1.00, 0.00, -0.00, -1.00, 224.5, 182.8)">o</text><text xml:space="preserve" font-family="Palatino-Roman,Palatino" font-size="36.0" fill="#404040" transform="matrix(1.00, 0.00, -0.00, -1.00, 244.2, 182.8)">r</text><text xml:space="preserve" font-family="Palatino-Roman,Palatino" font-size="36.0" fill="#404040" transform="matrix(1.00, 0.00, -0.00, -1.00, 258.4, 182.8)">y</text><text xml:space="preserve" font-family="Palatino-Roman,Palatino" font-size="36.0" fill="#404040" transform="matrix(1.00, 0.00, -0.00, -1.00, 278.4, 182.8)"> </text><text xml:space="preserve" font-family="Palatino-Roman,Palatino" font-size="36.0" fill="#404040" transform="matrix(1.00, 0.00, -0.00, -1.00, 287.4, 182.8)">o</text><text xml:space="preserve" font-family="Palatino-Roman,Palatino" font-size="36.0" fill="#404040" transform="matrix(1.00, 0.00, -0.00, -1.00, 307.1, 182.8)">f</text><text xml:space="preserve" font-family="Palatino-Roman,Palatino" font-size="36.0" fill="#404040" transform="matrix(1.00, 0.00, -0.00, -1.00, 319.1, 182.8)"> </text><text xml:space="preserve" font-family="Palatino-Roman,Palatino" font-size="36.0" fill="#404040" transform="matrix(1.00, 0.00, -0.00, -1.00, 328.1, 182.8)">D</text><text xml:space="preserve" font-family="Palatino-Roman,Palatino" font-size="36.0" fill="#404040" transform="matrix(1.00, 0.00, -0.00, -1.00, 355.9, 182.8)">o</text><text xml:space="preserve" font-family="Palatino-Roman,Palatino" font-size="36.0" fill="#404040" transform="matrix(1.00, 0.00, -0.00, -1.00, 375.6, 182.8)">c</text><text xml:space="preserve" font-family="Palatino-Roman,Palatino" font-size="36.0" fill="#404040" transform="matrix(1.00, 0.00, -0.00, -1.00, 391.5, 182.8)">k</text><text xml:space="preserve" font-family="Palatino-Roman,Palatino" font-size="36.0" fill="#404040" transform="matrix(1.00, 0.00, -0.00, -1.00, 411.6, 182.8)">e</text><text xml:space="preserve" font-family="Palatino-Roman,Palatino" font-size="36.0" fill="#404040" transform="matrix(1.00, 0.00, -0.00, -1.00, 428.8, 182.8)">r</text><text xml:space="preserve" font-family="Palatino-Roman,Palatino" font-size="36.0" fill="#404040" transform="matrix(1.00, 0.00, -0.00, -1.00, 443.0, 182.8)">ﬁ</text><text xml:space="preserve" font-family="Palatino-Roman,Palatino" font-size="36.0" fill="#404040" transform="matrix(1.00, 0.00, -0.00, -1.00, 464.8, 182.8)">l</text><text xml:space="preserve" font-family="Palatino-Roman,Palatino" font-size="36.0" fill="#404040" transform="matrix(1.00, 0.00, -0.00, -1.00, 475.3, 182.8)">e</text><text xml:space="preserve" font-family="Palatino-Roman,Palatino" font-size="36.0" fill="#404040" transform="matrix(1.00, 0.00, -0.00, -1.00, 492.5, 182.8)"> </text><text xml:space="preserve" font-family="Palatino-Roman,Palatino" font-size="36.0" fill="#404040" transform="matrix(1.00, 0.00, -0.00, -1.00, 501.5, 182.8)">a</text><text xml:space="preserve" font-family="Palatino-Roman,Palatino" font-size="36.0" fill="#404040" transform="matrix(1.00, 0.00, -0.00, -1.00, 519.5, 182.8)">n</text><text xml:space="preserve" font-family="Palatino-Roman,Palatino" font-size="36.0" fill="#404040" transform="matrix(1.00, 0.00, -0.00, -1.00, 540.5, 182.8)">d</text><text xml:space="preserve" font-family="Palatino-Roman,Palatino" font-size="36.0" fill="#404040" transform="matrix(1.00, 0.00, -0.00, -1.00, 562.5, 182.8)"> </text><text xml:space="preserve" font-family="Palatino-Roman,Palatino" font-size="36.0" fill="#404040" transform="matrix(1.00, 0.00, -0.00, -1.00, 571.5, 182.8)">b</text><text xml:space="preserve" font-family="Palatino-Roman,Palatino" font-size="36.0" fill="#404040" transform="matrix(1.00, 0.00, -0.00, -1.00, 591.4, 182.8)">u</text><text xml:space="preserve" font-family="Palatino-Roman,Palatino" font-size="36.0" fill="#404040" transform="matrix(1.00, 0.00, -0.00, -1.00, 613.1, 182.8)">i</text><text xml:space="preserve" font-family="Palatino-Roman,Palatino" font-size="36.0" fill="#404040" transform="matrix(1.00, 0.00, -0.00, -1.00, 623.6, 182.8)">l</text><text xml:space="preserve" font-family="Palatino-Roman,Palatino" font-size="36.0" fill="#404040" transform="matrix(1.00, 0.00, -0.00, -1.00, 634.0, 182.8)">d</text><text xml:space="preserve" font-family="Palatino-Roman,Palatino" font-size="36.0" fill="#404040" transform="matrix(1.00, 0.00, -0.00, -1.00, 656.0, 182.8)"> </text><text xml:space="preserve" font-family="Palatino-Roman,Palatino" font-size="36.0" fill="#404040" transform="matrix(1.00, 0.00, -0.00, -1.00, 665.0, 182.8)">c</text><text xml:space="preserve" font-family="Palatino-Roman,Palatino" font-size="36.0" fill="#404040" transform="matrix(1.00, 0.00, -0.00, -1.00, 681.0, 182.8)">o</text><text xml:space="preserve" font-family="Palatino-Roman,Palatino" font-size="36.0" fill="#404040" transform="matrix(1.00, 0.00, -0.00, -1.00, 700.6, 182.8)">n</text><text xml:space="preserve" font-family="Palatino-Roman,Palatino" font-size="36.0" fill="#404040" transform="matrix(1.00, 0.00, -0.00, -1.00, 721.6, 182.8)">t</text><text xml:space="preserve" font-family="Palatino-Roman,Palatino" font-size="36.0" fill="#404040" transform="matrix(1.00, 0.00, -0.00, -1.00, 733.3, 182.8)">e</text><text xml:space="preserve" font-family="Palatino-Roman,Palatino" font-size="36.0" fill="#404040" transform="matrix(1.00, 0.00, -0.00, -1.00, 750.6, 182.8)">x</text><text xml:space="preserve" font-family="Palatino-Roman,Palatino" font-size="36.0" fill="#404040" transform="matrix(1.00, 0.00, -0.00, -1.00, 769.2, 182.8)">t</text></g></svg>