<?xml version="1.0" encoding="UTF-8" standalone="no"?><svg xmlns="http://www.w3.org/2000/svg" xmlns:xlink="http://www.w3.org/1999/xlink" clip-rule="evenodd" stroke-miterlimit="10" viewBox="0 0 1024 768"><desc>SVG generated by Keynote</desc><defs></defs><g transform="matrix(1.00, 0.00, -0.00, -1.00, 0.0, 768.0)"><g><clipPath id="clip0x618000aa4e60"><path d="M 0.0 768.0 L 1024.0 768.0 L 1024.0 0.0 L 0.0 0.0 Z M 0.0 768.0 "></path></clipPath><g clip-path="url(#clip0x618000aa4e60)"><image xlink:href="../../524A64CF-8346-4612-AEB3-13D03E94EA2C/assets/8A97F831B44C6305266B84CB83B0E791.jpeg" width="2048.00" height="1536.00" transform="matrix(0.50, 0.00, -0.00, -0.50, 0.0, 768.0)"></image></g></g><text xml:space="preserve" font-family="BodoniSvtyTwoITCTT-Book,Bodoni 72" font-size="70.0" fill="#D93D2A" transform="matrix(1.00, 0.00, -0.00, -1.00, 91.0, 359.6)">W</text><text xml:space="preserve" font-family="BodoniSvtyTwoITCTT-Book,Bodoni 72" font-size="70.0" fill="#D93D2A" transform="matrix(1.00, 0.00, -0.00, -1.00, 154.8, 359.6)">h</text><text xml:space="preserve" font-family="BodoniSvtyTwoITCTT-Book,Bodoni 72" font-size="70.0" fill="#D93D2A" transform="matrix(1.00, 0.00, -0.00, -1.00, 188.2, 359.6)">a</text><text xml:space="preserve" font-family="BodoniSvtyTwoITCTT-Book,Bodoni 72" font-size="70.0" fill="#D93D2A" transform="matrix(1.00, 0.00, -0.00, -1.00, 216.0, 359.6)">t</text><text xml:space="preserve" font-family="BodoniSvtyTwoITCTT-Book,Bodoni 72" font-size="70.0" fill="#D93D2A" transform="matrix(1.00, 0.00, -0.00, -1.00, 235.9, 359.6)"> </text><text xml:space="preserve" font-family="BodoniSvtyTwoITCTT-Book,Bodoni 72" font-size="70.0" fill="#D93D2A" transform="matrix(1.00, 0.00, -0.00, -1.00, 248.9, 359.6)">c</text><text xml:space="preserve" font-family="BodoniSvtyTwoITCTT-Book,Bodoni 72" font-size="70.0" fill="#D93D2A" transform="matrix(1.00, 0.00, -0.00, -1.00, 277.5, 359.6)">a</text><text xml:space="preserve" font-family="BodoniSvtyTwoITCTT-Book,Bodoni 72" font-size="70.0" fill="#D93D2A" transform="matrix(1.00, 0.00, -0.00, -1.00, 305.3, 359.6)">n</text><text xml:space="preserve" font-family="BodoniSvtyTwoITCTT-Book,Bodoni 72" font-size="70.0" fill="#D93D2A" transform="matrix(1.00, 0.00, -0.00, -1.00, 339.5, 359.6)"> </text><text xml:space="preserve" font-family="BodoniSvtyTwoITCTT-Book,Bodoni 72" font-size="70.0" fill="#D93D2A" transform="matrix(1.00, 0.00, -0.00, -1.00, 352.5, 359.6)">w</text><text xml:space="preserve" font-family="BodoniSvtyTwoITCTT-Book,Bodoni 72" font-size="70.0" fill="#D93D2A" transform="matrix(1.00, 0.00, -0.00, -1.00, 394.5, 359.6)">e</text><text xml:space="preserve" font-family="BodoniSvtyTwoITCTT-Book,Bodoni 72" font-size="70.0" fill="#D93D2A" transform="matrix(1.00, 0.00, -0.00, -1.00, 424.6, 359.6)"> </text><text xml:space="preserve" font-family="BodoniSvtyTwoITCTT-Book,Bodoni 72" font-size="70.0" fill="#D93D2A" transform="matrix(1.00, 0.00, -0.00, -1.00, 437.6, 359.6)">u</text><text xml:space="preserve" font-family="BodoniSvtyTwoITCTT-Book,Bodoni 72" font-size="70.0" fill="#D93D2A" transform="matrix(1.00, 0.00, -0.00, -1.00, 471.9, 359.6)">s</text><text xml:space="preserve" font-family="BodoniSvtyTwoITCTT-Book,Bodoni 72" font-size="70.0" fill="#D93D2A" transform="matrix(1.00, 0.00, -0.00, -1.00, 497.2, 359.6)">e</text><text xml:space="preserve" font-family="BodoniSvtyTwoITCTT-Book,Bodoni 72" font-size="70.0" fill="#D93D2A" transform="matrix(1.00, 0.00, -0.00, -1.00, 527.3, 359.6)"> </text><text xml:space="preserve" font-family="BodoniSvtyTwoITCTT-Book,Bodoni 72" font-size="70.0" fill="#D93D2A" transform="matrix(1.00, 0.00, -0.00, -1.00, 540.4, 359.6)">c</text><text xml:space="preserve" font-family="BodoniSvtyTwoITCTT-Book,Bodoni 72" font-size="70.0" fill="#D93D2A" transform="matrix(1.00, 0.00, -0.00, -1.00, 569.0, 359.6)">o</text><text xml:space="preserve" font-family="BodoniSvtyTwoITCTT-Book,Bodoni 72" font-size="70.0" fill="#D93D2A" transform="matrix(1.00, 0.00, -0.00, -1.00, 602.6, 359.6)">n</text><text xml:space="preserve" font-family="BodoniSvtyTwoITCTT-Book,Bodoni 72" font-size="70.0" fill="#D93D2A" transform="matrix(1.00, 0.00, -0.00, -1.00, 636.8, 359.6)">t</text><text xml:space="preserve" font-family="BodoniSvtyTwoITCTT-Book,Bodoni 72" font-size="70.0" fill="#D93D2A" transform="matrix(1.00, 0.00, -0.00, -1.00, 656.7, 359.6)">a</text><text xml:space="preserve" font-family="BodoniSvtyTwoITCTT-Book,Bodoni 72" font-size="70.0" fill="#D93D2A" transform="matrix(1.00, 0.00, -0.00, -1.00, 684.5, 359.6)">i</text><text xml:space="preserve" font-family="BodoniSvtyTwoITCTT-Book,Bodoni 72" font-size="70.0" fill="#D93D2A" transform="matrix(1.00, 0.00, -0.00, -1.00, 702.1, 359.6)">n</text><text xml:space="preserve" font-family="BodoniSvtyTwoITCTT-Book,Bodoni 72" font-size="70.0" fill="#D93D2A" transform="matrix(1.00, 0.00, -0.00, -1.00, 736.3, 359.6)">e</text><text xml:space="preserve" font-family="BodoniSvtyTwoITCTT-Book,Bodoni 72" font-size="70.0" fill="#D93D2A" transform="matrix(1.00, 0.00, -0.00, -1.00, 766.4, 359.6)">r</text><text xml:space="preserve" font-family="BodoniSvtyTwoITCTT-Book,Bodoni 72" font-size="70.0" fill="#D93D2A" transform="matrix(1.00, 0.00, -0.00, -1.00, 790.0, 359.6)">s</text><text xml:space="preserve" font-family="BodoniSvtyTwoITCTT-Book,Bodoni 72" font-size="70.0" fill="#D93D2A" transform="matrix(1.00, 0.00, -0.00, -1.00, 815.4, 359.6)"> </text><text xml:space="preserve" font-family="BodoniSvtyTwoITCTT-Book,Bodoni 72" font-size="70.0" fill="#D93D2A" transform="matrix(1.00, 0.00, -0.00, -1.00, 828.4, 359.6)">f</text><text xml:space="preserve" font-family="BodoniSvtyTwoITCTT-Book,Bodoni 72" font-size="70.0" fill="#D93D2A" transform="matrix(1.00, 0.00, -0.00, -1.00, 846.9, 359.6)">o</text><text xml:space="preserve" font-family="BodoniSvtyTwoITCTT-Book,Bodoni 72" font-size="70.0" fill="#D93D2A" transform="matrix(1.00, 0.00, -0.00, -1.00, 880.5, 359.6)">r</text><text xml:space="preserve" font-family="BodoniSvtyTwoITCTT-Book,Bodoni 72" font-size="70.0" fill="#D93D2A" transform="matrix(1.00, 0.00, -0.00, -1.00, 904.1, 359.6)">?</text></g></svg>