<?xml version="1.0" encoding="UTF-8" standalone="no"?><svg xmlns="http://www.w3.org/2000/svg" xmlns:xlink="http://www.w3.org/1999/xlink" clip-rule="evenodd" stroke-miterlimit="10" viewBox="0 0 1024 768"><desc>SVG generated by Keynote</desc><defs></defs><g transform="matrix(1.00, 0.00, -0.00, -1.00, 0.0, 768.0)"><g><clipPath id="clip0x610001eb5780"><path d="M 0.0 768.0 L 1024.0 768.0 L 1024.0 0.0 L 0.0 0.0 Z M 0.0 768.0 "></path></clipPath><g clip-path="url(#clip0x610001eb5780)"><image xlink:href="../../524A64CF-8346-4612-AEB3-13D03E94EA2C/assets/8A97F831B44C6305266B84CB83B0E791.jpeg" width="2048.00" height="1536.00" transform="matrix(0.50, 0.00, -0.00, -0.50, 0.0, 768.0)"></image></g></g><g opacity="0.30"><g><clipPath id="clip0x6180018b7640"><path d="M 39.0 595.0 L 986.0 595.0 L 986.0 599.0 L 39.0 599.0 Z M 39.0 595.0 "></path></clipPath><g clip-path="url(#clip0x6180018b7640)"><path d="M 0.0 0.5 L 944.7 0.5 L 944.7 0.5 L 0.0 0.5 Z M 0.0 0.0 " fill="none" stroke="#434343" stroke-width="1.00" transform="matrix(1.00, 0.00, 0.00, -1.00, 40.0, 597.0)"></path></g></g></g><g opacity="0.30"><g><clipPath id="clip0x6180018b7340"><path d="M 39.0 716.0 L 986.0 716.0 L 986.0 720.0 L 39.0 720.0 Z M 39.0 716.0 "></path></clipPath><g clip-path="url(#clip0x6180018b7340)"><path d="M 0.0 0.5 L 944.7 0.5 L 944.7 0.5 L 0.0 0.5 Z M 0.0 0.0 " fill="none" stroke="#434343" stroke-width="1.00" transform="matrix(1.00, 0.00, 0.00, -1.00, 40.0, 718.0)"></path></g></g></g><text xml:space="preserve" font-family="BodoniSvtyTwoITCTT-Book,Bodoni 72" font-size="61.6" fill="#D93D2A" transform="matrix(1.00, 0.00, -0.00, -1.00, 46.4, 636.4)">R</text><text xml:space="preserve" font-family="BodoniSvtyTwoITCTT-Book,Bodoni 72" font-size="61.6" fill="#D93D2A" transform="matrix(1.00, 0.00, -0.00, -1.00, 82.6, 636.4)">u</text><text xml:space="preserve" font-family="BodoniSvtyTwoITCTT-Book,Bodoni 72" font-size="61.6" fill="#D93D2A" transform="matrix(1.00, 0.00, -0.00, -1.00, 112.8, 636.4)">n</text><text xml:space="preserve" font-family="BodoniSvtyTwoITCTT-Book,Bodoni 72" font-size="61.6" fill="#D93D2A" transform="matrix(1.00, 0.00, -0.00, -1.00, 143.0, 636.4)">n</text><text xml:space="preserve" font-family="BodoniSvtyTwoITCTT-Book,Bodoni 72" font-size="61.6" fill="#D93D2A" transform="matrix(1.00, 0.00, -0.00, -1.00, 173.1, 636.4)">i</text><text xml:space="preserve" font-family="BodoniSvtyTwoITCTT-Book,Bodoni 72" font-size="61.6" fill="#D93D2A" transform="matrix(1.00, 0.00, -0.00, -1.00, 188.5, 636.4)">n</text><text xml:space="preserve" font-family="BodoniSvtyTwoITCTT-Book,Bodoni 72" font-size="61.6" fill="#D93D2A" transform="matrix(1.00, 0.00, -0.00, -1.00, 218.7, 636.4)">g</text><text xml:space="preserve" font-family="BodoniSvtyTwoITCTT-Book,Bodoni 72" font-size="61.6" fill="#D93D2A" transform="matrix(1.00, 0.00, -0.00, -1.00, 247.4, 636.4)"> </text><text xml:space="preserve" font-family="BodoniSvtyTwoITCTT-Book,Bodoni 72" font-size="61.6" fill="#D93D2A" transform="matrix(1.00, 0.00, -0.00, -1.00, 258.9, 636.4)">O</text><text xml:space="preserve" font-family="BodoniSvtyTwoITCTT-Book,Bodoni 72" font-size="61.6" fill="#D93D2A" transform="matrix(1.00, 0.00, -0.00, -1.00, 303.2, 636.4)">u</text><text xml:space="preserve" font-family="BodoniSvtyTwoITCTT-Book,Bodoni 72" font-size="61.6" fill="#D93D2A" transform="matrix(1.00, 0.00, -0.00, -1.00, 333.4, 636.4)">r</text><text xml:space="preserve" font-family="BodoniSvtyTwoITCTT-Book,Bodoni 72" font-size="61.6" fill="#D93D2A" transform="matrix(1.00, 0.00, -0.00, -1.00, 354.2, 636.4)"> </text><text xml:space="preserve" font-family="BodoniSvtyTwoITCTT-Book,Bodoni 72" font-size="61.6" fill="#D93D2A" transform="matrix(1.00, 0.00, -0.00, -1.00, 365.7, 636.4)">W</text><text xml:space="preserve" font-family="BodoniSvtyTwoITCTT-Book,Bodoni 72" font-size="61.6" fill="#D93D2A" transform="matrix(1.00, 0.00, -0.00, -1.00, 421.9, 636.4)">e</text><text xml:space="preserve" font-family="BodoniSvtyTwoITCTT-Book,Bodoni 72" font-size="61.6" fill="#D93D2A" transform="matrix(1.00, 0.00, -0.00, -1.00, 448.4, 636.4)">b</text><text xml:space="preserve" font-family="BodoniSvtyTwoITCTT-Book,Bodoni 72" font-size="61.6" fill="#D93D2A" transform="matrix(1.00, 0.00, -0.00, -1.00, 478.0, 636.4)">s</text><text xml:space="preserve" font-family="BodoniSvtyTwoITCTT-Book,Bodoni 72" font-size="61.6" fill="#D93D2A" transform="matrix(1.00, 0.00, -0.00, -1.00, 500.3, 636.4)">e</text><text xml:space="preserve" font-family="BodoniSvtyTwoITCTT-Book,Bodoni 72" font-size="61.6" fill="#D93D2A" transform="matrix(1.00, 0.00, -0.00, -1.00, 526.8, 636.4)">r</text><text xml:space="preserve" font-family="BodoniSvtyTwoITCTT-Book,Bodoni 72" font-size="61.6" fill="#D93D2A" transform="matrix(1.00, 0.00, -0.00, -1.00, 547.6, 636.4)">v</text><text xml:space="preserve" font-family="BodoniSvtyTwoITCTT-Book,Bodoni 72" font-size="61.6" fill="#D93D2A" transform="matrix(1.00, 0.00, -0.00, -1.00, 571.3, 636.4)">i</text><text xml:space="preserve" font-family="BodoniSvtyTwoITCTT-Book,Bodoni 72" font-size="61.6" fill="#D93D2A" transform="matrix(1.00, 0.00, -0.00, -1.00, 586.7, 636.4)">c</text><text xml:space="preserve" font-family="BodoniSvtyTwoITCTT-Book,Bodoni 72" font-size="61.6" fill="#D93D2A" transform="matrix(1.00, 0.00, -0.00, -1.00, 611.9, 636.4)">e</text><text xml:space="preserve" font-family="BodoniSvtyTwoITCTT-Book,Bodoni 72" font-size="61.6" fill="#D93D2A" transform="matrix(1.00, 0.00, -0.00, -1.00, 638.4, 636.4)"> </text><text xml:space="preserve" font-family="BodoniSvtyTwoITCTT-Book,Bodoni 72" font-size="61.6" fill="#D93D2A" transform="matrix(1.00, 0.00, -0.00, -1.00, 649.9, 636.4)">i</text><text xml:space="preserve" font-family="BodoniSvtyTwoITCTT-Book,Bodoni 72" font-size="61.6" fill="#D93D2A" transform="matrix(1.00, 0.00, -0.00, -1.00, 665.3, 636.4)">n</text><text xml:space="preserve" font-family="BodoniSvtyTwoITCTT-Book,Bodoni 72" font-size="61.6" fill="#D93D2A" transform="matrix(1.00, 0.00, -0.00, -1.00, 695.4, 636.4)"> </text><text xml:space="preserve" font-family="BodoniSvtyTwoITCTT-Book,Bodoni 72" font-size="61.6" fill="#D93D2A" transform="matrix(1.00, 0.00, -0.00, -1.00, 706.9, 636.4)">a</text><text xml:space="preserve" font-family="BodoniSvtyTwoITCTT-Book,Bodoni 72" font-size="61.6" fill="#D93D2A" transform="matrix(1.00, 0.00, -0.00, -1.00, 731.4, 636.4)"> </text><text xml:space="preserve" font-family="BodoniSvtyTwoITCTT-Book,Bodoni 72" font-size="61.6" fill="#D93D2A" transform="matrix(1.00, 0.00, -0.00, -1.00, 742.8, 636.4)">C</text><text xml:space="preserve" font-family="BodoniSvtyTwoITCTT-Book,Bodoni 72" font-size="61.6" fill="#D93D2A" transform="matrix(1.00, 0.00, -0.00, -1.00, 783.0, 636.4)">o</text><text xml:space="preserve" font-family="BodoniSvtyTwoITCTT-Book,Bodoni 72" font-size="61.6" fill="#D93D2A" transform="matrix(1.00, 0.00, -0.00, -1.00, 812.6, 636.4)">n</text><text xml:space="preserve" font-family="BodoniSvtyTwoITCTT-Book,Bodoni 72" font-size="61.6" fill="#D93D2A" transform="matrix(1.00, 0.00, -0.00, -1.00, 842.7, 636.4)">t</text><text xml:space="preserve" font-family="BodoniSvtyTwoITCTT-Book,Bodoni 72" font-size="61.6" fill="#D93D2A" transform="matrix(1.00, 0.00, -0.00, -1.00, 860.2, 636.4)">a</text><text xml:space="preserve" font-family="BodoniSvtyTwoITCTT-Book,Bodoni 72" font-size="61.6" fill="#D93D2A" transform="matrix(1.00, 0.00, -0.00, -1.00, 884.7, 636.4)">i</text><text xml:space="preserve" font-family="BodoniSvtyTwoITCTT-Book,Bodoni 72" font-size="61.6" fill="#D93D2A" transform="matrix(1.00, 0.00, -0.00, -1.00, 900.1, 636.4)">n</text><text xml:space="preserve" font-family="BodoniSvtyTwoITCTT-Book,Bodoni 72" font-size="61.6" fill="#D93D2A" transform="matrix(1.00, 0.00, -0.00, -1.00, 930.3, 636.4)">e</text><text xml:space="preserve" font-family="BodoniSvtyTwoITCTT-Book,Bodoni 72" font-size="61.6" fill="#D93D2A" transform="matrix(1.00, 0.00, -0.00, -1.00, 956.8, 636.4)">r</text><text xml:space="preserve" font-family="Courier,Courier" font-size="36.0" fill="#030000" transform="matrix(1.00, 0.00, -0.00, -1.00, 58.3, 476.0)">d</text><text xml:space="preserve" font-family="Courier,Courier" font-size="36.0" fill="#030000" transform="matrix(1.00, 0.00, -0.00, -1.00, 79.9, 476.0)">o</text><text xml:space="preserve" font-family="Courier,Courier" font-size="36.0" fill="#030000" transform="matrix(1.00, 0.00, -0.00, -1.00, 101.5, 476.0)">c</text><text xml:space="preserve" font-family="Courier,Courier" font-size="36.0" fill="#030000" transform="matrix(1.00, 0.00, -0.00, -1.00, 123.1, 476.0)">k</text><text xml:space="preserve" font-family="Courier,Courier" font-size="36.0" fill="#030000" transform="matrix(1.00, 0.00, -0.00, -1.00, 144.8, 476.0)">e</text><text xml:space="preserve" font-family="Courier,Courier" font-size="36.0" fill="#030000" transform="matrix(1.00, 0.00, -0.00, -1.00, 166.4, 476.0)">r</text><text xml:space="preserve" font-family="Courier,Courier" font-size="36.0" fill="#030000" transform="matrix(1.00, 0.00, -0.00, -1.00, 188.0, 476.0)"> </text><text xml:space="preserve" font-family="Courier,Courier" font-size="36.0" fill="#030000" transform="matrix(1.00, 0.00, -0.00, -1.00, 209.6, 476.0)">r</text><text xml:space="preserve" font-family="Courier,Courier" font-size="36.0" fill="#030000" transform="matrix(1.00, 0.00, -0.00, -1.00, 231.2, 476.0)">u</text><text xml:space="preserve" font-family="Courier,Courier" font-size="36.0" fill="#030000" transform="matrix(1.00, 0.00, -0.00, -1.00, 252.8, 476.0)">n</text><text xml:space="preserve" font-family="Courier,Courier" font-size="36.0" fill="#030000" transform="matrix(1.00, 0.00, -0.00, -1.00, 274.4, 476.0)"> </text><text xml:space="preserve" font-family="Courier,Courier" font-size="36.0" fill="#030000" transform="matrix(1.00, 0.00, -0.00, -1.00, 296.0, 476.0)">-</text><text xml:space="preserve" font-family="Courier,Courier" font-size="36.0" fill="#030000" transform="matrix(1.00, 0.00, -0.00, -1.00, 317.6, 476.0)">d</text><text xml:space="preserve" font-family="Courier,Courier" font-size="36.0" fill="#030000" transform="matrix(1.00, 0.00, -0.00, -1.00, 339.2, 476.0)"> </text><text xml:space="preserve" font-family="Courier,Courier" font-size="36.0" fill="#030000" transform="matrix(1.00, 0.00, -0.00, -1.00, 360.8, 476.0)">-</text><text xml:space="preserve" font-family="Courier,Courier" font-size="36.0" fill="#030000" transform="matrix(1.00, 0.00, -0.00, -1.00, 382.4, 476.0)">p</text><text xml:space="preserve" font-family="Courier,Courier" font-size="36.0" fill="#030000" transform="matrix(1.00, 0.00, -0.00, -1.00, 404.0, 476.0)"> </text><text xml:space="preserve" font-family="Courier,Courier" font-size="36.0" fill="#030000" transform="matrix(1.00, 0.00, -0.00, -1.00, 425.6, 476.0)">8</text><text xml:space="preserve" font-family="Courier,Courier" font-size="36.0" fill="#030000" transform="matrix(1.00, 0.00, -0.00, -1.00, 447.3, 476.0)">0</text><text xml:space="preserve" font-family="Courier,Courier" font-size="36.0" fill="#030000" transform="matrix(1.00, 0.00, -0.00, -1.00, 468.9, 476.0)">8</text><text xml:space="preserve" font-family="Courier,Courier" font-size="36.0" fill="#030000" transform="matrix(1.00, 0.00, -0.00, -1.00, 490.5, 476.0)">0</text><text xml:space="preserve" font-family="Courier,Courier" font-size="36.0" fill="#030000" transform="matrix(1.00, 0.00, -0.00, -1.00, 512.1, 476.0)">:</text><text xml:space="preserve" font-family="Courier,Courier" font-size="36.0" fill="#030000" transform="matrix(1.00, 0.00, -0.00, -1.00, 533.7, 476.0)">4</text><text xml:space="preserve" font-family="Courier,Courier" font-size="36.0" fill="#030000" transform="matrix(1.00, 0.00, -0.00, -1.00, 555.3, 476.0)">5</text><text xml:space="preserve" font-family="Courier,Courier" font-size="36.0" fill="#030000" transform="matrix(1.00, 0.00, -0.00, -1.00, 576.9, 476.0)">6</text><text xml:space="preserve" font-family="Courier,Courier" font-size="36.0" fill="#030000" transform="matrix(1.00, 0.00, -0.00, -1.00, 598.5, 476.0)">7</text><text xml:space="preserve" font-family="Courier,Courier" font-size="36.0" fill="#030000" transform="matrix(1.00, 0.00, -0.00, -1.00, 620.1, 476.0)"> </text><text xml:space="preserve" font-family="Courier,Courier" font-size="36.0" fill="#030000" transform="matrix(1.00, 0.00, -0.00, -1.00, 641.7, 476.0)">c</text><text xml:space="preserve" font-family="Courier,Courier" font-size="36.0" fill="#030000" transform="matrix(1.00, 0.00, -0.00, -1.00, 663.3, 476.0)">h</text><text xml:space="preserve" font-family="Courier,Courier" font-size="36.0" fill="#030000" transform="matrix(1.00, 0.00, -0.00, -1.00, 684.9, 476.0)">u</text><text xml:space="preserve" font-family="Courier,Courier" font-size="36.0" fill="#030000" transform="matrix(1.00, 0.00, -0.00, -1.00, 706.5, 476.0)">c</text><text xml:space="preserve" font-family="Courier,Courier" font-size="36.0" fill="#030000" transform="matrix(1.00, 0.00, -0.00, -1.00, 728.1, 476.0)">k</text><text xml:space="preserve" font-family="Courier,Courier" font-size="36.0" fill="#030000" transform="matrix(1.00, 0.00, -0.00, -1.00, 749.8, 476.0)">s</text><text xml:space="preserve" font-family="Courier,Courier" font-size="36.0" fill="#030000" transform="matrix(1.00, 0.00, -0.00, -1.00, 771.4, 476.0)">a</text><text xml:space="preserve" font-family="Courier,Courier" font-size="36.0" fill="#030000" transform="matrix(1.00, 0.00, -0.00, -1.00, 793.0, 476.0)">y</text><text xml:space="preserve" font-family="Courier,Courier" font-size="36.0" fill="#030000" transform="matrix(1.00, 0.00, -0.00, -1.00, 814.6, 476.0)">:</text><text xml:space="preserve" font-family="Courier,Courier" font-size="36.0" fill="#030000" transform="matrix(1.00, 0.00, -0.00, -1.00, 836.2, 476.0)">l</text><text xml:space="preserve" font-family="Courier,Courier" font-size="36.0" fill="#030000" transform="matrix(1.00, 0.00, -0.00, -1.00, 857.8, 476.0)">a</text><text xml:space="preserve" font-family="Courier,Courier" font-size="36.0" fill="#030000" transform="matrix(1.00, 0.00, -0.00, -1.00, 879.4, 476.0)">t</text><text xml:space="preserve" font-family="Courier,Courier" font-size="36.0" fill="#030000" transform="matrix(1.00, 0.00, -0.00, -1.00, 901.0, 476.0)">e</text><text xml:space="preserve" font-family="Courier,Courier" font-size="36.0" fill="#030000" transform="matrix(1.00, 0.00, -0.00, -1.00, 922.6, 476.0)">s</text><text xml:space="preserve" font-family="Courier,Courier" font-size="36.0" fill="#030000" transform="matrix(1.00, 0.00, -0.00, -1.00, 944.2, 476.0)">t</text><text xml:space="preserve" font-family="ZapfDingbatsITC,Zapf Dingbats" font-size="21.6" fill="#919191" transform="matrix(1.00, 0.00, -0.00, -1.00, 53.6, 344.6)">❖</text><text xml:space="preserve" font-family="Palatino-Roman,Palatino" font-size="36.0" fill="#404040" transform="matrix(1.00, 0.00, -0.00, -1.00, 90.6, 338.8)">-</text><text xml:space="preserve" font-family="Palatino-Roman,Palatino" font-size="36.0" fill="#404040" transform="matrix(1.00, 0.00, -0.00, -1.00, 102.6, 338.8)">d</text><text xml:space="preserve" font-family="Palatino-Roman,Palatino" font-size="36.0" fill="#404040" transform="matrix(1.00, 0.00, -0.00, -1.00, 124.6, 338.8)"> </text><text xml:space="preserve" font-family="Palatino-Roman,Palatino" font-size="36.0" fill="#404040" transform="matrix(1.00, 0.00, -0.00, -1.00, 133.6, 338.8)">t</text><text xml:space="preserve" font-family="Palatino-Roman,Palatino" font-size="36.0" fill="#404040" transform="matrix(1.00, 0.00, -0.00, -1.00, 145.3, 338.8)">o</text><text xml:space="preserve" font-family="Palatino-Roman,Palatino" font-size="36.0" fill="#404040" transform="matrix(1.00, 0.00, -0.00, -1.00, 165.0, 338.8)"> </text><text xml:space="preserve" font-family="Palatino-Roman,Palatino" font-size="36.0" fill="#404040" transform="matrix(1.00, 0.00, -0.00, -1.00, 174.0, 338.8)">r</text><text xml:space="preserve" font-family="Palatino-Roman,Palatino" font-size="36.0" fill="#404040" transform="matrix(1.00, 0.00, -0.00, -1.00, 187.9, 338.8)">u</text><text xml:space="preserve" font-family="Palatino-Roman,Palatino" font-size="36.0" fill="#404040" transform="matrix(1.00, 0.00, -0.00, -1.00, 209.6, 338.8)">n</text><text xml:space="preserve" font-family="Palatino-Roman,Palatino" font-size="36.0" fill="#404040" transform="matrix(1.00, 0.00, -0.00, -1.00, 230.6, 338.8)"> </text><text xml:space="preserve" font-family="Palatino-Roman,Palatino" font-size="36.0" fill="#404040" transform="matrix(1.00, 0.00, -0.00, -1.00, 239.6, 338.8)">d</text><text xml:space="preserve" font-family="Palatino-Roman,Palatino" font-size="36.0" fill="#404040" transform="matrix(1.00, 0.00, -0.00, -1.00, 261.6, 338.8)">e</text><text xml:space="preserve" font-family="Palatino-Roman,Palatino" font-size="36.0" fill="#404040" transform="matrix(1.00, 0.00, -0.00, -1.00, 278.8, 338.8)">t</text><text xml:space="preserve" font-family="Palatino-Roman,Palatino" font-size="36.0" fill="#404040" transform="matrix(1.00, 0.00, -0.00, -1.00, 290.6, 338.8)">a</text><text xml:space="preserve" font-family="Palatino-Roman,Palatino" font-size="36.0" fill="#404040" transform="matrix(1.00, 0.00, -0.00, -1.00, 308.6, 338.8)">c</text><text xml:space="preserve" font-family="Palatino-Roman,Palatino" font-size="36.0" fill="#404040" transform="matrix(1.00, 0.00, -0.00, -1.00, 324.5, 338.8)">h</text><text xml:space="preserve" font-family="Palatino-Roman,Palatino" font-size="36.0" fill="#404040" transform="matrix(1.00, 0.00, -0.00, -1.00, 345.5, 338.8)">e</text><text xml:space="preserve" font-family="Palatino-Roman,Palatino" font-size="36.0" fill="#404040" transform="matrix(1.00, 0.00, -0.00, -1.00, 362.7, 338.8)">d</text><text xml:space="preserve" font-family="ZapfDingbatsITC,Zapf Dingbats" font-size="21.6" fill="#919191" transform="matrix(1.00, 0.00, -0.00, -1.00, 53.6, 272.6)">❖</text><text xml:space="preserve" font-family="Palatino-Roman,Palatino" font-size="36.0" fill="#404040" transform="matrix(1.00, 0.00, -0.00, -1.00, 90.6, 266.8)">-</text><text xml:space="preserve" font-family="Palatino-Roman,Palatino" font-size="36.0" fill="#404040" transform="matrix(1.00, 0.00, -0.00, -1.00, 102.6, 266.8)">p</text><text xml:space="preserve" font-family="Palatino-Roman,Palatino" font-size="36.0" fill="#404040" transform="matrix(1.00, 0.00, -0.00, -1.00, 124.3, 266.8)"> </text><text xml:space="preserve" font-family="Palatino-Roman,Palatino" font-size="36.0" fill="#404040" transform="matrix(1.00, 0.00, -0.00, -1.00, 133.3, 266.8)">s</text><text xml:space="preserve" font-family="Palatino-Roman,Palatino" font-size="36.0" fill="#404040" transform="matrix(1.00, 0.00, -0.00, -1.00, 148.5, 266.8)">p</text><text xml:space="preserve" font-family="Palatino-Roman,Palatino" font-size="36.0" fill="#404040" transform="matrix(1.00, 0.00, -0.00, -1.00, 170.2, 266.8)">e</text><text xml:space="preserve" font-family="Palatino-Roman,Palatino" font-size="36.0" fill="#404040" transform="matrix(1.00, 0.00, -0.00, -1.00, 187.4, 266.8)">c</text><text xml:space="preserve" font-family="Palatino-Roman,Palatino" font-size="36.0" fill="#404040" transform="matrix(1.00, 0.00, -0.00, -1.00, 203.4, 266.8)">i</text><text xml:space="preserve" font-family="Palatino-Roman,Palatino" font-size="36.0" fill="#404040" transform="matrix(1.00, 0.00, -0.00, -1.00, 213.8, 266.8)">ﬁ</text><text xml:space="preserve" font-family="Palatino-Roman,Palatino" font-size="36.0" fill="#404040" transform="matrix(1.00, 0.00, -0.00, -1.00, 235.6, 266.8)">e</text><text xml:space="preserve" font-family="Palatino-Roman,Palatino" font-size="36.0" fill="#404040" transform="matrix(1.00, 0.00, -0.00, -1.00, 252.9, 266.8)">s</text><text xml:space="preserve" font-family="Palatino-Roman,Palatino" font-size="36.0" fill="#404040" transform="matrix(1.00, 0.00, -0.00, -1.00, 268.1, 266.8)"> </text><text xml:space="preserve" font-family="Palatino-Roman,Palatino" font-size="36.0" fill="#404040" transform="matrix(1.00, 0.00, -0.00, -1.00, 277.1, 266.8)">o</text><text xml:space="preserve" font-family="Palatino-Roman,Palatino" font-size="36.0" fill="#404040" transform="matrix(1.00, 0.00, -0.00, -1.00, 296.8, 266.8)">u</text><text xml:space="preserve" font-family="Palatino-Roman,Palatino" font-size="36.0" fill="#404040" transform="matrix(1.00, 0.00, -0.00, -1.00, 318.5, 266.8)">r</text><text xml:space="preserve" font-family="Palatino-Roman,Palatino" font-size="36.0" fill="#404040" transform="matrix(1.00, 0.00, -0.00, -1.00, 332.7, 266.8)"> </text><text xml:space="preserve" font-family="Palatino-Roman,Palatino" font-size="36.0" fill="#404040" transform="matrix(1.00, 0.00, -0.00, -1.00, 341.7, 266.8)">p</text><text xml:space="preserve" font-family="Palatino-Roman,Palatino" font-size="36.0" fill="#404040" transform="matrix(1.00, 0.00, -0.00, -1.00, 363.3, 266.8)">o</text><text xml:space="preserve" font-family="Palatino-Roman,Palatino" font-size="36.0" fill="#404040" transform="matrix(1.00, 0.00, -0.00, -1.00, 383.0, 266.8)">r</text><text xml:space="preserve" font-family="Palatino-Roman,Palatino" font-size="36.0" fill="#404040" transform="matrix(1.00, 0.00, -0.00, -1.00, 397.2, 266.8)">t</text><text xml:space="preserve" font-family="Palatino-Roman,Palatino" font-size="36.0" fill="#404040" transform="matrix(1.00, 0.00, -0.00, -1.00, 409.0, 266.8)">s</text><text xml:space="preserve" font-family="Palatino-Roman,Palatino" font-size="36.0" fill="#404040" transform="matrix(1.00, 0.00, -0.00, -1.00, 424.2, 266.8)"> </text><text xml:space="preserve" font-family="Palatino-Roman,Palatino" font-size="36.0" fill="#404040" transform="matrix(1.00, 0.00, -0.00, -1.00, 433.2, 266.8)">i</text><text xml:space="preserve" font-family="Palatino-Roman,Palatino" font-size="36.0" fill="#404040" transform="matrix(1.00, 0.00, -0.00, -1.00, 443.7, 266.8)">n</text><text xml:space="preserve" font-family="Palatino-Roman,Palatino" font-size="36.0" fill="#404040" transform="matrix(1.00, 0.00, -0.00, -1.00, 464.6, 266.8)">t</text><text xml:space="preserve" font-family="Palatino-Roman,Palatino" font-size="36.0" fill="#404040" transform="matrix(1.00, 0.00, -0.00, -1.00, 476.4, 266.8)">e</text><text xml:space="preserve" font-family="Palatino-Roman,Palatino" font-size="36.0" fill="#404040" transform="matrix(1.00, 0.00, -0.00, -1.00, 493.6, 266.8)">r</text><text xml:space="preserve" font-family="Palatino-Roman,Palatino" font-size="36.0" fill="#404040" transform="matrix(1.00, 0.00, -0.00, -1.00, 507.9, 266.8)">n</text><text xml:space="preserve" font-family="Palatino-Roman,Palatino" font-size="36.0" fill="#404040" transform="matrix(1.00, 0.00, -0.00, -1.00, 528.8, 266.8)">a</text><text xml:space="preserve" font-family="Palatino-Roman,Palatino" font-size="36.0" fill="#404040" transform="matrix(1.00, 0.00, -0.00, -1.00, 546.8, 266.8)">l</text><text xml:space="preserve" font-family="Palatino-Roman,Palatino" font-size="36.0" fill="#404040" transform="matrix(1.00, 0.00, -0.00, -1.00, 557.3, 266.8)"> </text><text xml:space="preserve" font-family="Palatino-Roman,Palatino" font-size="36.0" fill="#404040" transform="matrix(1.00, 0.00, -0.00, -1.00, 566.3, 266.8)">t</text><text xml:space="preserve" font-family="Palatino-Roman,Palatino" font-size="36.0" fill="#404040" transform="matrix(1.00, 0.00, -0.00, -1.00, 578.0, 266.8)">o</text><text xml:space="preserve" font-family="Palatino-Roman,Palatino" font-size="36.0" fill="#404040" transform="matrix(1.00, 0.00, -0.00, -1.00, 597.7, 266.8)"> </text><text xml:space="preserve" font-family="Palatino-Roman,Palatino" font-size="36.0" fill="#404040" transform="matrix(1.00, 0.00, -0.00, -1.00, 606.7, 266.8)">t</text><text xml:space="preserve" font-family="Palatino-Roman,Palatino" font-size="36.0" fill="#404040" transform="matrix(1.00, 0.00, -0.00, -1.00, 618.4, 266.8)">h</text><text xml:space="preserve" font-family="Palatino-Roman,Palatino" font-size="36.0" fill="#404040" transform="matrix(1.00, 0.00, -0.00, -1.00, 639.4, 266.8)">e</text><text xml:space="preserve" font-family="Palatino-Roman,Palatino" font-size="36.0" fill="#404040" transform="matrix(1.00, 0.00, -0.00, -1.00, 656.6, 266.8)"> </text><text xml:space="preserve" font-family="Palatino-Roman,Palatino" font-size="36.0" fill="#404040" transform="matrix(1.00, 0.00, -0.00, -1.00, 665.6, 266.8)">c</text><text xml:space="preserve" font-family="Palatino-Roman,Palatino" font-size="36.0" fill="#404040" transform="matrix(1.00, 0.00, -0.00, -1.00, 681.6, 266.8)">o</text><text xml:space="preserve" font-family="Palatino-Roman,Palatino" font-size="36.0" fill="#404040" transform="matrix(1.00, 0.00, -0.00, -1.00, 701.2, 266.8)">n</text><text xml:space="preserve" font-family="Palatino-Roman,Palatino" font-size="36.0" fill="#404040" transform="matrix(1.00, 0.00, -0.00, -1.00, 722.2, 266.8)">t</text><text xml:space="preserve" font-family="Palatino-Roman,Palatino" font-size="36.0" fill="#404040" transform="matrix(1.00, 0.00, -0.00, -1.00, 733.9, 266.8)">a</text><text xml:space="preserve" font-family="Palatino-Roman,Palatino" font-size="36.0" fill="#404040" transform="matrix(1.00, 0.00, -0.00, -1.00, 751.9, 266.8)">i</text><text xml:space="preserve" font-family="Palatino-Roman,Palatino" font-size="36.0" fill="#404040" transform="matrix(1.00, 0.00, -0.00, -1.00, 762.4, 266.8)">n</text><text xml:space="preserve" font-family="Palatino-Roman,Palatino" font-size="36.0" fill="#404040" transform="matrix(1.00, 0.00, -0.00, -1.00, 783.4, 266.8)">e</text><text xml:space="preserve" font-family="Palatino-Roman,Palatino" font-size="36.0" fill="#404040" transform="matrix(1.00, 0.00, -0.00, -1.00, 800.6, 266.8)">r</text><text xml:space="preserve" font-family="Palatino-Roman,Palatino" font-size="36.0" fill="#404040" transform="matrix(1.00, 0.00, -0.00, -1.00, 814.8, 266.8)"> </text><text xml:space="preserve" font-family="Palatino-Roman,Palatino" font-size="36.0" fill="#404040" transform="matrix(1.00, 0.00, -0.00, -1.00, 823.8, 266.8)">(</text><text xml:space="preserve" font-family="Palatino-Roman,Palatino" font-size="36.0" fill="#404040" transform="matrix(1.00, 0.00, -0.00, -1.00, 835.8, 266.8)">r</text><text xml:space="preserve" font-family="Palatino-Roman,Palatino" font-size="36.0" fill="#404040" transform="matrix(1.00, 0.00, -0.00, -1.00, 850.1, 266.8)">i</text><text xml:space="preserve" font-family="Palatino-Roman,Palatino" font-size="36.0" fill="#404040" transform="matrix(1.00, 0.00, -0.00, -1.00, 860.5, 266.8)">g</text><text xml:space="preserve" font-family="Palatino-Roman,Palatino" font-size="36.0" fill="#404040" transform="matrix(1.00, 0.00, -0.00, -1.00, 880.6, 266.8)">h</text><text xml:space="preserve" font-family="Palatino-Roman,Palatino" font-size="36.0" fill="#404040" transform="matrix(1.00, 0.00, -0.00, -1.00, 901.5, 266.8)">t</text><text xml:space="preserve" font-family="Palatino-Roman,Palatino" font-size="36.0" fill="#404040" transform="matrix(1.00, 0.00, -0.00, -1.00, 913.3, 266.8)"> </text><text xml:space="preserve" font-family="Palatino-Roman,Palatino" font-size="36.0" fill="#404040" transform="matrix(1.00, 0.00, -0.00, -1.00, 922.3, 266.8)">o</text><text xml:space="preserve" font-family="Palatino-Roman,Palatino" font-size="36.0" fill="#404040" transform="matrix(1.00, 0.00, -0.00, -1.00, 941.9, 266.8)">f</text><text xml:space="preserve" font-family="Palatino-Roman,Palatino" font-size="36.0" fill="#404040" transform="matrix(1.00, 0.00, -0.00, -1.00, 953.9, 266.8)"> </text><text xml:space="preserve" font-family="Palatino-Roman,Palatino" font-size="36.0" fill="#404040" transform="matrix(1.00, 0.00, -0.00, -1.00, 90.6, 218.8)">t</text><text xml:space="preserve" font-family="Palatino-Roman,Palatino" font-size="36.0" fill="#404040" transform="matrix(1.00, 0.00, -0.00, -1.00, 102.4, 218.8)">h</text><text xml:space="preserve" font-family="Palatino-Roman,Palatino" font-size="36.0" fill="#404040" transform="matrix(1.00, 0.00, -0.00, -1.00, 123.3, 218.8)">e</text><text xml:space="preserve" font-family="Palatino-Roman,Palatino" font-size="36.0" fill="#404040" transform="matrix(1.00, 0.00, -0.00, -1.00, 140.6, 218.8)"> </text><text xml:space="preserve" font-family="Palatino-Roman,Palatino" font-size="36.0" fill="#404040" transform="matrix(1.00, 0.00, -0.00, -1.00, 149.6, 218.8)">c</text><text xml:space="preserve" font-family="Palatino-Roman,Palatino" font-size="36.0" fill="#404040" transform="matrix(1.00, 0.00, -0.00, -1.00, 165.5, 218.8)">o</text><text xml:space="preserve" font-family="Palatino-Roman,Palatino" font-size="36.0" fill="#404040" transform="matrix(1.00, 0.00, -0.00, -1.00, 185.2, 218.8)">l</text><text xml:space="preserve" font-family="Palatino-Roman,Palatino" font-size="36.0" fill="#404040" transform="matrix(1.00, 0.00, -0.00, -1.00, 195.7, 218.8)">o</text><text xml:space="preserve" font-family="Palatino-Roman,Palatino" font-size="36.0" fill="#404040" transform="matrix(1.00, 0.00, -0.00, -1.00, 215.3, 218.8)">n</text><text xml:space="preserve" font-family="Palatino-Roman,Palatino" font-size="36.0" fill="#404040" transform="matrix(1.00, 0.00, -0.00, -1.00, 236.3, 218.8)">)</text><text xml:space="preserve" font-family="Palatino-Roman,Palatino" font-size="36.0" fill="#404040" transform="matrix(1.00, 0.00, -0.00, -1.00, 248.3, 218.8)"> </text><text xml:space="preserve" font-family="Palatino-Roman,Palatino" font-size="36.0" fill="#404040" transform="matrix(1.00, 0.00, -0.00, -1.00, 257.3, 218.8)">a</text><text xml:space="preserve" font-family="Palatino-Roman,Palatino" font-size="36.0" fill="#404040" transform="matrix(1.00, 0.00, -0.00, -1.00, 275.3, 218.8)">n</text><text xml:space="preserve" font-family="Palatino-Roman,Palatino" font-size="36.0" fill="#404040" transform="matrix(1.00, 0.00, -0.00, -1.00, 296.2, 218.8)">d</text><text xml:space="preserve" font-family="Palatino-Roman,Palatino" font-size="36.0" fill="#404040" transform="matrix(1.00, 0.00, -0.00, -1.00, 318.2, 218.8)"> </text><text xml:space="preserve" font-family="Palatino-Roman,Palatino" font-size="36.0" fill="#404040" transform="matrix(1.00, 0.00, -0.00, -1.00, 327.2, 218.8)">e</text><text xml:space="preserve" font-family="Palatino-Roman,Palatino" font-size="36.0" fill="#404040" transform="matrix(1.00, 0.00, -0.00, -1.00, 344.4, 218.8)">x</text><text xml:space="preserve" font-family="Palatino-Roman,Palatino" font-size="36.0" fill="#404040" transform="matrix(1.00, 0.00, -0.00, -1.00, 363.0, 218.8)">t</text><text xml:space="preserve" font-family="Palatino-Roman,Palatino" font-size="36.0" fill="#404040" transform="matrix(1.00, 0.00, -0.00, -1.00, 374.8, 218.8)">e</text><text xml:space="preserve" font-family="Palatino-Roman,Palatino" font-size="36.0" fill="#404040" transform="matrix(1.00, 0.00, -0.00, -1.00, 392.0, 218.8)">r</text><text xml:space="preserve" font-family="Palatino-Roman,Palatino" font-size="36.0" fill="#404040" transform="matrix(1.00, 0.00, -0.00, -1.00, 406.2, 218.8)">n</text><text xml:space="preserve" font-family="Palatino-Roman,Palatino" font-size="36.0" fill="#404040" transform="matrix(1.00, 0.00, -0.00, -1.00, 427.2, 218.8)">a</text><text xml:space="preserve" font-family="Palatino-Roman,Palatino" font-size="36.0" fill="#404040" transform="matrix(1.00, 0.00, -0.00, -1.00, 445.2, 218.8)">l</text><text xml:space="preserve" font-family="Palatino-Roman,Palatino" font-size="36.0" fill="#404040" transform="matrix(1.00, 0.00, -0.00, -1.00, 455.7, 218.8)">l</text><text xml:space="preserve" font-family="Palatino-Roman,Palatino" font-size="36.0" fill="#404040" transform="matrix(1.00, 0.00, -0.00, -1.00, 466.2, 218.8)">y</text><text xml:space="preserve" font-family="Palatino-Roman,Palatino" font-size="36.0" fill="#404040" transform="matrix(1.00, 0.00, -0.00, -1.00, 486.2, 218.8)"> </text><text xml:space="preserve" font-family="Palatino-Roman,Palatino" font-size="36.0" fill="#404040" transform="matrix(1.00, 0.00, -0.00, -1.00, 495.2, 218.8)">(</text><text xml:space="preserve" font-family="Palatino-Roman,Palatino" font-size="36.0" fill="#404040" transform="matrix(1.00, 0.00, -0.00, -1.00, 507.2, 218.8)">l</text><text xml:space="preserve" font-family="Palatino-Roman,Palatino" font-size="36.0" fill="#404040" transform="matrix(1.00, 0.00, -0.00, -1.00, 517.6, 218.8)">e</text><text xml:space="preserve" font-family="Palatino-Roman,Palatino" font-size="36.0" fill="#404040" transform="matrix(1.00, 0.00, -0.00, -1.00, 534.9, 218.8)">f</text><text xml:space="preserve" font-family="Palatino-Roman,Palatino" font-size="36.0" fill="#404040" transform="matrix(1.00, 0.00, -0.00, -1.00, 546.9, 218.8)">t</text><text xml:space="preserve" font-family="Palatino-Roman,Palatino" font-size="36.0" fill="#404040" transform="matrix(1.00, 0.00, -0.00, -1.00, 558.6, 218.8)"> </text><text xml:space="preserve" font-family="Palatino-Roman,Palatino" font-size="36.0" fill="#404040" transform="matrix(1.00, 0.00, -0.00, -1.00, 567.6, 218.8)">o</text><text xml:space="preserve" font-family="Palatino-Roman,Palatino" font-size="36.0" fill="#404040" transform="matrix(1.00, 0.00, -0.00, -1.00, 587.3, 218.8)">f</text><text xml:space="preserve" font-family="Palatino-Roman,Palatino" font-size="36.0" fill="#404040" transform="matrix(1.00, 0.00, -0.00, -1.00, 599.3, 218.8)"> </text><text xml:space="preserve" font-family="Palatino-Roman,Palatino" font-size="36.0" fill="#404040" transform="matrix(1.00, 0.00, -0.00, -1.00, 608.3, 218.8)">t</text><text xml:space="preserve" font-family="Palatino-Roman,Palatino" font-size="36.0" fill="#404040" transform="matrix(1.00, 0.00, -0.00, -1.00, 620.0, 218.8)">h</text><text xml:space="preserve" font-family="Palatino-Roman,Palatino" font-size="36.0" fill="#404040" transform="matrix(1.00, 0.00, -0.00, -1.00, 641.0, 218.8)">e</text><text xml:space="preserve" font-family="Palatino-Roman,Palatino" font-size="36.0" fill="#404040" transform="matrix(1.00, 0.00, -0.00, -1.00, 658.2, 218.8)"> </text><text xml:space="preserve" font-family="Palatino-Roman,Palatino" font-size="36.0" fill="#404040" transform="matrix(1.00, 0.00, -0.00, -1.00, 667.2, 218.8)">c</text><text xml:space="preserve" font-family="Palatino-Roman,Palatino" font-size="36.0" fill="#404040" transform="matrix(1.00, 0.00, -0.00, -1.00, 683.2, 218.8)">o</text><text xml:space="preserve" font-family="Palatino-Roman,Palatino" font-size="36.0" fill="#404040" transform="matrix(1.00, 0.00, -0.00, -1.00, 702.8, 218.8)">l</text><text xml:space="preserve" font-family="Palatino-Roman,Palatino" font-size="36.0" fill="#404040" transform="matrix(1.00, 0.00, -0.00, -1.00, 713.3, 218.8)">o</text><text xml:space="preserve" font-family="Palatino-Roman,Palatino" font-size="36.0" fill="#404040" transform="matrix(1.00, 0.00, -0.00, -1.00, 733.0, 218.8)">n</text><text xml:space="preserve" font-family="Palatino-Roman,Palatino" font-size="36.0" fill="#404040" transform="matrix(1.00, 0.00, -0.00, -1.00, 753.9, 218.8)">)</text><text xml:space="preserve" font-family="Palatino-Roman,Palatino" font-size="36.0" fill="#404040" transform="matrix(1.00, 0.00, -0.00, -1.00, 765.9, 218.8)">.</text><text xml:space="preserve" font-family="ZapfDingbatsITC,Zapf Dingbats" font-size="21.6" fill="#919191" transform="matrix(1.00, 0.00, -0.00, -1.00, 53.6, 152.6)">❖</text><text xml:space="preserve" font-family="Palatino-Roman,Palatino" font-size="36.0" fill="#404040" transform="matrix(1.00, 0.00, -0.00, -1.00, 90.6, 146.8)">“</text><text xml:space="preserve" font-family="Palatino-Roman,Palatino" font-size="36.0" fill="#404040" transform="matrix(1.00, 0.00, -0.00, -1.00, 108.6, 146.8)">c</text><text xml:space="preserve" font-family="Palatino-Roman,Palatino" font-size="36.0" fill="#404040" transform="matrix(1.00, 0.00, -0.00, -1.00, 124.6, 146.8)">h</text><text xml:space="preserve" font-family="Palatino-Roman,Palatino" font-size="36.0" fill="#404040" transform="matrix(1.00, 0.00, -0.00, -1.00, 145.6, 146.8)">u</text><text xml:space="preserve" font-family="Palatino-Roman,Palatino" font-size="36.0" fill="#404040" transform="matrix(1.00, 0.00, -0.00, -1.00, 167.3, 146.8)">c</text><text xml:space="preserve" font-family="Palatino-Roman,Palatino" font-size="36.0" fill="#404040" transform="matrix(1.00, 0.00, -0.00, -1.00, 183.2, 146.8)">k</text><text xml:space="preserve" font-family="Palatino-Roman,Palatino" font-size="36.0" fill="#404040" transform="matrix(1.00, 0.00, -0.00, -1.00, 203.3, 146.8)">s</text><text xml:space="preserve" font-family="Palatino-Roman,Palatino" font-size="36.0" fill="#404040" transform="matrix(1.00, 0.00, -0.00, -1.00, 218.5, 146.8)">a</text><text xml:space="preserve" font-family="Palatino-Roman,Palatino" font-size="36.0" fill="#404040" transform="matrix(1.00, 0.00, -0.00, -1.00, 236.5, 146.8)">y</text><text xml:space="preserve" font-family="Palatino-Roman,Palatino" font-size="36.0" fill="#404040" transform="matrix(1.00, 0.00, -0.00, -1.00, 256.5, 146.8)">”</text><text xml:space="preserve" font-family="Palatino-Roman,Palatino" font-size="36.0" fill="#404040" transform="matrix(1.00, 0.00, -0.00, -1.00, 274.5, 146.8)"> </text><text xml:space="preserve" font-family="Palatino-Roman,Palatino" font-size="36.0" fill="#404040" transform="matrix(1.00, 0.00, -0.00, -1.00, 283.5, 146.8)">i</text><text xml:space="preserve" font-family="Palatino-Roman,Palatino" font-size="36.0" fill="#404040" transform="matrix(1.00, 0.00, -0.00, -1.00, 294.0, 146.8)">s</text><text xml:space="preserve" font-family="Palatino-Roman,Palatino" font-size="36.0" fill="#404040" transform="matrix(1.00, 0.00, -0.00, -1.00, 309.3, 146.8)"> </text><text xml:space="preserve" font-family="Palatino-Roman,Palatino" font-size="36.0" fill="#404040" transform="matrix(1.00, 0.00, -0.00, -1.00, 318.3, 146.8)">o</text><text xml:space="preserve" font-family="Palatino-Roman,Palatino" font-size="36.0" fill="#404040" transform="matrix(1.00, 0.00, -0.00, -1.00, 337.9, 146.8)">u</text><text xml:space="preserve" font-family="Palatino-Roman,Palatino" font-size="36.0" fill="#404040" transform="matrix(1.00, 0.00, -0.00, -1.00, 359.6, 146.8)">r</text><text xml:space="preserve" font-family="Palatino-Roman,Palatino" font-size="36.0" fill="#404040" transform="matrix(1.00, 0.00, -0.00, -1.00, 373.8, 146.8)"> </text><text xml:space="preserve" font-family="Palatino-Roman,Palatino" font-size="36.0" fill="#404040" transform="matrix(1.00, 0.00, -0.00, -1.00, 382.8, 146.8)">t</text><text xml:space="preserve" font-family="Palatino-Roman,Palatino" font-size="36.0" fill="#404040" transform="matrix(1.00, 0.00, -0.00, -1.00, 394.6, 146.8)">a</text><text xml:space="preserve" font-family="Palatino-Roman,Palatino" font-size="36.0" fill="#404040" transform="matrix(1.00, 0.00, -0.00, -1.00, 412.6, 146.8)">g</text><text xml:space="preserve" font-family="Palatino-Roman,Palatino" font-size="36.0" fill="#404040" transform="matrix(1.00, 0.00, -0.00, -1.00, 432.6, 146.8)"> </text><text xml:space="preserve" font-family="Palatino-Roman,Palatino" font-size="36.0" fill="#404040" transform="matrix(1.00, 0.00, -0.00, -1.00, 441.6, 146.8)">n</text><text xml:space="preserve" font-family="Palatino-Roman,Palatino" font-size="36.0" fill="#404040" transform="matrix(1.00, 0.00, -0.00, -1.00, 462.6, 146.8)">a</text><text xml:space="preserve" font-family="Palatino-Roman,Palatino" font-size="36.0" fill="#404040" transform="matrix(1.00, 0.00, -0.00, -1.00, 480.6, 146.8)">m</text><text xml:space="preserve" font-family="Palatino-Roman,Palatino" font-size="36.0" fill="#404040" transform="matrix(1.00, 0.00, -0.00, -1.00, 512.4, 146.8)">e</text></g></svg>