<?xml version="1.0" encoding="UTF-8" standalone="no"?><svg xmlns="http://www.w3.org/2000/svg" xmlns:xlink="http://www.w3.org/1999/xlink" clip-rule="evenodd" stroke-miterlimit="10" viewBox="0 0 1024 768"><desc>SVG generated by Keynote</desc><defs><pattern id="E04F6D89-71C0-44B8-9729-C8F54CF6CF25" patternUnits="userSpaceOnUse" width="580" height="580" viewBox="0 0 580 580"><image xlink:href="../../76B6F3B3-FE62-45A3-BC10-8C0E82E2DC18/assets/8727E46A978D0F4CEC9239881F818550.png" width="580.00" height="580.00"></image></pattern></defs><g transform="matrix(1.00, 0.00, -0.00, -1.00, 0.0, 768.0)"><g><clipPath id="clip0x6080016b86c0"><path d="M 0.0 768.0 L 1024.0 768.0 L 1024.0 0.0 L 0.0 0.0 Z M 0.0 768.0 "></path></clipPath><g clip-path="url(#clip0x6080016b86c0)"><image xlink:href="../../524A64CF-8346-4612-AEB3-13D03E94EA2C/assets/8A97F831B44C6305266B84CB83B0E791.jpeg" width="2048.00" height="1536.00" transform="matrix(0.50, 0.00, -0.00, -0.50, 0.0, 768.0)"></image></g></g><g><clipPath id="clip0x6180014bdbe0"><path d="M 0.0 768.0 L 1024.0 768.0 L 1024.0 0.0 L 0.0 0.0 Z M 0.0 768.0 "></path></clipPath><g clip-path="url(#clip0x6180014bdbe0)"><image xlink:href="../../C74598BB-A51A-422A-94DD-9A5BAA23B3D0/assets/189116061D2B8EA61EF88C7239DA5CB4.png" width="856.00" height="648.00" transform="matrix(1.20, 0.00, -0.00, -1.20, 0.0, 772.0)"></image></g></g><g><clipPath id="clip0x6180018a21c0"><path d="M 479.0 736.0 L 915.0 736.0 L 915.0 618.0 L 479.0 618.0 Z M 478.9 736.0 "></path></clipPath><g clip-path="url(#clip0x6180018a21c0)"><path d="M 479.0 618.0 L 915.0 618.0 L 915.0 736.0 L 479.0 736.0 Z M 479.0 618.0 " fill="url(#E04F6D89-71C0-44B8-9729-C8F54CF6CF25)"></path></g></g><path d="M 0.0 0.0 L 424.0 0.0 L 427.0 0.0 " fill="none" stroke="#E0E0E0" stroke-width="6.00" transform="matrix(-0.88, -0.47, -0.47, 0.88, 473.6, 676.1)"></path><path d="M 94.5 485.8 L 79.1 463.9 L 105.9 464.7 Z M 94.5 485.8 " fill="#E0E0E0"></path><text xml:space="preserve" font-family="Palatino-Roman,Palatino" font-size="24.0" fill="#E5EDEA" transform="matrix(1.00, 0.00, -0.00, -1.00, 513.1, 699.5)">C</text><text xml:space="preserve" font-family="Palatino-Roman,Palatino" font-size="24.0" fill="#E5EDEA" transform="matrix(1.00, 0.00, -0.00, -1.00, 530.1, 699.5)">O</text><text xml:space="preserve" font-family="Palatino-Roman,Palatino" font-size="24.0" fill="#E5EDEA" transform="matrix(1.00, 0.00, -0.00, -1.00, 549.0, 699.5)">P</text><text xml:space="preserve" font-family="Palatino-Roman,Palatino" font-size="24.0" fill="#E5EDEA" transform="matrix(1.00, 0.00, -0.00, -1.00, 563.5, 699.5)">Y</text><text xml:space="preserve" font-family="Palatino-Roman,Palatino" font-size="24.0" fill="#E5EDEA" transform="matrix(1.00, 0.00, -0.00, -1.00, 579.1, 699.5)"> </text><text xml:space="preserve" font-family="Palatino-Roman,Palatino" font-size="24.0" fill="#E5EDEA" transform="matrix(1.00, 0.00, -0.00, -1.00, 585.1, 699.5)">c</text><text xml:space="preserve" font-family="Palatino-Roman,Palatino" font-size="24.0" fill="#E5EDEA" transform="matrix(1.00, 0.00, -0.00, -1.00, 595.7, 699.5)">o</text><text xml:space="preserve" font-family="Palatino-Roman,Palatino" font-size="24.0" fill="#E5EDEA" transform="matrix(1.00, 0.00, -0.00, -1.00, 608.8, 699.5)">p</text><text xml:space="preserve" font-family="Palatino-Roman,Palatino" font-size="24.0" fill="#E5EDEA" transform="matrix(1.00, 0.00, -0.00, -1.00, 623.2, 699.5)">i</text><text xml:space="preserve" font-family="Palatino-Roman,Palatino" font-size="24.0" fill="#E5EDEA" transform="matrix(1.00, 0.00, -0.00, -1.00, 630.2, 699.5)">e</text><text xml:space="preserve" font-family="Palatino-Roman,Palatino" font-size="24.0" fill="#E5EDEA" transform="matrix(1.00, 0.00, -0.00, -1.00, 641.7, 699.5)">s</text><text xml:space="preserve" font-family="Palatino-Roman,Palatino" font-size="24.0" fill="#E5EDEA" transform="matrix(1.00, 0.00, -0.00, -1.00, 651.9, 699.5)"> </text><text xml:space="preserve" font-family="Palatino-Roman,Palatino" font-size="24.0" fill="#E5EDEA" transform="matrix(1.00, 0.00, -0.00, -1.00, 657.9, 699.5)">ï¬</text><text xml:space="preserve" font-family="Palatino-Roman,Palatino" font-size="24.0" fill="#E5EDEA" transform="matrix(1.00, 0.00, -0.00, -1.00, 672.4, 699.5)">l</text><text xml:space="preserve" font-family="Palatino-Roman,Palatino" font-size="24.0" fill="#E5EDEA" transform="matrix(1.00, 0.00, -0.00, -1.00, 679.4, 699.5)">e</text><text xml:space="preserve" font-family="Palatino-Roman,Palatino" font-size="24.0" fill="#E5EDEA" transform="matrix(1.00, 0.00, -0.00, -1.00, 690.9, 699.5)">s</text><text xml:space="preserve" font-family="Palatino-Roman,Palatino" font-size="24.0" fill="#E5EDEA" transform="matrix(1.00, 0.00, -0.00, -1.00, 701.1, 699.5)"> </text><text xml:space="preserve" font-family="Palatino-Roman,Palatino" font-size="24.0" fill="#E5EDEA" transform="matrix(1.00, 0.00, -0.00, -1.00, 707.1, 699.5)">f</text><text xml:space="preserve" font-family="Palatino-Roman,Palatino" font-size="24.0" fill="#E5EDEA" transform="matrix(1.00, 0.00, -0.00, -1.00, 715.0, 699.5)">r</text><text xml:space="preserve" font-family="Palatino-Roman,Palatino" font-size="24.0" fill="#E5EDEA" transform="matrix(1.00, 0.00, -0.00, -1.00, 724.1, 699.5)">o</text><text xml:space="preserve" font-family="Palatino-Roman,Palatino" font-size="24.0" fill="#E5EDEA" transform="matrix(1.00, 0.00, -0.00, -1.00, 737.2, 699.5)">m</text><text xml:space="preserve" font-family="Palatino-Roman,Palatino" font-size="24.0" fill="#E5EDEA" transform="matrix(1.00, 0.00, -0.00, -1.00, 758.4, 699.5)"> </text><text xml:space="preserve" font-family="Palatino-Roman,Palatino" font-size="24.0" fill="#E5EDEA" transform="matrix(1.00, 0.00, -0.00, -1.00, 764.4, 699.5)">t</text><text xml:space="preserve" font-family="Palatino-Roman,Palatino" font-size="24.0" fill="#E5EDEA" transform="matrix(1.00, 0.00, -0.00, -1.00, 772.2, 699.5)">h</text><text xml:space="preserve" font-family="Palatino-Roman,Palatino" font-size="24.0" fill="#E5EDEA" transform="matrix(1.00, 0.00, -0.00, -1.00, 786.2, 699.5)">e</text><text xml:space="preserve" font-family="Palatino-Roman,Palatino" font-size="24.0" fill="#E5EDEA" transform="matrix(1.00, 0.00, -0.00, -1.00, 797.7, 699.5)"> </text><text xml:space="preserve" font-family="Palatino-Roman,Palatino" font-size="24.0" fill="#E5EDEA" transform="matrix(1.00, 0.00, -0.00, -1.00, 803.7, 699.5)">D</text><text xml:space="preserve" font-family="Palatino-Roman,Palatino" font-size="24.0" fill="#E5EDEA" transform="matrix(1.00, 0.00, -0.00, -1.00, 822.3, 699.5)">o</text><text xml:space="preserve" font-family="Palatino-Roman,Palatino" font-size="24.0" fill="#E5EDEA" transform="matrix(1.00, 0.00, -0.00, -1.00, 835.4, 699.5)">c</text><text xml:space="preserve" font-family="Palatino-Roman,Palatino" font-size="24.0" fill="#E5EDEA" transform="matrix(1.00, 0.00, -0.00, -1.00, 846.0, 699.5)">k</text><text xml:space="preserve" font-family="Palatino-Roman,Palatino" font-size="24.0" fill="#E5EDEA" transform="matrix(1.00, 0.00, -0.00, -1.00, 859.4, 699.5)">e</text><text xml:space="preserve" font-family="Palatino-Roman,Palatino" font-size="24.0" fill="#E5EDEA" transform="matrix(1.00, 0.00, -0.00, -1.00, 870.9, 699.5)">r</text><text xml:space="preserve" font-family="Palatino-Roman,Palatino" font-size="24.0" fill="#E5EDEA" transform="matrix(1.00, 0.00, -0.00, -1.00, 880.3, 699.5)"> </text><text xml:space="preserve" font-family="Palatino-Roman,Palatino" font-size="24.0" fill="#E5EDEA" transform="matrix(1.00, 0.00, -0.00, -1.00, 500.6, 667.5)">c</text><text xml:space="preserve" font-family="Palatino-Roman,Palatino" font-size="24.0" fill="#E5EDEA" transform="matrix(1.00, 0.00, -0.00, -1.00, 511.3, 667.5)">o</text><text xml:space="preserve" font-family="Palatino-Roman,Palatino" font-size="24.0" fill="#E5EDEA" transform="matrix(1.00, 0.00, -0.00, -1.00, 524.4, 667.5)">n</text><text xml:space="preserve" font-family="Palatino-Roman,Palatino" font-size="24.0" fill="#E5EDEA" transform="matrix(1.00, 0.00, -0.00, -1.00, 538.3, 667.5)">t</text><text xml:space="preserve" font-family="Palatino-Roman,Palatino" font-size="24.0" fill="#E5EDEA" transform="matrix(1.00, 0.00, -0.00, -1.00, 546.2, 667.5)">e</text><text xml:space="preserve" font-family="Palatino-Roman,Palatino" font-size="24.0" fill="#E5EDEA" transform="matrix(1.00, 0.00, -0.00, -1.00, 557.7, 667.5)">x</text><text xml:space="preserve" font-family="Palatino-Roman,Palatino" font-size="24.0" fill="#E5EDEA" transform="matrix(1.00, 0.00, -0.00, -1.00, 570.1, 667.5)">t</text><text xml:space="preserve" font-family="Palatino-Roman,Palatino" font-size="24.0" fill="#E5EDEA" transform="matrix(1.00, 0.00, -0.00, -1.00, 577.9, 667.5)"> </text><text xml:space="preserve" font-family="Palatino-Roman,Palatino" font-size="24.0" fill="#E5EDEA" transform="matrix(1.00, 0.00, -0.00, -1.00, 583.9, 667.5)">i</text><text xml:space="preserve" font-family="Palatino-Roman,Palatino" font-size="24.0" fill="#E5EDEA" transform="matrix(1.00, 0.00, -0.00, -1.00, 590.9, 667.5)">n</text><text xml:space="preserve" font-family="Palatino-Roman,Palatino" font-size="24.0" fill="#E5EDEA" transform="matrix(1.00, 0.00, -0.00, -1.00, 604.8, 667.5)">t</text><text xml:space="preserve" font-family="Palatino-Roman,Palatino" font-size="24.0" fill="#E5EDEA" transform="matrix(1.00, 0.00, -0.00, -1.00, 612.7, 667.5)">o</text><text xml:space="preserve" font-family="Palatino-Roman,Palatino" font-size="24.0" fill="#E5EDEA" transform="matrix(1.00, 0.00, -0.00, -1.00, 625.8, 667.5)"> </text><text xml:space="preserve" font-family="Palatino-Roman,Palatino" font-size="24.0" fill="#E5EDEA" transform="matrix(1.00, 0.00, -0.00, -1.00, 631.8, 667.5)">t</text><text xml:space="preserve" font-family="Palatino-Roman,Palatino" font-size="24.0" fill="#E5EDEA" transform="matrix(1.00, 0.00, -0.00, -1.00, 639.6, 667.5)">h</text><text xml:space="preserve" font-family="Palatino-Roman,Palatino" font-size="24.0" fill="#E5EDEA" transform="matrix(1.00, 0.00, -0.00, -1.00, 653.6, 667.5)">e</text><text xml:space="preserve" font-family="Palatino-Roman,Palatino" font-size="24.0" fill="#E5EDEA" transform="matrix(1.00, 0.00, -0.00, -1.00, 665.1, 667.5)"> </text><text xml:space="preserve" font-family="Palatino-Roman,Palatino" font-size="24.0" fill="#E5EDEA" transform="matrix(1.00, 0.00, -0.00, -1.00, 671.1, 667.5)">d</text><text xml:space="preserve" font-family="Palatino-Roman,Palatino" font-size="24.0" fill="#E5EDEA" transform="matrix(1.00, 0.00, -0.00, -1.00, 685.7, 667.5)">e</text><text xml:space="preserve" font-family="Palatino-Roman,Palatino" font-size="24.0" fill="#E5EDEA" transform="matrix(1.00, 0.00, -0.00, -1.00, 697.2, 667.5)">s</text><text xml:space="preserve" font-family="Palatino-Roman,Palatino" font-size="24.0" fill="#E5EDEA" transform="matrix(1.00, 0.00, -0.00, -1.00, 707.4, 667.5)">t</text><text xml:space="preserve" font-family="Palatino-Roman,Palatino" font-size="24.0" fill="#E5EDEA" transform="matrix(1.00, 0.00, -0.00, -1.00, 715.2, 667.5)">i</text><text xml:space="preserve" font-family="Palatino-Roman,Palatino" font-size="24.0" fill="#E5EDEA" transform="matrix(1.00, 0.00, -0.00, -1.00, 722.2, 667.5)">n</text><text xml:space="preserve" font-family="Palatino-Roman,Palatino" font-size="24.0" fill="#E5EDEA" transform="matrix(1.00, 0.00, -0.00, -1.00, 736.2, 667.5)">a</text><text xml:space="preserve" font-family="Palatino-Roman,Palatino" font-size="24.0" fill="#E5EDEA" transform="matrix(1.00, 0.00, -0.00, -1.00, 748.2, 667.5)">t</text><text xml:space="preserve" font-family="Palatino-Roman,Palatino" font-size="24.0" fill="#E5EDEA" transform="matrix(1.00, 0.00, -0.00, -1.00, 756.0, 667.5)">i</text><text xml:space="preserve" font-family="Palatino-Roman,Palatino" font-size="24.0" fill="#E5EDEA" transform="matrix(1.00, 0.00, -0.00, -1.00, 763.0, 667.5)">o</text><text xml:space="preserve" font-family="Palatino-Roman,Palatino" font-size="24.0" fill="#E5EDEA" transform="matrix(1.00, 0.00, -0.00, -1.00, 776.1, 667.5)">n</text><text xml:space="preserve" font-family="Palatino-Roman,Palatino" font-size="24.0" fill="#E5EDEA" transform="matrix(1.00, 0.00, -0.00, -1.00, 790.1, 667.5)"> </text><text xml:space="preserve" font-family="Palatino-Roman,Palatino" font-size="24.0" fill="#E5EDEA" transform="matrix(1.00, 0.00, -0.00, -1.00, 796.1, 667.5)">f</text><text xml:space="preserve" font-family="Palatino-Roman,Palatino" font-size="24.0" fill="#E5EDEA" transform="matrix(1.00, 0.00, -0.00, -1.00, 804.1, 667.5)">o</text><text xml:space="preserve" font-family="Palatino-Roman,Palatino" font-size="24.0" fill="#E5EDEA" transform="matrix(1.00, 0.00, -0.00, -1.00, 817.2, 667.5)">l</text><text xml:space="preserve" font-family="Palatino-Roman,Palatino" font-size="24.0" fill="#E5EDEA" transform="matrix(1.00, 0.00, -0.00, -1.00, 824.1, 667.5)">d</text><text xml:space="preserve" font-family="Palatino-Roman,Palatino" font-size="24.0" fill="#E5EDEA" transform="matrix(1.00, 0.00, -0.00, -1.00, 838.8, 667.5)">e</text><text xml:space="preserve" font-family="Palatino-Roman,Palatino" font-size="24.0" fill="#E5EDEA" transform="matrix(1.00, 0.00, -0.00, -1.00, 850.3, 667.5)">r</text><text xml:space="preserve" font-family="Palatino-Roman,Palatino" font-size="24.0" fill="#E5EDEA" transform="matrix(1.00, 0.00, -0.00, -1.00, 859.8, 667.5)"> </text><text xml:space="preserve" font-family="Palatino-Roman,Palatino" font-size="24.0" fill="#E5EDEA" transform="matrix(1.00, 0.00, -0.00, -1.00, 865.8, 667.5)">o</text><text xml:space="preserve" font-family="Palatino-Roman,Palatino" font-size="24.0" fill="#E5EDEA" transform="matrix(1.00, 0.00, -0.00, -1.00, 878.9, 667.5)">n</text><text xml:space="preserve" font-family="Palatino-Roman,Palatino" font-size="24.0" fill="#E5EDEA" transform="matrix(1.00, 0.00, -0.00, -1.00, 892.8, 667.5)"> </text><text xml:space="preserve" font-family="Palatino-Roman,Palatino" font-size="24.0" fill="#E5EDEA" transform="matrix(1.00, 0.00, -0.00, -1.00, 661.2, 635.5)">i</text><text xml:space="preserve" font-family="Palatino-Roman,Palatino" font-size="24.0" fill="#E5EDEA" transform="matrix(1.00, 0.00, -0.00, -1.00, 668.2, 635.5)">m</text><text xml:space="preserve" font-family="Palatino-Roman,Palatino" font-size="24.0" fill="#E5EDEA" transform="matrix(1.00, 0.00, -0.00, -1.00, 689.4, 635.5)">a</text><text xml:space="preserve" font-family="Palatino-Roman,Palatino" font-size="24.0" fill="#E5EDEA" transform="matrix(1.00, 0.00, -0.00, -1.00, 701.4, 635.5)">g</text><text xml:space="preserve" font-family="Palatino-Roman,Palatino" font-size="24.0" fill="#E5EDEA" transform="matrix(1.00, 0.00, -0.00, -1.00, 714.7, 635.5)">e</text><text xml:space="preserve" font-family="Palatino-Roman,Palatino" font-size="24.0" fill="#E5EDEA" transform="matrix(1.00, 0.00, -0.00, -1.00, 726.2, 635.5)">.</text></g></svg>