<?xml version="1.0" encoding="UTF-8" standalone="no"?><svg xmlns="http://www.w3.org/2000/svg" xmlns:xlink="http://www.w3.org/1999/xlink" clip-rule="evenodd" stroke-miterlimit="10" viewBox="0 0 1024 768"><desc>SVG generated by Keynote</desc><defs><pattern id="B74B6F0A-D307-499F-8429-5C7FFCB6FF60" patternUnits="userSpaceOnUse" width="580" height="580" viewBox="0 0 580 580"><image xlink:href="../../76B6F3B3-FE62-45A3-BC10-8C0E82E2DC18/assets/8727E46A978D0F4CEC9239881F818550.png" width="580.00" height="580.00"></image></pattern></defs><g transform="matrix(1.00, 0.00, -0.00, -1.00, 0.0, 768.0)"><g><clipPath id="clip0x610001ca6ba0"><path d="M 0.0 768.0 L 1024.0 768.0 L 1024.0 0.0 L 0.0 0.0 Z M 0.0 768.0 "></path></clipPath><g clip-path="url(#clip0x610001ca6ba0)"><image xlink:href="../../524A64CF-8346-4612-AEB3-13D03E94EA2C/assets/8A97F831B44C6305266B84CB83B0E791.jpeg" width="2048.00" height="1536.00" transform="matrix(0.50, 0.00, -0.00, -0.50, 0.0, 768.0)"></image></g></g><g><clipPath id="clip0x610001ca86a0"><path d="M 0.0 768.0 L 1024.0 768.0 L 1024.0 0.0 L 0.0 0.0 Z M 0.0 768.0 "></path></clipPath><g clip-path="url(#clip0x610001ca86a0)"><image xlink:href="../../C74598BB-A51A-422A-94DD-9A5BAA23B3D0/assets/189116061D2B8EA61EF88C7239DA5CB4.png" width="856.00" height="648.00" transform="matrix(1.20, 0.00, -0.00, -1.20, 0.0, 772.0)"></image></g></g><g><clipPath id="clip0x6080016ada40"><path d="M 511.0 739.0 L 947.0 739.0 L 947.0 620.0 L 511.0 620.0 Z M 511.5 738.7 "></path></clipPath><g clip-path="url(#clip0x6080016ada40)"><path d="M 511.0 620.0 L 947.0 620.0 L 947.0 739.0 L 511.0 739.0 Z M 511.0 620.0 " fill="url(#B74B6F0A-D307-499F-8429-5C7FFCB6FF60)"></path></g></g><path d="M 0.0 0.0 L 327.4 0.0 L 330.4 0.0 " fill="none" stroke="#E0E0E0" stroke-width="6.00" transform="matrix(-0.98, -0.17, -0.17, 0.98, 504.8, 686.0)"></path><path d="M 180.2 641.2 L 158.7 625.2 L 184.4 617.5 Z M 180.2 641.2 " fill="#E0E0E0"></path><text xml:space="preserve" font-family="Palatino-Roman,Palatino" font-size="24.0" fill="#E5EDEA" transform="matrix(1.00, 0.00, -0.00, -1.00, 543.3, 686.2)">U</text><text xml:space="preserve" font-family="Palatino-Roman,Palatino" font-size="24.0" fill="#E5EDEA" transform="matrix(1.00, 0.00, -0.00, -1.00, 561.9, 686.2)">S</text><text xml:space="preserve" font-family="Palatino-Roman,Palatino" font-size="24.0" fill="#E5EDEA" transform="matrix(1.00, 0.00, -0.00, -1.00, 574.5, 686.2)">E</text><text xml:space="preserve" font-family="Palatino-Roman,Palatino" font-size="24.0" fill="#E5EDEA" transform="matrix(1.00, 0.00, -0.00, -1.00, 589.2, 686.2)">R</text><text xml:space="preserve" font-family="Palatino-Roman,Palatino" font-size="24.0" fill="#E5EDEA" transform="matrix(1.00, 0.00, -0.00, -1.00, 605.2, 686.2)"> </text><text xml:space="preserve" font-family="Palatino-Roman,Palatino" font-size="24.0" fill="#E5EDEA" transform="matrix(1.00, 0.00, -0.00, -1.00, 611.2, 686.2)">s</text><text xml:space="preserve" font-family="Palatino-Roman,Palatino" font-size="24.0" fill="#E5EDEA" transform="matrix(1.00, 0.00, -0.00, -1.00, 621.4, 686.2)">e</text><text xml:space="preserve" font-family="Palatino-Roman,Palatino" font-size="24.0" fill="#E5EDEA" transform="matrix(1.00, 0.00, -0.00, -1.00, 632.9, 686.2)">t</text><text xml:space="preserve" font-family="Palatino-Roman,Palatino" font-size="24.0" fill="#E5EDEA" transform="matrix(1.00, 0.00, -0.00, -1.00, 640.7, 686.2)">s</text><text xml:space="preserve" font-family="Palatino-Roman,Palatino" font-size="24.0" fill="#E5EDEA" transform="matrix(1.00, 0.00, -0.00, -1.00, 650.9, 686.2)"> </text><text xml:space="preserve" font-family="Palatino-Roman,Palatino" font-size="24.0" fill="#E5EDEA" transform="matrix(1.00, 0.00, -0.00, -1.00, 656.9, 686.2)">t</text><text xml:space="preserve" font-family="Palatino-Roman,Palatino" font-size="24.0" fill="#E5EDEA" transform="matrix(1.00, 0.00, -0.00, -1.00, 664.7, 686.2)">h</text><text xml:space="preserve" font-family="Palatino-Roman,Palatino" font-size="24.0" fill="#E5EDEA" transform="matrix(1.00, 0.00, -0.00, -1.00, 678.7, 686.2)">e</text><text xml:space="preserve" font-family="Palatino-Roman,Palatino" font-size="24.0" fill="#E5EDEA" transform="matrix(1.00, 0.00, -0.00, -1.00, 690.2, 686.2)"> </text><text xml:space="preserve" font-family="Palatino-Roman,Palatino" font-size="24.0" fill="#E5EDEA" transform="matrix(1.00, 0.00, -0.00, -1.00, 696.2, 686.2)">u</text><text xml:space="preserve" font-family="Palatino-Roman,Palatino" font-size="24.0" fill="#E5EDEA" transform="matrix(1.00, 0.00, -0.00, -1.00, 710.6, 686.2)">s</text><text xml:space="preserve" font-family="Palatino-Roman,Palatino" font-size="24.0" fill="#E5EDEA" transform="matrix(1.00, 0.00, -0.00, -1.00, 720.8, 686.2)">e</text><text xml:space="preserve" font-family="Palatino-Roman,Palatino" font-size="24.0" fill="#E5EDEA" transform="matrix(1.00, 0.00, -0.00, -1.00, 732.3, 686.2)">r</text><text xml:space="preserve" font-family="Palatino-Roman,Palatino" font-size="24.0" fill="#E5EDEA" transform="matrix(1.00, 0.00, -0.00, -1.00, 741.8, 686.2)"> </text><text xml:space="preserve" font-family="Palatino-Roman,Palatino" font-size="24.0" fill="#E5EDEA" transform="matrix(1.00, 0.00, -0.00, -1.00, 747.8, 686.2)">t</text><text xml:space="preserve" font-family="Palatino-Roman,Palatino" font-size="24.0" fill="#E5EDEA" transform="matrix(1.00, 0.00, -0.00, -1.00, 755.6, 686.2)">o</text><text xml:space="preserve" font-family="Palatino-Roman,Palatino" font-size="24.0" fill="#E5EDEA" transform="matrix(1.00, 0.00, -0.00, -1.00, 768.7, 686.2)"> </text><text xml:space="preserve" font-family="Palatino-Roman,Palatino" font-size="24.0" fill="#E5EDEA" transform="matrix(1.00, 0.00, -0.00, -1.00, 774.7, 686.2)">e</text><text xml:space="preserve" font-family="Palatino-Roman,Palatino" font-size="24.0" fill="#E5EDEA" transform="matrix(1.00, 0.00, -0.00, -1.00, 786.2, 686.2)">x</text><text xml:space="preserve" font-family="Palatino-Roman,Palatino" font-size="24.0" fill="#E5EDEA" transform="matrix(1.00, 0.00, -0.00, -1.00, 798.6, 686.2)">e</text><text xml:space="preserve" font-family="Palatino-Roman,Palatino" font-size="24.0" fill="#E5EDEA" transform="matrix(1.00, 0.00, -0.00, -1.00, 810.1, 686.2)">c</text><text xml:space="preserve" font-family="Palatino-Roman,Palatino" font-size="24.0" fill="#E5EDEA" transform="matrix(1.00, 0.00, -0.00, -1.00, 820.7, 686.2)">u</text><text xml:space="preserve" font-family="Palatino-Roman,Palatino" font-size="24.0" fill="#E5EDEA" transform="matrix(1.00, 0.00, -0.00, -1.00, 835.2, 686.2)">t</text><text xml:space="preserve" font-family="Palatino-Roman,Palatino" font-size="24.0" fill="#E5EDEA" transform="matrix(1.00, 0.00, -0.00, -1.00, 843.1, 686.2)">e</text><text xml:space="preserve" font-family="Palatino-Roman,Palatino" font-size="24.0" fill="#E5EDEA" transform="matrix(1.00, 0.00, -0.00, -1.00, 854.6, 686.2)"> </text><text xml:space="preserve" font-family="Palatino-Roman,Palatino" font-size="24.0" fill="#E5EDEA" transform="matrix(1.00, 0.00, -0.00, -1.00, 860.6, 686.2)">R</text><text xml:space="preserve" font-family="Palatino-Roman,Palatino" font-size="24.0" fill="#E5EDEA" transform="matrix(1.00, 0.00, -0.00, -1.00, 876.6, 686.2)">U</text><text xml:space="preserve" font-family="Palatino-Roman,Palatino" font-size="24.0" fill="#E5EDEA" transform="matrix(1.00, 0.00, -0.00, -1.00, 895.2, 686.2)">N</text><text xml:space="preserve" font-family="Palatino-Roman,Palatino" font-size="24.0" fill="#E5EDEA" transform="matrix(1.00, 0.00, -0.00, -1.00, 915.2, 686.2)"> </text><text xml:space="preserve" font-family="Palatino-Roman,Palatino" font-size="24.0" fill="#E5EDEA" transform="matrix(1.00, 0.00, -0.00, -1.00, 598.2, 654.2)">a</text><text xml:space="preserve" font-family="Palatino-Roman,Palatino" font-size="24.0" fill="#E5EDEA" transform="matrix(1.00, 0.00, -0.00, -1.00, 610.2, 654.2)">n</text><text xml:space="preserve" font-family="Palatino-Roman,Palatino" font-size="24.0" fill="#E5EDEA" transform="matrix(1.00, 0.00, -0.00, -1.00, 624.2, 654.2)">d</text><text xml:space="preserve" font-family="Palatino-Roman,Palatino" font-size="24.0" fill="#E5EDEA" transform="matrix(1.00, 0.00, -0.00, -1.00, 638.9, 654.2)"> </text><text xml:space="preserve" font-family="Palatino-Roman,Palatino" font-size="24.0" fill="#E5EDEA" transform="matrix(1.00, 0.00, -0.00, -1.00, 644.9, 654.2)">C</text><text xml:space="preserve" font-family="Palatino-Roman,Palatino" font-size="24.0" fill="#E5EDEA" transform="matrix(1.00, 0.00, -0.00, -1.00, 661.9, 654.2)">M</text><text xml:space="preserve" font-family="Palatino-Roman,Palatino" font-size="24.0" fill="#E5EDEA" transform="matrix(1.00, 0.00, -0.00, -1.00, 684.6, 654.2)">D</text><text xml:space="preserve" font-family="Palatino-Roman,Palatino" font-size="24.0" fill="#E5EDEA" transform="matrix(1.00, 0.00, -0.00, -1.00, 703.1, 654.2)"> </text><text xml:space="preserve" font-family="Palatino-Roman,Palatino" font-size="24.0" fill="#E5EDEA" transform="matrix(1.00, 0.00, -0.00, -1.00, 709.1, 654.2)">c</text><text xml:space="preserve" font-family="Palatino-Roman,Palatino" font-size="24.0" fill="#E5EDEA" transform="matrix(1.00, 0.00, -0.00, -1.00, 719.8, 654.2)">o</text><text xml:space="preserve" font-family="Palatino-Roman,Palatino" font-size="24.0" fill="#E5EDEA" transform="matrix(1.00, 0.00, -0.00, -1.00, 732.9, 654.2)">m</text><text xml:space="preserve" font-family="Palatino-Roman,Palatino" font-size="24.0" fill="#E5EDEA" transform="matrix(1.00, 0.00, -0.00, -1.00, 754.1, 654.2)">m</text><text xml:space="preserve" font-family="Palatino-Roman,Palatino" font-size="24.0" fill="#E5EDEA" transform="matrix(1.00, 0.00, -0.00, -1.00, 775.2, 654.2)">a</text><text xml:space="preserve" font-family="Palatino-Roman,Palatino" font-size="24.0" fill="#E5EDEA" transform="matrix(1.00, 0.00, -0.00, -1.00, 787.2, 654.2)">n</text><text xml:space="preserve" font-family="Palatino-Roman,Palatino" font-size="24.0" fill="#E5EDEA" transform="matrix(1.00, 0.00, -0.00, -1.00, 801.2, 654.2)">d</text><text xml:space="preserve" font-family="Palatino-Roman,Palatino" font-size="24.0" fill="#E5EDEA" transform="matrix(1.00, 0.00, -0.00, -1.00, 815.9, 654.2)">s</text><text xml:space="preserve" font-family="Palatino-Roman,Palatino" font-size="24.0" fill="#E5EDEA" transform="matrix(1.00, 0.00, -0.00, -1.00, 826.0, 654.2)"> </text><text xml:space="preserve" font-family="Palatino-Roman,Palatino" font-size="24.0" fill="#E5EDEA" transform="matrix(1.00, 0.00, -0.00, -1.00, 832.0, 654.2)">a</text><text xml:space="preserve" font-family="Palatino-Roman,Palatino" font-size="24.0" fill="#E5EDEA" transform="matrix(1.00, 0.00, -0.00, -1.00, 844.0, 654.2)">s</text><text xml:space="preserve" font-family="Palatino-Roman,Palatino" font-size="24.0" fill="#E5EDEA" transform="matrix(1.00, 0.00, -0.00, -1.00, 854.2, 654.2)">.</text></g></svg>