<?xml version="1.0" encoding="UTF-8" standalone="no"?><svg xmlns="http://www.w3.org/2000/svg" xmlns:xlink="http://www.w3.org/1999/xlink" clip-rule="evenodd" stroke-miterlimit="10" viewBox="0 0 1024 768"><desc>SVG generated by Keynote</desc><defs></defs><g transform="matrix(1.00, 0.00, -0.00, -1.00, 0.0, 768.0)"><g><clipPath id="clip0x610001ab6e00"><path d="M 0.0 768.0 L 1024.0 768.0 L 1024.0 0.0 L 0.0 0.0 Z M 0.0 768.0 "></path></clipPath><g clip-path="url(#clip0x610001ab6e00)"><image xlink:href="../../524A64CF-8346-4612-AEB3-13D03E94EA2C/assets/8A97F831B44C6305266B84CB83B0E791.jpeg" width="2048.00" height="1536.00" transform="matrix(0.50, 0.00, -0.00, -0.50, 0.0, 768.0)"></image></g></g><g opacity="0.30"><g><clipPath id="clip0x6100018a2fa0"><path d="M 39.0 595.0 L 986.0 595.0 L 986.0 599.0 L 39.0 599.0 Z M 39.0 595.0 "></path></clipPath><g clip-path="url(#clip0x6100018a2fa0)"><path d="M 0.0 0.5 L 944.7 0.5 L 944.7 0.5 L 0.0 0.5 Z M 0.0 0.0 " fill="none" stroke="#434343" stroke-width="1.00" transform="matrix(1.00, 0.00, 0.00, -1.00, 40.0, 597.0)"></path></g></g></g><g opacity="0.30"><g><clipPath id="clip0x610001aa8f40"><path d="M 39.0 716.0 L 986.0 716.0 L 986.0 720.0 L 39.0 720.0 Z M 39.0 716.0 "></path></clipPath><g clip-path="url(#clip0x610001aa8f40)"><path d="M 0.0 0.5 L 944.7 0.5 L 944.7 0.5 L 0.0 0.5 Z M 0.0 0.0 " fill="none" stroke="#434343" stroke-width="1.00" transform="matrix(1.00, 0.00, 0.00, -1.00, 40.0, 718.0)"></path></g></g></g><g><clipPath id="clip0x610001aaeb20"><path d="M 537.0 559.0 L 977.0 559.0 L 977.0 59.0 L 537.0 59.0 Z M 537.0 559.0 "></path></clipPath><g clip-path="url(#clip0x610001aaeb20)"><image xlink:href="../../7112E907-C4B7-45AD-B9D9-F923ACDF4FE9/assets/0CBB2AA4D028F53EDA5F26CDEE085515.png" width="426.00" height="274.00" transform="matrix(1.03, 0.00, -0.00, -1.04, 537.0, 451.0)"></image></g></g><image xlink:href="../../7112E907-C4B7-45AD-B9D9-F923ACDF4FE9/assets/2D514EEE3F0D45F8B526FDC8216F20CD.png" width="460.00" height="526.00" transform="matrix(1.00, 0.00, -0.00, 1.00, 527.0, 40.0)"></image><text xml:space="preserve" font-family="BodoniSvtyTwoITCTT-Book,Bodoni 72" font-size="70.0" fill="#D93D2A" transform="matrix(1.00, 0.00, -0.00, -1.00, 108.3, 632.6)">D</text><text xml:space="preserve" font-family="BodoniSvtyTwoITCTT-Book,Bodoni 72" font-size="70.0" fill="#D93D2A" transform="matrix(1.00, 0.00, -0.00, -1.00, 158.4, 632.6)">i</text><text xml:space="preserve" font-family="BodoniSvtyTwoITCTT-Book,Bodoni 72" font-size="70.0" fill="#D93D2A" transform="matrix(1.00, 0.00, -0.00, -1.00, 176.0, 632.6)">s</text><text xml:space="preserve" font-family="BodoniSvtyTwoITCTT-Book,Bodoni 72" font-size="70.0" fill="#D93D2A" transform="matrix(1.00, 0.00, -0.00, -1.00, 201.3, 632.6)">r</text><text xml:space="preserve" font-family="BodoniSvtyTwoITCTT-Book,Bodoni 72" font-size="70.0" fill="#D93D2A" transform="matrix(1.00, 0.00, -0.00, -1.00, 225.0, 632.6)">u</text><text xml:space="preserve" font-family="BodoniSvtyTwoITCTT-Book,Bodoni 72" font-size="70.0" fill="#D93D2A" transform="matrix(1.00, 0.00, -0.00, -1.00, 259.3, 632.6)">p</text><text xml:space="preserve" font-family="BodoniSvtyTwoITCTT-Book,Bodoni 72" font-size="70.0" fill="#D93D2A" transform="matrix(1.00, 0.00, -0.00, -1.00, 293.5, 632.6)">t</text><text xml:space="preserve" font-family="BodoniSvtyTwoITCTT-Book,Bodoni 72" font-size="70.0" fill="#D93D2A" transform="matrix(1.00, 0.00, -0.00, -1.00, 313.4, 632.6)"> </text><text xml:space="preserve" font-family="BodoniSvtyTwoITCTT-Book,Bodoni 72" font-size="70.0" fill="#D93D2A" transform="matrix(1.00, 0.00, -0.00, -1.00, 326.4, 632.6)">C</text><text xml:space="preserve" font-family="BodoniSvtyTwoITCTT-Book,Bodoni 72" font-size="70.0" fill="#D93D2A" transform="matrix(1.00, 0.00, -0.00, -1.00, 372.1, 632.6)">h</text><text xml:space="preserve" font-family="BodoniSvtyTwoITCTT-Book,Bodoni 72" font-size="70.0" fill="#D93D2A" transform="matrix(1.00, 0.00, -0.00, -1.00, 405.5, 632.6)">u</text><text xml:space="preserve" font-family="BodoniSvtyTwoITCTT-Book,Bodoni 72" font-size="70.0" fill="#D93D2A" transform="matrix(1.00, 0.00, -0.00, -1.00, 439.8, 632.6)">c</text><text xml:space="preserve" font-family="BodoniSvtyTwoITCTT-Book,Bodoni 72" font-size="70.0" fill="#D93D2A" transform="matrix(1.00, 0.00, -0.00, -1.00, 468.4, 632.6)">k</text><text xml:space="preserve" font-family="BodoniSvtyTwoITCTT-Book,Bodoni 72" font-size="70.0" fill="#D93D2A" transform="matrix(1.00, 0.00, -0.00, -1.00, 501.3, 632.6)"> </text><text xml:space="preserve" font-family="BodoniSvtyTwoITCTT-Book,Bodoni 72" font-size="70.0" fill="#D93D2A" transform="matrix(1.00, 0.00, -0.00, -1.00, 514.3, 632.6)">N</text><text xml:space="preserve" font-family="BodoniSvtyTwoITCTT-Book,Bodoni 72" font-size="70.0" fill="#D93D2A" transform="matrix(1.00, 0.00, -0.00, -1.00, 560.2, 632.6)">o</text><text xml:space="preserve" font-family="BodoniSvtyTwoITCTT-Book,Bodoni 72" font-size="70.0" fill="#D93D2A" transform="matrix(1.00, 0.00, -0.00, -1.00, 593.8, 632.6)">r</text><text xml:space="preserve" font-family="BodoniSvtyTwoITCTT-Book,Bodoni 72" font-size="70.0" fill="#D93D2A" transform="matrix(1.00, 0.00, -0.00, -1.00, 617.5, 632.6)">r</text><text xml:space="preserve" font-family="BodoniSvtyTwoITCTT-Book,Bodoni 72" font-size="70.0" fill="#D93D2A" transform="matrix(1.00, 0.00, -0.00, -1.00, 641.1, 632.6)">i</text><text xml:space="preserve" font-family="BodoniSvtyTwoITCTT-Book,Bodoni 72" font-size="70.0" fill="#D93D2A" transform="matrix(1.00, 0.00, -0.00, -1.00, 658.7, 632.6)">s</text><text xml:space="preserve" font-family="BodoniSvtyTwoITCTT-Book,Bodoni 72" font-size="70.0" fill="#D93D2A" transform="matrix(1.00, 0.00, -0.00, -1.00, 684.0, 632.6)"> </text><text xml:space="preserve" font-family="BodoniSvtyTwoITCTT-Book,Bodoni 72" font-size="70.0" fill="#D93D2A" transform="matrix(1.00, 0.00, -0.00, -1.00, 697.0, 632.6)">Q</text><text xml:space="preserve" font-family="BodoniSvtyTwoITCTT-Book,Bodoni 72" font-size="70.0" fill="#D93D2A" transform="matrix(1.00, 0.00, -0.00, -1.00, 747.6, 632.6)">u</text><text xml:space="preserve" font-family="BodoniSvtyTwoITCTT-Book,Bodoni 72" font-size="70.0" fill="#D93D2A" transform="matrix(1.00, 0.00, -0.00, -1.00, 781.9, 632.6)">o</text><text xml:space="preserve" font-family="BodoniSvtyTwoITCTT-Book,Bodoni 72" font-size="70.0" fill="#D93D2A" transform="matrix(1.00, 0.00, -0.00, -1.00, 815.5, 632.6)">t</text><text xml:space="preserve" font-family="BodoniSvtyTwoITCTT-Book,Bodoni 72" font-size="70.0" fill="#D93D2A" transform="matrix(1.00, 0.00, -0.00, -1.00, 835.4, 632.6)">e</text><text xml:space="preserve" font-family="BodoniSvtyTwoITCTT-Book,Bodoni 72" font-size="70.0" fill="#D93D2A" transform="matrix(1.00, 0.00, -0.00, -1.00, 865.5, 632.6)">s</text><text xml:space="preserve" font-family="BodoniSvtyTwoITCTT-Book,Bodoni 72" font-size="70.0" fill="#D93D2A" transform="matrix(1.00, 0.00, -0.00, -1.00, 890.8, 632.6)">!</text><text xml:space="preserve" font-family="ZapfDingbatsITC,Zapf Dingbats" font-size="19.5" fill="#919191" transform="matrix(1.00, 0.00, -0.00, -1.00, 44.0, 385.9)">❖</text><text xml:space="preserve" font-family="Palatino-Roman,Palatino" font-size="30.0" fill="#404040" transform="matrix(1.00, 0.00, -0.00, -1.00, 75.0, 380.3)">W</text><text xml:space="preserve" font-family="Palatino-Roman,Palatino" font-size="30.0" fill="#404040" transform="matrix(1.00, 0.00, -0.00, -1.00, 102.2, 380.3)">e</text><text xml:space="preserve" font-family="Palatino-Roman,Palatino" font-size="30.0" fill="#404040" transform="matrix(1.00, 0.00, -0.00, -1.00, 116.6, 380.3)">’</text><text xml:space="preserve" font-family="Palatino-Roman,Palatino" font-size="30.0" fill="#404040" transform="matrix(1.00, 0.00, -0.00, -1.00, 124.9, 380.3)">r</text><text xml:space="preserve" font-family="Palatino-Roman,Palatino" font-size="30.0" fill="#404040" transform="matrix(1.00, 0.00, -0.00, -1.00, 136.3, 380.3)">e</text><text xml:space="preserve" font-family="Palatino-Roman,Palatino" font-size="30.0" fill="#404040" transform="matrix(1.00, 0.00, -0.00, -1.00, 150.6, 380.3)"> </text><text xml:space="preserve" font-family="Palatino-Roman,Palatino" font-size="30.0" fill="#404040" transform="matrix(1.00, 0.00, -0.00, -1.00, 158.1, 380.3)">g</text><text xml:space="preserve" font-family="Palatino-Roman,Palatino" font-size="30.0" fill="#404040" transform="matrix(1.00, 0.00, -0.00, -1.00, 174.8, 380.3)">o</text><text xml:space="preserve" font-family="Palatino-Roman,Palatino" font-size="30.0" fill="#404040" transform="matrix(1.00, 0.00, -0.00, -1.00, 191.2, 380.3)">i</text><text xml:space="preserve" font-family="Palatino-Roman,Palatino" font-size="30.0" fill="#404040" transform="matrix(1.00, 0.00, -0.00, -1.00, 199.9, 380.3)">n</text><text xml:space="preserve" font-family="Palatino-Roman,Palatino" font-size="30.0" fill="#404040" transform="matrix(1.00, 0.00, -0.00, -1.00, 217.4, 380.3)">g</text><text xml:space="preserve" font-family="Palatino-Roman,Palatino" font-size="30.0" fill="#404040" transform="matrix(1.00, 0.00, -0.00, -1.00, 234.1, 380.3)"> </text><text xml:space="preserve" font-family="Palatino-Roman,Palatino" font-size="30.0" fill="#404040" transform="matrix(1.00, 0.00, -0.00, -1.00, 241.6, 380.3)">t</text><text xml:space="preserve" font-family="Palatino-Roman,Palatino" font-size="30.0" fill="#404040" transform="matrix(1.00, 0.00, -0.00, -1.00, 251.4, 380.3)">o</text><text xml:space="preserve" font-family="Palatino-Roman,Palatino" font-size="30.0" fill="#404040" transform="matrix(1.00, 0.00, -0.00, -1.00, 267.7, 380.3)"> </text><text xml:space="preserve" font-family="Palatino-Roman,Palatino" font-size="30.0" fill="#404040" transform="matrix(1.00, 0.00, -0.00, -1.00, 275.2, 380.3)">c</text><text xml:space="preserve" font-family="Palatino-Roman,Palatino" font-size="30.0" fill="#404040" transform="matrix(1.00, 0.00, -0.00, -1.00, 288.6, 380.3)">o</text><text xml:space="preserve" font-family="Palatino-Roman,Palatino" font-size="30.0" fill="#404040" transform="matrix(1.00, 0.00, -0.00, -1.00, 304.9, 380.3)">n</text><text xml:space="preserve" font-family="Palatino-Roman,Palatino" font-size="30.0" fill="#404040" transform="matrix(1.00, 0.00, -0.00, -1.00, 322.4, 380.3)">t</text><text xml:space="preserve" font-family="Palatino-Roman,Palatino" font-size="30.0" fill="#404040" transform="matrix(1.00, 0.00, -0.00, -1.00, 332.2, 380.3)">a</text><text xml:space="preserve" font-family="Palatino-Roman,Palatino" font-size="30.0" fill="#404040" transform="matrix(1.00, 0.00, -0.00, -1.00, 347.2, 380.3)">i</text><text xml:space="preserve" font-family="Palatino-Roman,Palatino" font-size="30.0" fill="#404040" transform="matrix(1.00, 0.00, -0.00, -1.00, 355.9, 380.3)">n</text><text xml:space="preserve" font-family="Palatino-Roman,Palatino" font-size="30.0" fill="#404040" transform="matrix(1.00, 0.00, -0.00, -1.00, 373.4, 380.3)">e</text><text xml:space="preserve" font-family="Palatino-Roman,Palatino" font-size="30.0" fill="#404040" transform="matrix(1.00, 0.00, -0.00, -1.00, 387.7, 380.3)">r</text><text xml:space="preserve" font-family="Palatino-Roman,Palatino" font-size="30.0" fill="#404040" transform="matrix(1.00, 0.00, -0.00, -1.00, 399.6, 380.3)">i</text><text xml:space="preserve" font-family="Palatino-Roman,Palatino" font-size="30.0" fill="#404040" transform="matrix(1.00, 0.00, -0.00, -1.00, 408.3, 380.3)">z</text><text xml:space="preserve" font-family="Palatino-Roman,Palatino" font-size="30.0" fill="#404040" transform="matrix(1.00, 0.00, -0.00, -1.00, 423.3, 380.3)">e</text><text xml:space="preserve" font-family="Palatino-Roman,Palatino" font-size="30.0" fill="#404040" transform="matrix(1.00, 0.00, -0.00, -1.00, 437.7, 380.3)"> </text><text xml:space="preserve" font-family="Palatino-Roman,Palatino" font-size="30.0" fill="#404040" transform="matrix(1.00, 0.00, -0.00, -1.00, 75.0, 340.3)">a</text><text xml:space="preserve" font-family="Palatino-Roman,Palatino" font-size="30.0" fill="#404040" transform="matrix(1.00, 0.00, -0.00, -1.00, 90.0, 340.3)">n</text><text xml:space="preserve" font-family="Palatino-Roman,Palatino" font-size="30.0" fill="#404040" transform="matrix(1.00, 0.00, -0.00, -1.00, 107.5, 340.3)">d</text><text xml:space="preserve" font-family="Palatino-Roman,Palatino" font-size="30.0" fill="#404040" transform="matrix(1.00, 0.00, -0.00, -1.00, 125.8, 340.3)"> </text><text xml:space="preserve" font-family="Palatino-Roman,Palatino" font-size="30.0" fill="#404040" transform="matrix(1.00, 0.00, -0.00, -1.00, 133.3, 340.3)">r</text><text xml:space="preserve" font-family="Palatino-Roman,Palatino" font-size="30.0" fill="#404040" transform="matrix(1.00, 0.00, -0.00, -1.00, 144.9, 340.3)">u</text><text xml:space="preserve" font-family="Palatino-Roman,Palatino" font-size="30.0" fill="#404040" transform="matrix(1.00, 0.00, -0.00, -1.00, 163.0, 340.3)">n</text><text xml:space="preserve" font-family="Palatino-Roman,Palatino" font-size="30.0" fill="#404040" transform="matrix(1.00, 0.00, -0.00, -1.00, 180.4, 340.3)"> </text><text xml:space="preserve" font-family="Palatino-Roman,Palatino" font-size="30.0" fill="#404040" transform="matrix(1.00, 0.00, -0.00, -1.00, 187.9, 340.3)">o</text><text xml:space="preserve" font-family="Palatino-Roman,Palatino" font-size="30.0" fill="#404040" transform="matrix(1.00, 0.00, -0.00, -1.00, 204.3, 340.3)">u</text><text xml:space="preserve" font-family="Palatino-Roman,Palatino" font-size="30.0" fill="#404040" transform="matrix(1.00, 0.00, -0.00, -1.00, 222.4, 340.3)">r</text><text xml:space="preserve" font-family="Palatino-Roman,Palatino" font-size="30.0" fill="#404040" transform="matrix(1.00, 0.00, -0.00, -1.00, 234.3, 340.3)"> </text><text xml:space="preserve" font-family="Palatino-Roman,Palatino" font-size="30.0" fill="#404040" transform="matrix(1.00, 0.00, -0.00, -1.00, 241.8, 340.3)">s</text><text xml:space="preserve" font-family="Palatino-Roman,Palatino" font-size="30.0" fill="#404040" transform="matrix(1.00, 0.00, -0.00, -1.00, 254.5, 340.3)">i</text><text xml:space="preserve" font-family="Palatino-Roman,Palatino" font-size="30.0" fill="#404040" transform="matrix(1.00, 0.00, -0.00, -1.00, 263.2, 340.3)">m</text><text xml:space="preserve" font-family="Palatino-Roman,Palatino" font-size="30.0" fill="#404040" transform="matrix(1.00, 0.00, -0.00, -1.00, 289.7, 340.3)">p</text><text xml:space="preserve" font-family="Palatino-Roman,Palatino" font-size="30.0" fill="#404040" transform="matrix(1.00, 0.00, -0.00, -1.00, 307.7, 340.3)">l</text><text xml:space="preserve" font-family="Palatino-Roman,Palatino" font-size="30.0" fill="#404040" transform="matrix(1.00, 0.00, -0.00, -1.00, 316.4, 340.3)">e</text><text xml:space="preserve" font-family="Palatino-Roman,Palatino" font-size="30.0" fill="#404040" transform="matrix(1.00, 0.00, -0.00, -1.00, 330.8, 340.3)"> </text><text xml:space="preserve" font-family="Palatino-Roman,Palatino" font-size="30.0" fill="#404040" transform="matrix(1.00, 0.00, -0.00, -1.00, 338.3, 340.3)">a</text><text xml:space="preserve" font-family="Palatino-Roman,Palatino" font-size="30.0" fill="#404040" transform="matrix(1.00, 0.00, -0.00, -1.00, 353.3, 340.3)">p</text><text xml:space="preserve" font-family="Palatino-Roman,Palatino" font-size="30.0" fill="#404040" transform="matrix(1.00, 0.00, -0.00, -1.00, 371.4, 340.3)">p</text><text xml:space="preserve" font-family="Palatino-Roman,Palatino" font-size="30.0" fill="#404040" transform="matrix(1.00, 0.00, -0.00, -1.00, 389.4, 340.3)">.</text><text xml:space="preserve" font-family="ZapfDingbatsITC,Zapf Dingbats" font-size="19.5" fill="#919191" transform="matrix(1.00, 0.00, -0.00, -1.00, 44.0, 287.9)">❖</text><text xml:space="preserve" font-family="Palatino-Roman,Palatino" font-size="30.0" fill="#404040" transform="matrix(1.00, 0.00, -0.00, -1.00, 75.0, 282.3)">F</text><text xml:space="preserve" font-family="Palatino-Roman,Palatino" font-size="30.0" fill="#404040" transform="matrix(1.00, 0.00, -0.00, -1.00, 91.7, 282.3)">i</text><text xml:space="preserve" font-family="Palatino-Roman,Palatino" font-size="30.0" fill="#404040" transform="matrix(1.00, 0.00, -0.00, -1.00, 100.4, 282.3)">n</text><text xml:space="preserve" font-family="Palatino-Roman,Palatino" font-size="30.0" fill="#404040" transform="matrix(1.00, 0.00, -0.00, -1.00, 117.9, 282.3)">d</text><text xml:space="preserve" font-family="Palatino-Roman,Palatino" font-size="30.0" fill="#404040" transform="matrix(1.00, 0.00, -0.00, -1.00, 136.2, 282.3)"> </text><text xml:space="preserve" font-family="Palatino-Roman,Palatino" font-size="30.0" fill="#404040" transform="matrix(1.00, 0.00, -0.00, -1.00, 143.7, 282.3)">t</text><text xml:space="preserve" font-family="Palatino-Roman,Palatino" font-size="30.0" fill="#404040" transform="matrix(1.00, 0.00, -0.00, -1.00, 153.5, 282.3)">h</text><text xml:space="preserve" font-family="Palatino-Roman,Palatino" font-size="30.0" fill="#404040" transform="matrix(1.00, 0.00, -0.00, -1.00, 171.0, 282.3)">e</text><text xml:space="preserve" font-family="Palatino-Roman,Palatino" font-size="30.0" fill="#404040" transform="matrix(1.00, 0.00, -0.00, -1.00, 185.3, 282.3)"> </text><text xml:space="preserve" font-family="Palatino-Roman,Palatino" font-size="30.0" fill="#404040" transform="matrix(1.00, 0.00, -0.00, -1.00, 192.8, 282.3)">a</text><text xml:space="preserve" font-family="Palatino-Roman,Palatino" font-size="30.0" fill="#404040" transform="matrix(1.00, 0.00, -0.00, -1.00, 207.8, 282.3)">p</text><text xml:space="preserve" font-family="Palatino-Roman,Palatino" font-size="30.0" fill="#404040" transform="matrix(1.00, 0.00, -0.00, -1.00, 225.9, 282.3)">p</text><text xml:space="preserve" font-family="Palatino-Roman,Palatino" font-size="30.0" fill="#404040" transform="matrix(1.00, 0.00, -0.00, -1.00, 243.9, 282.3)"> </text><text xml:space="preserve" font-family="Palatino-Roman,Palatino" font-size="30.0" fill="#404040" transform="matrix(1.00, 0.00, -0.00, -1.00, 251.4, 282.3)">a</text><text xml:space="preserve" font-family="Palatino-Roman,Palatino" font-size="30.0" fill="#404040" transform="matrix(1.00, 0.00, -0.00, -1.00, 266.4, 282.3)">n</text><text xml:space="preserve" font-family="Palatino-Roman,Palatino" font-size="30.0" fill="#404040" transform="matrix(1.00, 0.00, -0.00, -1.00, 283.9, 282.3)">d</text><text xml:space="preserve" font-family="Palatino-Roman,Palatino" font-size="30.0" fill="#404040" transform="matrix(1.00, 0.00, -0.00, -1.00, 302.2, 282.3)"> </text><text xml:space="preserve" font-family="Palatino-Roman,Palatino" font-size="30.0" fill="#404040" transform="matrix(1.00, 0.00, -0.00, -1.00, 309.7, 282.3)">D</text><text xml:space="preserve" font-family="Palatino-Roman,Palatino" font-size="30.0" fill="#404040" transform="matrix(1.00, 0.00, -0.00, -1.00, 332.9, 282.3)">o</text><text xml:space="preserve" font-family="Palatino-Roman,Palatino" font-size="30.0" fill="#404040" transform="matrix(1.00, 0.00, -0.00, -1.00, 349.3, 282.3)">c</text><text xml:space="preserve" font-family="Palatino-Roman,Palatino" font-size="30.0" fill="#404040" transform="matrix(1.00, 0.00, -0.00, -1.00, 362.6, 282.3)">k</text><text xml:space="preserve" font-family="Palatino-Roman,Palatino" font-size="30.0" fill="#404040" transform="matrix(1.00, 0.00, -0.00, -1.00, 379.3, 282.3)">e</text><text xml:space="preserve" font-family="Palatino-Roman,Palatino" font-size="30.0" fill="#404040" transform="matrix(1.00, 0.00, -0.00, -1.00, 393.6, 282.3)">r</text><text xml:space="preserve" font-family="Palatino-Roman,Palatino" font-size="30.0" fill="#404040" transform="matrix(1.00, 0.00, -0.00, -1.00, 405.5, 282.3)">ﬁ</text><text xml:space="preserve" font-family="Palatino-Roman,Palatino" font-size="30.0" fill="#404040" transform="matrix(1.00, 0.00, -0.00, -1.00, 423.6, 282.3)">l</text><text xml:space="preserve" font-family="Palatino-Roman,Palatino" font-size="30.0" fill="#404040" transform="matrix(1.00, 0.00, -0.00, -1.00, 432.4, 282.3)">e</text><text xml:space="preserve" font-family="Palatino-Roman,Palatino" font-size="30.0" fill="#404040" transform="matrix(1.00, 0.00, -0.00, -1.00, 446.7, 282.3)"> </text><text xml:space="preserve" font-family="Palatino-Roman,Palatino" font-size="30.0" fill="#404040" transform="matrix(1.00, 0.00, -0.00, -1.00, 454.2, 282.3)">a</text><text xml:space="preserve" font-family="Palatino-Roman,Palatino" font-size="30.0" fill="#404040" transform="matrix(1.00, 0.00, -0.00, -1.00, 469.2, 282.3)">t</text><text xml:space="preserve" font-family="Palatino-Roman,Palatino" font-size="30.0" fill="#404040" transform="matrix(1.00, 0.00, -0.00, -1.00, 479.0, 282.3)">:</text><text xml:space="preserve" font-family="Palatino-Roman,Palatino" font-size="30.0" fill="#404040" transform="matrix(1.00, 0.00, -0.00, -1.00, 486.5, 282.3)"> </text><text xml:space="preserve" font-family="Palatino-Roman,Palatino" font-size="30.0" fill="#404040" transform="matrix(1.00, 0.00, -0.00, -1.00, 75.0, 242.3)">h</text><text xml:space="preserve" font-family="Palatino-Roman,Palatino" font-size="30.0" fill="#404040" transform="matrix(1.00, 0.00, -0.00, -1.00, 92.5, 242.3)">t</text><text xml:space="preserve" font-family="Palatino-Roman,Palatino" font-size="30.0" fill="#404040" transform="matrix(1.00, 0.00, -0.00, -1.00, 102.3, 242.3)">t</text><text xml:space="preserve" font-family="Palatino-Roman,Palatino" font-size="30.0" fill="#404040" transform="matrix(1.00, 0.00, -0.00, -1.00, 112.0, 242.3)">p</text><text xml:space="preserve" font-family="Palatino-Roman,Palatino" font-size="30.0" fill="#404040" transform="matrix(1.00, 0.00, -0.00, -1.00, 130.1, 242.3)">s</text><text xml:space="preserve" font-family="Palatino-Roman,Palatino" font-size="30.0" fill="#404040" transform="matrix(1.00, 0.00, -0.00, -1.00, 142.8, 242.3)">:</text><text xml:space="preserve" font-family="Palatino-Roman,Palatino" font-size="30.0" fill="#404040" transform="matrix(1.00, 0.00, -0.00, -1.00, 150.3, 242.3)">/</text><text xml:space="preserve" font-family="Palatino-Roman,Palatino" font-size="30.0" fill="#404040" transform="matrix(1.00, 0.00, -0.00, -1.00, 168.5, 242.3)">/</text><text xml:space="preserve" font-family="Palatino-Roman,Palatino" font-size="30.0" fill="#404040" transform="matrix(1.00, 0.00, -0.00, -1.00, 186.6, 242.3)">g</text><text xml:space="preserve" font-family="Palatino-Roman,Palatino" font-size="30.0" fill="#404040" transform="matrix(1.00, 0.00, -0.00, -1.00, 203.3, 242.3)">i</text><text xml:space="preserve" font-family="Palatino-Roman,Palatino" font-size="30.0" fill="#404040" transform="matrix(1.00, 0.00, -0.00, -1.00, 212.1, 242.3)">t</text><text xml:space="preserve" font-family="Palatino-Roman,Palatino" font-size="30.0" fill="#404040" transform="matrix(1.00, 0.00, -0.00, -1.00, 221.9, 242.3)">h</text><text xml:space="preserve" font-family="Palatino-Roman,Palatino" font-size="30.0" fill="#404040" transform="matrix(1.00, 0.00, -0.00, -1.00, 239.3, 242.3)">u</text><text xml:space="preserve" font-family="Palatino-Roman,Palatino" font-size="30.0" fill="#404040" transform="matrix(1.00, 0.00, -0.00, -1.00, 257.4, 242.3)">b</text><text xml:space="preserve" font-family="Palatino-Roman,Palatino" font-size="30.0" fill="#404040" transform="matrix(1.00, 0.00, -0.00, -1.00, 274.0, 242.3)">.</text><text xml:space="preserve" font-family="Palatino-Roman,Palatino" font-size="30.0" fill="#404040" transform="matrix(1.00, 0.00, -0.00, -1.00, 281.5, 242.3)">c</text><text xml:space="preserve" font-family="Palatino-Roman,Palatino" font-size="30.0" fill="#404040" transform="matrix(1.00, 0.00, -0.00, -1.00, 294.8, 242.3)">o</text><text xml:space="preserve" font-family="Palatino-Roman,Palatino" font-size="30.0" fill="#404040" transform="matrix(1.00, 0.00, -0.00, -1.00, 311.2, 242.3)">m</text><text xml:space="preserve" font-family="Palatino-Roman,Palatino" font-size="30.0" fill="#404040" transform="matrix(1.00, 0.00, -0.00, -1.00, 337.7, 242.3)">/</text><text xml:space="preserve" font-family="Palatino-Roman,Palatino" font-size="30.0" fill="#404040" transform="matrix(1.00, 0.00, -0.00, -1.00, 355.9, 242.3)">k</text><text xml:space="preserve" font-family="Palatino-Roman,Palatino" font-size="30.0" fill="#404040" transform="matrix(1.00, 0.00, -0.00, -1.00, 372.5, 242.3)">e</text><text xml:space="preserve" font-family="Palatino-Roman,Palatino" font-size="30.0" fill="#404040" transform="matrix(1.00, 0.00, -0.00, -1.00, 386.9, 242.3)">l</text><text xml:space="preserve" font-family="Palatino-Roman,Palatino" font-size="30.0" fill="#404040" transform="matrix(1.00, 0.00, -0.00, -1.00, 395.6, 242.3)">c</text><text xml:space="preserve" font-family="Palatino-Roman,Palatino" font-size="30.0" fill="#404040" transform="matrix(1.00, 0.00, -0.00, -1.00, 409.0, 242.3)">e</text><text xml:space="preserve" font-family="Palatino-Roman,Palatino" font-size="30.0" fill="#404040" transform="matrix(1.00, 0.00, -0.00, -1.00, 423.3, 242.3)">c</text><text xml:space="preserve" font-family="Palatino-Roman,Palatino" font-size="30.0" fill="#404040" transform="matrix(1.00, 0.00, -0.00, -1.00, 436.6, 242.3)">i</text><text xml:space="preserve" font-family="Palatino-Roman,Palatino" font-size="30.0" fill="#404040" transform="matrix(1.00, 0.00, -0.00, -1.00, 445.4, 242.3)">l</text><text xml:space="preserve" font-family="Palatino-Roman,Palatino" font-size="30.0" fill="#404040" transform="matrix(1.00, 0.00, -0.00, -1.00, 454.1, 242.3)">/</text><g><clipPath id="clip0x6180018a0660"><path d="M 74.0 237.4 L 472.3 237.4 L 472.3 241.2 L 74.0 241.2 Z M 74.0 237.4 "></path></clipPath><g clip-path="url(#clip0x6180018a0660)"><path d="M 35.0 313.7 L 432.3 313.7 " fill="none" stroke="#404040" stroke-width="1.76" transform="matrix(1.00, 0.00, 0.00, -1.00, 40.0, 553.0)"></path></g></g><text xml:space="preserve" font-family="Palatino-Roman,Palatino" font-size="30.0" fill="#404040" transform="matrix(1.00, 0.00, -0.00, -1.00, 75.0, 202.3)">d</text><text xml:space="preserve" font-family="Palatino-Roman,Palatino" font-size="30.0" fill="#404040" transform="matrix(1.00, 0.00, -0.00, -1.00, 93.3, 202.3)">o</text><text xml:space="preserve" font-family="Palatino-Roman,Palatino" font-size="30.0" fill="#404040" transform="matrix(1.00, 0.00, -0.00, -1.00, 109.7, 202.3)">c</text><text xml:space="preserve" font-family="Palatino-Roman,Palatino" font-size="30.0" fill="#404040" transform="matrix(1.00, 0.00, -0.00, -1.00, 123.0, 202.3)">k</text><text xml:space="preserve" font-family="Palatino-Roman,Palatino" font-size="30.0" fill="#404040" transform="matrix(1.00, 0.00, -0.00, -1.00, 139.7, 202.3)">e</text><text xml:space="preserve" font-family="Palatino-Roman,Palatino" font-size="30.0" fill="#404040" transform="matrix(1.00, 0.00, -0.00, -1.00, 154.1, 202.3)">r</text><text xml:space="preserve" font-family="Palatino-Roman,Palatino" font-size="30.0" fill="#404040" transform="matrix(1.00, 0.00, -0.00, -1.00, 165.4, 202.3)">-</text><text xml:space="preserve" font-family="Palatino-Roman,Palatino" font-size="30.0" fill="#404040" transform="matrix(1.00, 0.00, -0.00, -1.00, 175.4, 202.3)">t</text><text xml:space="preserve" font-family="Palatino-Roman,Palatino" font-size="30.0" fill="#404040" transform="matrix(1.00, 0.00, -0.00, -1.00, 185.2, 202.3)">e</text><text xml:space="preserve" font-family="Palatino-Roman,Palatino" font-size="30.0" fill="#404040" transform="matrix(1.00, 0.00, -0.00, -1.00, 199.5, 202.3)">c</text><text xml:space="preserve" font-family="Palatino-Roman,Palatino" font-size="30.0" fill="#404040" transform="matrix(1.00, 0.00, -0.00, -1.00, 212.8, 202.3)">h</text><text xml:space="preserve" font-family="Palatino-Roman,Palatino" font-size="30.0" fill="#404040" transform="matrix(1.00, 0.00, -0.00, -1.00, 230.3, 202.3)">f</text><text xml:space="preserve" font-family="Palatino-Roman,Palatino" font-size="30.0" fill="#404040" transform="matrix(1.00, 0.00, -0.00, -1.00, 240.3, 202.3)">e</text><text xml:space="preserve" font-family="Palatino-Roman,Palatino" font-size="30.0" fill="#404040" transform="matrix(1.00, 0.00, -0.00, -1.00, 254.7, 202.3)">s</text><text xml:space="preserve" font-family="Palatino-Roman,Palatino" font-size="30.0" fill="#404040" transform="matrix(1.00, 0.00, -0.00, -1.00, 267.4, 202.3)">t</text><text xml:space="preserve" font-family="Palatino-Roman,Palatino" font-size="30.0" fill="#404040" transform="matrix(1.00, 0.00, -0.00, -1.00, 277.2, 202.3)">1</text><text xml:space="preserve" font-family="Palatino-Roman,Palatino" font-size="30.0" fill="#404040" transform="matrix(1.00, 0.00, -0.00, -1.00, 292.2, 202.3)">5</text><g><clipPath id="clip0x6180016afc00"><path d="M 74.0 197.4 L 307.2 197.4 L 307.2 201.2 L 74.0 201.2 Z M 74.0 197.4 "></path></clipPath><g clip-path="url(#clip0x6180016afc00)"><path d="M 35.0 353.7 L 267.2 353.7 " fill="none" stroke="#404040" stroke-width="1.76" transform="matrix(1.00, 0.00, 0.00, -1.00, 40.0, 553.0)"></path></g></g><g><clipPath id="clip0x6180016ac240"><path d="M 44.0 549.0 L 494.0 549.0 L 494.0 57.0 L 44.0 57.0 Z M 44.0 549.0 "></path></clipPath><g clip-path="url(#clip0x6180016ac240)"><path d="M -2.0 135.0 L 460.0 135.0 L 460.0 365.0 L -2.0 365.0 Z M -2.0 135.0 " fill="none" stroke="#000000" stroke-width="6.00" transform="matrix(1.00, 0.00, 0.00, -1.00, 40.0, 553.0)"></path></g></g></g></svg>