<?xml version="1.0" encoding="UTF-8" standalone="no"?><svg xmlns="http://www.w3.org/2000/svg" xmlns:xlink="http://www.w3.org/1999/xlink" clip-rule="evenodd" stroke-miterlimit="10" viewBox="0 0 1024 768"><desc>SVG generated by Keynote</desc><defs><pattern id="B1C5DCB3-5D23-44E5-9EB1-087E7EA5104F" patternUnits="userSpaceOnUse" width="580" height="580" viewBox="0 0 580 580"><image xlink:href="../../76B6F3B3-FE62-45A3-BC10-8C0E82E2DC18/assets/8727E46A978D0F4CEC9239881F818550.png" width="580.00" height="580.00"></image></pattern></defs><g transform="matrix(1.00, 0.00, -0.00, -1.00, 0.0, 768.0)"><g><clipPath id="clip0x6000012bf5c0"><path d="M 0.0 768.0 L 1024.0 768.0 L 1024.0 0.0 L 0.0 0.0 Z M 0.0 768.0 "></path></clipPath><g clip-path="url(#clip0x6000012bf5c0)"><image xlink:href="../../524A64CF-8346-4612-AEB3-13D03E94EA2C/assets/8A97F831B44C6305266B84CB83B0E791.jpeg" width="2048.00" height="1536.00" transform="matrix(0.50, 0.00, -0.00, -0.50, 0.0, 768.0)"></image></g></g><g><clipPath id="clip0x610000eac240"><path d="M 0.0 768.0 L 1024.0 768.0 L 1024.0 0.0 L 0.0 0.0 Z M 0.0 768.0 "></path></clipPath><g clip-path="url(#clip0x610000eac240)"><image xlink:href="../../862BF2E1-3FBB-4826-BBA5-227F6BEDC31C/assets/B91BC6A0D9132C254BD5012086C6F40B.png" width="880.00" height="684.00" transform="matrix(1.12, 0.00, -0.00, -1.12, 18.0, 768.0)"></image></g></g><g><clipPath id="clip0x6000010abd00"><path d="M 532.0 277.0 L 967.0 277.0 L 967.0 159.0 L 532.0 159.0 Z M 531.8 276.8 "></path></clipPath><g clip-path="url(#clip0x6000010abd00)"><path d="M 532.0 159.0 L 967.0 159.0 L 967.0 277.0 L 532.0 277.0 Z M 532.0 159.0 " fill="url(#B1C5DCB3-5D23-44E5-9EB1-087E7EA5104F)"></path></g></g><path d="M 0.0 0.0 L 463.8 0.0 L 466.8 0.0 " fill="none" stroke="#E0E0E0" stroke-width="6.00" transform="matrix(-0.92, -0.39, -0.39, 0.92, 529.1, 219.4)"></path><path d="M 98.2 47.7 L 80.8 27.2 L 107.6 25.6 Z M 98.2 47.7 " fill="#E0E0E0"></path><text xml:space="preserve" font-family="Palatino-Roman,Palatino" font-size="24.0" fill="#E5EDEA" transform="matrix(1.00, 0.00, -0.00, -1.00, 581.7, 224.4)">F</text><text xml:space="preserve" font-family="Palatino-Roman,Palatino" font-size="24.0" fill="#E5EDEA" transform="matrix(1.00, 0.00, -0.00, -1.00, 595.0, 224.4)">R</text><text xml:space="preserve" font-family="Palatino-Roman,Palatino" font-size="24.0" fill="#E5EDEA" transform="matrix(1.00, 0.00, -0.00, -1.00, 611.0, 224.4)">O</text><text xml:space="preserve" font-family="Palatino-Roman,Palatino" font-size="24.0" fill="#E5EDEA" transform="matrix(1.00, 0.00, -0.00, -1.00, 629.9, 224.4)">M</text><text xml:space="preserve" font-family="Palatino-Roman,Palatino" font-size="24.0" fill="#E5EDEA" transform="matrix(1.00, 0.00, -0.00, -1.00, 652.6, 224.4)"> </text><text xml:space="preserve" font-family="Palatino-Roman,Palatino" font-size="24.0" fill="#E5EDEA" transform="matrix(1.00, 0.00, -0.00, -1.00, 658.6, 224.4)">s</text><text xml:space="preserve" font-family="Palatino-Roman,Palatino" font-size="24.0" fill="#E5EDEA" transform="matrix(1.00, 0.00, -0.00, -1.00, 668.8, 224.4)">p</text><text xml:space="preserve" font-family="Palatino-Roman,Palatino" font-size="24.0" fill="#E5EDEA" transform="matrix(1.00, 0.00, -0.00, -1.00, 683.2, 224.4)">e</text><text xml:space="preserve" font-family="Palatino-Roman,Palatino" font-size="24.0" fill="#E5EDEA" transform="matrix(1.00, 0.00, -0.00, -1.00, 694.7, 224.4)">c</text><text xml:space="preserve" font-family="Palatino-Roman,Palatino" font-size="24.0" fill="#E5EDEA" transform="matrix(1.00, 0.00, -0.00, -1.00, 705.4, 224.4)">i</text><text xml:space="preserve" font-family="Palatino-Roman,Palatino" font-size="24.0" fill="#E5EDEA" transform="matrix(1.00, 0.00, -0.00, -1.00, 712.3, 224.4)">ﬁ</text><text xml:space="preserve" font-family="Palatino-Roman,Palatino" font-size="24.0" fill="#E5EDEA" transform="matrix(1.00, 0.00, -0.00, -1.00, 726.9, 224.4)">e</text><text xml:space="preserve" font-family="Palatino-Roman,Palatino" font-size="24.0" fill="#E5EDEA" transform="matrix(1.00, 0.00, -0.00, -1.00, 738.4, 224.4)">s</text><text xml:space="preserve" font-family="Palatino-Roman,Palatino" font-size="24.0" fill="#E5EDEA" transform="matrix(1.00, 0.00, -0.00, -1.00, 748.5, 224.4)"> </text><text xml:space="preserve" font-family="Palatino-Roman,Palatino" font-size="24.0" fill="#E5EDEA" transform="matrix(1.00, 0.00, -0.00, -1.00, 754.5, 224.4)">a</text><text xml:space="preserve" font-family="Palatino-Roman,Palatino" font-size="24.0" fill="#E5EDEA" transform="matrix(1.00, 0.00, -0.00, -1.00, 766.5, 224.4)"> </text><text xml:space="preserve" font-family="Palatino-Roman,Palatino" font-size="24.0" fill="#E5EDEA" transform="matrix(1.00, 0.00, -0.00, -1.00, 772.5, 224.4)">b</text><text xml:space="preserve" font-family="Palatino-Roman,Palatino" font-size="24.0" fill="#E5EDEA" transform="matrix(1.00, 0.00, -0.00, -1.00, 785.8, 224.4)">a</text><text xml:space="preserve" font-family="Palatino-Roman,Palatino" font-size="24.0" fill="#E5EDEA" transform="matrix(1.00, 0.00, -0.00, -1.00, 797.8, 224.4)">s</text><text xml:space="preserve" font-family="Palatino-Roman,Palatino" font-size="24.0" fill="#E5EDEA" transform="matrix(1.00, 0.00, -0.00, -1.00, 808.0, 224.4)">e</text><text xml:space="preserve" font-family="Palatino-Roman,Palatino" font-size="24.0" fill="#E5EDEA" transform="matrix(1.00, 0.00, -0.00, -1.00, 819.5, 224.4)"> </text><text xml:space="preserve" font-family="Palatino-Roman,Palatino" font-size="24.0" fill="#E5EDEA" transform="matrix(1.00, 0.00, -0.00, -1.00, 825.5, 224.4)">i</text><text xml:space="preserve" font-family="Palatino-Roman,Palatino" font-size="24.0" fill="#E5EDEA" transform="matrix(1.00, 0.00, -0.00, -1.00, 832.4, 224.4)">m</text><text xml:space="preserve" font-family="Palatino-Roman,Palatino" font-size="24.0" fill="#E5EDEA" transform="matrix(1.00, 0.00, -0.00, -1.00, 853.6, 224.4)">a</text><text xml:space="preserve" font-family="Palatino-Roman,Palatino" font-size="24.0" fill="#E5EDEA" transform="matrix(1.00, 0.00, -0.00, -1.00, 865.6, 224.4)">g</text><text xml:space="preserve" font-family="Palatino-Roman,Palatino" font-size="24.0" fill="#E5EDEA" transform="matrix(1.00, 0.00, -0.00, -1.00, 879.0, 224.4)">e</text><text xml:space="preserve" font-family="Palatino-Roman,Palatino" font-size="24.0" fill="#E5EDEA" transform="matrix(1.00, 0.00, -0.00, -1.00, 890.5, 224.4)"> </text><text xml:space="preserve" font-family="Palatino-Roman,Palatino" font-size="24.0" fill="#E5EDEA" transform="matrix(1.00, 0.00, -0.00, -1.00, 896.5, 224.4)">i</text><text xml:space="preserve" font-family="Palatino-Roman,Palatino" font-size="24.0" fill="#E5EDEA" transform="matrix(1.00, 0.00, -0.00, -1.00, 903.5, 224.4)">n</text><text xml:space="preserve" font-family="Palatino-Roman,Palatino" font-size="24.0" fill="#E5EDEA" transform="matrix(1.00, 0.00, -0.00, -1.00, 917.4, 224.4)"> </text><text xml:space="preserve" font-family="Palatino-Roman,Palatino" font-size="24.0" fill="#E5EDEA" transform="matrix(1.00, 0.00, -0.00, -1.00, 578.0, 192.4)">w</text><text xml:space="preserve" font-family="Palatino-Roman,Palatino" font-size="24.0" fill="#E5EDEA" transform="matrix(1.00, 0.00, -0.00, -1.00, 598.0, 192.4)">h</text><text xml:space="preserve" font-family="Palatino-Roman,Palatino" font-size="24.0" fill="#E5EDEA" transform="matrix(1.00, 0.00, -0.00, -1.00, 612.0, 192.4)">i</text><text xml:space="preserve" font-family="Palatino-Roman,Palatino" font-size="24.0" fill="#E5EDEA" transform="matrix(1.00, 0.00, -0.00, -1.00, 619.0, 192.4)">c</text><text xml:space="preserve" font-family="Palatino-Roman,Palatino" font-size="24.0" fill="#E5EDEA" transform="matrix(1.00, 0.00, -0.00, -1.00, 629.6, 192.4)">h</text><text xml:space="preserve" font-family="Palatino-Roman,Palatino" font-size="24.0" fill="#E5EDEA" transform="matrix(1.00, 0.00, -0.00, -1.00, 643.6, 192.4)"> </text><text xml:space="preserve" font-family="Palatino-Roman,Palatino" font-size="24.0" fill="#E5EDEA" transform="matrix(1.00, 0.00, -0.00, -1.00, 649.6, 192.4)"> </text><text xml:space="preserve" font-family="Palatino-Roman,Palatino" font-size="24.0" fill="#E5EDEA" transform="matrix(1.00, 0.00, -0.00, -1.00, 655.6, 192.4)">w</text><text xml:space="preserve" font-family="Palatino-Roman,Palatino" font-size="24.0" fill="#E5EDEA" transform="matrix(1.00, 0.00, -0.00, -1.00, 675.6, 192.4)">e</text><text xml:space="preserve" font-family="Palatino-Roman,Palatino" font-size="24.0" fill="#E5EDEA" transform="matrix(1.00, 0.00, -0.00, -1.00, 687.1, 192.4)">’</text><text xml:space="preserve" font-family="Palatino-Roman,Palatino" font-size="24.0" fill="#E5EDEA" transform="matrix(1.00, 0.00, -0.00, -1.00, 693.8, 192.4)">l</text><text xml:space="preserve" font-family="Palatino-Roman,Palatino" font-size="24.0" fill="#E5EDEA" transform="matrix(1.00, 0.00, -0.00, -1.00, 700.8, 192.4)">l</text><text xml:space="preserve" font-family="Palatino-Roman,Palatino" font-size="24.0" fill="#E5EDEA" transform="matrix(1.00, 0.00, -0.00, -1.00, 707.7, 192.4)"> </text><text xml:space="preserve" font-family="Palatino-Roman,Palatino" font-size="24.0" fill="#E5EDEA" transform="matrix(1.00, 0.00, -0.00, -1.00, 713.7, 192.4)">s</text><text xml:space="preserve" font-family="Palatino-Roman,Palatino" font-size="24.0" fill="#E5EDEA" transform="matrix(1.00, 0.00, -0.00, -1.00, 723.9, 192.4)">t</text><text xml:space="preserve" font-family="Palatino-Roman,Palatino" font-size="24.0" fill="#E5EDEA" transform="matrix(1.00, 0.00, -0.00, -1.00, 731.7, 192.4)">a</text><text xml:space="preserve" font-family="Palatino-Roman,Palatino" font-size="24.0" fill="#E5EDEA" transform="matrix(1.00, 0.00, -0.00, -1.00, 743.7, 192.4)">r</text><text xml:space="preserve" font-family="Palatino-Roman,Palatino" font-size="24.0" fill="#E5EDEA" transform="matrix(1.00, 0.00, -0.00, -1.00, 753.2, 192.4)">t</text><text xml:space="preserve" font-family="Palatino-Roman,Palatino" font-size="24.0" fill="#E5EDEA" transform="matrix(1.00, 0.00, -0.00, -1.00, 761.1, 192.4)"> </text><text xml:space="preserve" font-family="Palatino-Roman,Palatino" font-size="24.0" fill="#E5EDEA" transform="matrix(1.00, 0.00, -0.00, -1.00, 767.1, 192.4)">b</text><text xml:space="preserve" font-family="Palatino-Roman,Palatino" font-size="24.0" fill="#E5EDEA" transform="matrix(1.00, 0.00, -0.00, -1.00, 780.3, 192.4)">u</text><text xml:space="preserve" font-family="Palatino-Roman,Palatino" font-size="24.0" fill="#E5EDEA" transform="matrix(1.00, 0.00, -0.00, -1.00, 794.8, 192.4)">i</text><text xml:space="preserve" font-family="Palatino-Roman,Palatino" font-size="24.0" fill="#E5EDEA" transform="matrix(1.00, 0.00, -0.00, -1.00, 801.8, 192.4)">l</text><text xml:space="preserve" font-family="Palatino-Roman,Palatino" font-size="24.0" fill="#E5EDEA" transform="matrix(1.00, 0.00, -0.00, -1.00, 808.8, 192.4)">d</text><text xml:space="preserve" font-family="Palatino-Roman,Palatino" font-size="24.0" fill="#E5EDEA" transform="matrix(1.00, 0.00, -0.00, -1.00, 823.4, 192.4)">i</text><text xml:space="preserve" font-family="Palatino-Roman,Palatino" font-size="24.0" fill="#E5EDEA" transform="matrix(1.00, 0.00, -0.00, -1.00, 830.4, 192.4)">n</text><text xml:space="preserve" font-family="Palatino-Roman,Palatino" font-size="24.0" fill="#E5EDEA" transform="matrix(1.00, 0.00, -0.00, -1.00, 844.4, 192.4)">g</text><text xml:space="preserve" font-family="Palatino-Roman,Palatino" font-size="24.0" fill="#E5EDEA" transform="matrix(1.00, 0.00, -0.00, -1.00, 857.7, 192.4)"> </text><text xml:space="preserve" font-family="Palatino-Roman,Palatino" font-size="24.0" fill="#E5EDEA" transform="matrix(1.00, 0.00, -0.00, -1.00, 863.7, 192.4)">f</text><text xml:space="preserve" font-family="Palatino-Roman,Palatino" font-size="24.0" fill="#E5EDEA" transform="matrix(1.00, 0.00, -0.00, -1.00, 871.7, 192.4)">r</text><text xml:space="preserve" font-family="Palatino-Roman,Palatino" font-size="24.0" fill="#E5EDEA" transform="matrix(1.00, 0.00, -0.00, -1.00, 880.8, 192.4)">o</text><text xml:space="preserve" font-family="Palatino-Roman,Palatino" font-size="24.0" fill="#E5EDEA" transform="matrix(1.00, 0.00, -0.00, -1.00, 893.9, 192.4)">m</text><text xml:space="preserve" font-family="Palatino-Roman,Palatino" font-size="24.0" fill="#E5EDEA" transform="matrix(1.00, 0.00, -0.00, -1.00, 915.1, 192.4)">.</text></g></svg>